<svg xmlns="http://www.w3.org/2000/svg" viewBox="0 0 658 270"><defs><style>.cls-1,.cls-2{fill:#fff;}.cls-2{opacity:0.5;}</style></defs><g id="Layer_1" data-name="Layer 1"><g id="akka-streams-full-color"><path class="cls-1" d="M460.11,200.29a2.78,2.78,0,0,1,0-4,2.71,2.71,0,0,1,3.92,0,2.78,2.78,0,0,1,0,4A2.81,2.81,0,0,1,460.11,200.29Zm-.11,5.49h4.14V228c0,2.07.56,3,2.13,3,.44,0,1-.06,1.45-.11v3.41a6.91,6.91,0,0,1-2.63.45c-3.42,0-5.09-2-5.09-6Z"/><path class="cls-1" d="M471.81,234V205.78H476v4.76a9.45,9.45,0,0,1,8.9-5.21c6.33,0,10.3,4.2,10.3,10.64v11.65c0,2.29.34,3,2,3a9,9,0,0,0,1.07-.11v3.42a5.23,5.23,0,0,1-1.8.28c-2.18,0-5.37-.62-5.37-6.27v-11c0-4.7-2.75-7.67-7.23-7.67-4.64,0-7.83,3.25-7.83,7.95V234Z"/><path class="cls-1" d="M503.06,226.55c.73,2.41,3.25,4.26,7.11,4.26,4.65,0,6.21-2.13,6.21-4.31a3.62,3.62,0,0,0-1.56-3.2,29.6,29.6,0,0,0-5.49-2.68c-5.15-2-7.67-4.15-7.67-8.24,0-4.31,3.53-7.44,8.51-7.44a8.46,8.46,0,0,1,8.18,4.87L515,211.54a5.07,5.07,0,0,0-4.76-2.8c-2.64,0-4.43,1.35-4.43,3.64s1.91,3.48,6.16,5.1c5.83,2.24,8.57,4.7,8.57,9,0,4.48-3.64,8.17-10.36,8.17-5.38,0-9.52-2.46-10.64-6.77Z"/><path class="cls-1" d="M525.06,200.29a2.79,2.79,0,0,1,0-4,2.71,2.71,0,0,1,3.92,0,2.76,2.76,0,0,1,0,4A2.81,2.81,0,0,1,525.06,200.29Zm-.11,5.49h4.15V228c0,2.07.56,3,2.12,3,.45,0,1-.06,1.46-.11v3.41a7,7,0,0,1-2.63.45c-3.42,0-5.1-2-5.1-6Z"/><path class="cls-1" d="M538.17,238.7a18.71,18.71,0,0,0,11.2,3.76,10.76,10.76,0,0,0,7-2.08c2-1.62,2.91-4.53,2.91-8.73V229.3c-1.62,2.85-4.93,5-10,5a13.85,13.85,0,0,1-10.14-4.15,15.45,15.45,0,0,1,0-21.05,13.71,13.71,0,0,1,10.14-4.2c5.09,0,8.4,2.18,10,5v-4.2h4.14V229.3a34.77,34.77,0,0,1-.84,8.62,9.67,9.67,0,0,1-3.64,5.43,15,15,0,0,1-9.52,3A22.38,22.38,0,0,1,536,242Zm18.59-11.31a11.36,11.36,0,0,0,0-15.45,9.9,9.9,0,0,0-7.5-3.14,9.58,9.58,0,0,0-7.28,3.14,11.86,11.86,0,0,0,0,15.45,9.56,9.56,0,0,0,7.28,3.08A9.89,9.89,0,0,0,556.76,227.39Z"/><path class="cls-1" d="M569.81,234V195H574v15.57a9.24,9.24,0,0,1,8.68-5.21c6.22,0,10.14,4.2,10.14,10.64v11.65c0,2.24.39,3,2,3a8.86,8.86,0,0,0,1.06-.11v3.42a5.38,5.38,0,0,1-1.79.28c-2.18,0-5.38-.62-5.38-6.27v-11c0-4.7-2.68-7.67-7-7.67-4.48,0-7.67,3.25-7.67,7.95V234Z"/><path class="cls-1" d="M601.11,209.64h-3.3v-3.86h3.3V195h4.15v10.81h6.55v3.86h-6.55V226.1c0,3.59,1.17,4.88,3.92,4.88a17.54,17.54,0,0,0,2.63-.17v3.58a8.25,8.25,0,0,1-3.14.45q-7.56,0-7.56-8.74Z"/><path class="cls-1" d="M617.91,226.55c.73,2.41,3.25,4.26,7.11,4.26,4.65,0,6.22-2.13,6.22-4.31a3.61,3.61,0,0,0-1.57-3.2,29.27,29.27,0,0,0-5.49-2.68c-5.15-2-7.67-4.15-7.67-8.24,0-4.31,3.53-7.44,8.51-7.44a8.45,8.45,0,0,1,8.18,4.87l-3.36,1.73a5.07,5.07,0,0,0-4.76-2.8c-2.63,0-4.42,1.35-4.42,3.64s1.9,3.48,6.16,5.1c5.82,2.24,8.56,4.7,8.56,9,0,4.48-3.64,8.17-10.36,8.17-5.37,0-9.52-2.46-10.64-6.77Z"/><g id="akka"><path class="cls-1" d="M349.64,105.46V93.34h19.92v58.44c0,7.13,1.66,9.79,6.14,9.79,1.17,0,2.66-.17,4.15-.33v16.1a28.71,28.71,0,0,1-9.79,1.33c-4.81,0-8.63-.83-11.62-2.66a15.41,15.41,0,0,1-6.81-10.12C345.82,174.68,336.2,179,322.92,179A39.74,39.74,0,0,1,293,166.38c-8-8.46-12-18.75-12-31.2s4-22.75,12-31.05a39.77,39.77,0,0,1,29.88-12.61C336.36,91.52,346.49,97.49,349.64,105.46Zm-6,48a24.42,24.42,0,0,0,7.47-18.26,24.39,24.39,0,0,0-7.47-18.26,24.79,24.79,0,0,0-18.1-7.31,24,24,0,0,0-17.76,7.31c-4.65,4.81-7,11-7,18.26s2.32,13.44,7,18.26a24,24,0,0,0,17.76,7.3A24.82,24.82,0,0,0,343.67,153.44Z"/><path class="cls-1" d="M388.48,177V61.31h19.76v67.56l30.87-35.53H462l-32.7,37.35L465.51,177H442.93l-26.39-33.7-8.3,9.3V177Z"/><path class="cls-1" d="M470.82,177V61.31h19.75v67.56l30.88-35.53h22.91l-32.7,37.35L547.84,177H525.27l-26.4-33.7-8.3,9.3V177Z"/><path class="cls-1" d="M607.87,105.46V93.34h19.92v58.44c0,7.13,1.66,9.79,6.14,9.79,1.17,0,2.66-.17,4.15-.33v16.1a28.71,28.71,0,0,1-9.79,1.33c-4.81,0-8.63-.83-11.62-2.66a15.41,15.41,0,0,1-6.81-10.12c-5.81,8.79-15.43,13.11-28.71,13.11a39.74,39.74,0,0,1-29.88-12.62c-8-8.46-12-18.75-12-31.2s4-22.75,12-31.05a39.77,39.77,0,0,1,29.88-12.61C594.59,91.52,604.72,97.49,607.87,105.46Zm-6,48a24.42,24.42,0,0,0,7.47-18.26,24.39,24.39,0,0,0-7.47-18.26,24.79,24.79,0,0,0-18.1-7.31A24,24,0,0,0,566,116.92c-4.65,4.81-7,11-7,18.26s2.32,13.44,7,18.26a24,24,0,0,0,17.76,7.3A24.82,24.82,0,0,0,601.9,153.44Z"/></g><g id="icon"><path class="cls-2" d="M230.26,212.82c35.88,28.67,58.91-57,1.74-72.82-48-13.29-96.33,9.5-144.66,62.74C87.34,202.74,176.67,170,230.26,212.82Z"/><path class="cls-1" d="M88.08,202c34.41-35.69,91.64-75.53,144.9-60.75A46.09,46.09,0,0,1,259.9,160.6L209.48,58.78c-7.2-11.46-25.58-9.15-35.95-.26L40.29,170.07a27.4,27.4,0,0,0-1.56,40.15l0,0a27.4,27.4,0,0,0,36.51,2L88.14,202Z"/></g></g></g></svg>