<svg xmlns="http://www.w3.org/2000/svg" viewBox="0 0 658 270"><g id="Layer_1" data-name="Layer 1"><g id="akka-streams-full-color"><path d="M433.73,244.81v-39h4.15V210c1.62-2.86,4.92-5,10-5A13.58,13.58,0,0,1,458,209.25a15.81,15.81,0,0,1,0,21.33,13.54,13.54,0,0,1-10.14,4.26c-5.1,0-8.4-2.18-10-5v15Zm21.39-17a11.25,11.25,0,0,0,2.92-8,11,11,0,0,0-2.92-7.9,9.25,9.25,0,0,0-7.22-3.19,10,10,0,0,0-7.56,3.19,11.06,11.06,0,0,0-3,7.9,11.28,11.28,0,0,0,3,8A10.16,10.16,0,0,0,447.9,231,9.41,9.41,0,0,0,455.12,227.84Z" fill="#0b5567"/><path d="M466.27,195h4.14v31.64c0,3.13.9,4.37,3.53,4.37a14.17,14.17,0,0,0,2-.12v3.53a5.78,5.78,0,0,1-2.58.45,8.11,8.11,0,0,1-4.59-1.23c-1.57-1-2.52-3.31-2.52-6.72Z" fill="#0b5567"/><path d="M501.32,210v-4.2h4.15v21.89c0,2.47.56,3.53,2.12,3.53.45,0,1-.06,1.46-.11v3.13a7,7,0,0,1-2.63.45,5.22,5.22,0,0,1-3-.78,5.53,5.53,0,0,1-1.9-4c-2.13,3.3-5.55,5-10.25,5a13.54,13.54,0,0,1-10.14-4.26,15.81,15.81,0,0,1,0-21.33,13.58,13.58,0,0,1,10.14-4.31C496.39,204.94,499.7,207.12,501.32,210Zm-2.52,17.86a11.07,11.07,0,0,0,3-8,10.85,10.85,0,0,0-3-7.9,9.77,9.77,0,0,0-7.5-3.19A9.47,9.47,0,0,0,484,212a11.2,11.2,0,0,0-2.86,7.9,11.43,11.43,0,0,0,2.86,8A9.63,9.63,0,0,0,491.3,231,9.94,9.94,0,0,0,498.8,227.84Z" fill="#0b5567"/><path d="M513.31,209.64H510v-3.86h3.31V195h4.14v10.81H524v3.86h-6.55V226.1c0,3.59,1.18,4.88,3.92,4.88a17.54,17.54,0,0,0,2.63-.17v3.58a8.19,8.19,0,0,1-3.13.45q-7.56,0-7.56-8.74Z" fill="#0b5567"/><path d="M531.84,234V209.64h-4.53v-3.86h4.53v-2.36c0-3.64.9-6.16,2.75-7.67,1.23-1.06,3.13-1.62,5.76-1.62a8.44,8.44,0,0,1,2.19.22v3.92a11.38,11.38,0,0,0-2.63-.28c-2.75,0-3.92,1.35-3.92,4.87v2.92h5.32v3.86H536V234Z" fill="#0b5567"/><path d="M541.14,219.89a14.23,14.23,0,0,1,4.37-10.64,15.29,15.29,0,0,1,21.28,0,15.22,15.22,0,0,1,0,21.33,15.42,15.42,0,0,1-21.28,0A14.36,14.36,0,0,1,541.14,219.89Zm4.14,0a10.9,10.9,0,0,0,3.08,8,11.22,11.22,0,0,0,15.57,0,10.9,10.9,0,0,0,3.08-8,10.69,10.69,0,0,0-3.08-7.9,11.09,11.09,0,0,0-15.57,0A10.69,10.69,0,0,0,545.28,219.89Z" fill="#0b5567"/><path d="M575.18,234V205.78h4.15v4.76a9.24,9.24,0,0,1,8.68-5.21,15,15,0,0,1,1.73.11v4.48a12.51,12.51,0,0,0-2.79-.28c-4.43,0-7.62,3.25-7.62,8V234Z" fill="#0b5567"/><path d="M593.16,234V205.78h4.14v4.76a8.33,8.33,0,0,1,8-5.21,8.22,8.22,0,0,1,8.28,5.6,8.88,8.88,0,0,1,8.8-5.6c5.65,0,9.18,4.2,9.18,10.64v11.65c0,2.24.39,3,2,3a8.66,8.66,0,0,0,1.06-.11v3.42a5.12,5.12,0,0,1-1.79.28c-2.18,0-5.37-.62-5.37-6.27v-11c0-4.7-2.36-7.67-6.16-7.67s-6.72,3.25-6.72,7.95V234h-4.15V216.86c0-4.76-2.29-7.67-6.27-7.67s-6.78,3.25-6.78,7.95V234Z" fill="#0b5567"/><g id="akka"><path d="M349.64,105.46V93.34h19.92v58.44c0,7.13,1.66,9.79,6.14,9.79,1.17,0,2.66-.17,4.15-.33v16.1a28.71,28.71,0,0,1-9.79,1.33c-4.81,0-8.63-.83-11.62-2.66a15.41,15.41,0,0,1-6.81-10.12C345.82,174.68,336.2,179,322.92,179A39.74,39.74,0,0,1,293,166.38c-8-8.46-12-18.75-12-31.2s4-22.75,12-31.05a39.77,39.77,0,0,1,29.88-12.61C336.36,91.52,346.49,97.49,349.64,105.46Zm-6,48a24.42,24.42,0,0,0,7.47-18.26,24.39,24.39,0,0,0-7.47-18.26,24.79,24.79,0,0,0-18.1-7.31,24,24,0,0,0-17.76,7.31c-4.65,4.81-7,11-7,18.26s2.32,13.44,7,18.26a24,24,0,0,0,17.76,7.3A24.82,24.82,0,0,0,343.67,153.44Z" fill="#0b5567"/><path d="M388.48,177V61.31h19.76v67.56l30.87-35.53H462l-32.7,37.35L465.51,177H442.93l-26.39-33.7-8.3,9.3V177Z" fill="#0b5567"/><path d="M470.82,177V61.31h19.75v67.56l30.88-35.53h22.91l-32.7,37.35L547.84,177H525.27l-26.4-33.7-8.3,9.3V177Z" fill="#0b5567"/><path d="M607.87,105.46V93.34h19.92v58.44c0,7.13,1.66,9.79,6.14,9.79,1.17,0,2.66-.17,4.15-.33v16.1a28.71,28.71,0,0,1-9.79,1.33c-4.81,0-8.63-.83-11.62-2.66a15.41,15.41,0,0,1-6.81-10.12c-5.81,8.79-15.43,13.11-28.71,13.11a39.74,39.74,0,0,1-29.88-12.62c-8-8.46-12-18.75-12-31.2s4-22.75,12-31.05a39.77,39.77,0,0,1,29.88-12.61C594.59,91.52,604.72,97.49,607.87,105.46Zm-6,48a24.42,24.42,0,0,0,7.47-18.26,24.39,24.39,0,0,0-7.47-18.26,24.79,24.79,0,0,0-18.1-7.31A24,24,0,0,0,566,116.92c-4.65,4.81-7,11-7,18.26s2.32,13.44,7,18.26a24,24,0,0,0,17.76,7.3A24.82,24.82,0,0,0,601.9,153.44Z" fill="#0b5567"/></g><g id="icon"><path d="M230.26,212.82c35.88,28.67,58.91-57,1.74-72.82-48-13.29-96.33,9.5-144.66,62.74C87.34,202.74,176.67,170,230.26,212.82Z" fill="#0b5567"/><path d="M88.08,202c34.41-35.69,91.64-75.53,144.9-60.75A46.09,46.09,0,0,1,259.9,160.6L209.48,58.78c-7.2-11.46-25.58-9.15-35.95-.26L40.29,170.07a27.4,27.4,0,0,0-1.56,40.15l0,0a27.4,27.4,0,0,0,36.51,2L88.14,202Z" fill="#15a9ce"/></g></g></g></svg>