<svg xmlns="http://www.w3.org/2000/svg" viewBox="0 0 658 270"><g id="Layer_1" data-name="Layer 1"><g id="akka-streams-full-color"><path d="M408.48,226.55c.73,2.41,3.24,4.26,7.11,4.26,4.65,0,6.21-2.13,6.21-4.31a3.62,3.62,0,0,0-1.56-3.2,29.6,29.6,0,0,0-5.49-2.68c-5.15-2-7.67-4.15-7.67-8.24,0-4.31,3.52-7.44,8.51-7.44a8.44,8.44,0,0,1,8.17,4.87l-3.36,1.73a5.05,5.05,0,0,0-4.76-2.8c-2.63,0-4.42,1.35-4.42,3.64s1.9,3.48,6.16,5.1c5.82,2.24,8.57,4.7,8.57,9,0,4.48-3.64,8.17-10.36,8.17-5.38,0-9.52-2.46-10.64-6.77Z" fill="#0b5567"/><path d="M429.08,220c0-4.54,1.35-8.18,4-10.92a13.52,13.52,0,0,1,10.14-4.14,11.8,11.8,0,0,1,9.35,4.08,14.39,14.39,0,0,1,3.64,10,17.25,17.25,0,0,1-.06,1.79h-22.9c.22,6.22,4.2,10.2,10.08,10.2,3.86,0,6.16-1.24,8.68-3.92l2.74,2.68a14.66,14.66,0,0,1-11.42,5,14.05,14.05,0,0,1-10.31-4c-2.63-2.63-3.92-6.16-3.92-10.53Zm22.68-2.86a7.9,7.9,0,0,0-2.52-5.88,8.42,8.42,0,0,0-6-2.46,9.84,9.84,0,0,0-6.67,2.46,8.44,8.44,0,0,0-3,5.88Z" fill="#0b5567"/><path d="M460.05,234V205.78h4.15v4.76a9.24,9.24,0,0,1,8.68-5.21,15,15,0,0,1,1.73.11v4.48a12.61,12.61,0,0,0-2.8-.28c-4.42,0-7.61,3.25-7.61,8V234Z" fill="#0b5567"/><path d="M487.77,234l-12.1-28.22H480l9.13,21.5,9.13-21.5h4.42L490.63,234Z" fill="#0b5567"/><path d="M502.67,220c0-4.54,1.34-8.18,4-10.92a13.52,13.52,0,0,1,10.14-4.14,11.8,11.8,0,0,1,9.35,4.08,14.39,14.39,0,0,1,3.64,10,17.25,17.25,0,0,1-.06,1.79h-22.9C507,227,511,231,516.89,231c3.86,0,6.16-1.24,8.68-3.92l2.74,2.68a14.65,14.65,0,0,1-11.42,5,14,14,0,0,1-10.3-4c-2.63-2.63-3.92-6.16-3.92-10.53Zm22.68-2.86a7.9,7.9,0,0,0-2.52-5.88,8.44,8.44,0,0,0-6.05-2.46,9.84,9.84,0,0,0-6.67,2.46,8.48,8.48,0,0,0-3,5.88Z" fill="#0b5567"/><path d="M533.63,234V205.78h4.15v4.76a9.24,9.24,0,0,1,8.68-5.21,15,15,0,0,1,1.73.11v4.48a12.54,12.54,0,0,0-2.8-.28c-4.42,0-7.61,3.25-7.61,8V234Z" fill="#0b5567"/><path d="M552.79,195h4.14v31.64c0,3.13.9,4.37,3.53,4.37a13.89,13.89,0,0,0,2-.12v3.53a5.7,5.7,0,0,1-2.57.45,8.11,8.11,0,0,1-4.59-1.23c-1.57-1-2.52-3.31-2.52-6.72Z" fill="#0b5567"/><path d="M562.42,220c0-4.54,1.34-8.18,4-10.92a13.54,13.54,0,0,1,10.14-4.14,11.8,11.8,0,0,1,9.35,4.08,14.39,14.39,0,0,1,3.64,10,17.25,17.25,0,0,1-.06,1.79h-22.9c.23,6.22,4.2,10.2,10.08,10.2,3.87,0,6.16-1.24,8.68-3.92l2.75,2.68a14.68,14.68,0,0,1-11.43,5,14,14,0,0,1-10.3-4c-2.63-2.63-3.92-6.16-3.92-10.53Zm22.68-2.86a7.9,7.9,0,0,0-2.52-5.88,8.44,8.44,0,0,0-6.05-2.46,9.79,9.79,0,0,0-6.66,2.46,8.46,8.46,0,0,0-3,5.88Z" fill="#0b5567"/><path d="M594.73,226.55c.73,2.41,3.25,4.26,7.11,4.26,4.65,0,6.22-2.13,6.22-4.31a3.63,3.63,0,0,0-1.57-3.2,29.6,29.6,0,0,0-5.49-2.68c-5.15-2-7.67-4.15-7.67-8.24,0-4.31,3.53-7.44,8.51-7.44a8.46,8.46,0,0,1,8.18,4.87l-3.36,1.73a5.07,5.07,0,0,0-4.76-2.8c-2.63,0-4.43,1.35-4.43,3.64s1.91,3.48,6.16,5.1c5.83,2.24,8.57,4.7,8.57,9,0,4.48-3.64,8.17-10.36,8.17-5.38,0-9.52-2.46-10.64-6.77Z" fill="#0b5567"/><path d="M617.91,226.55c.73,2.41,3.25,4.26,7.11,4.26,4.65,0,6.22-2.13,6.22-4.31a3.61,3.61,0,0,0-1.57-3.2,29.27,29.27,0,0,0-5.49-2.68c-5.15-2-7.67-4.15-7.67-8.24,0-4.31,3.53-7.44,8.51-7.44a8.45,8.45,0,0,1,8.18,4.87l-3.36,1.73a5.07,5.07,0,0,0-4.76-2.8c-2.63,0-4.42,1.35-4.42,3.64s1.9,3.48,6.16,5.1c5.82,2.24,8.56,4.7,8.56,9,0,4.48-3.64,8.17-10.36,8.17-5.37,0-9.52-2.46-10.64-6.77Z" fill="#0b5567"/><g id="akka"><path d="M349.64,105.46V93.34h19.92v58.44c0,7.13,1.66,9.79,6.14,9.79,1.17,0,2.66-.17,4.15-.33v16.1a28.71,28.71,0,0,1-9.79,1.33c-4.81,0-8.63-.83-11.62-2.66a15.41,15.41,0,0,1-6.81-10.12C345.82,174.68,336.2,179,322.92,179A39.74,39.74,0,0,1,293,166.38c-8-8.46-12-18.75-12-31.2s4-22.75,12-31.05a39.77,39.77,0,0,1,29.88-12.61C336.36,91.52,346.49,97.49,349.64,105.46Zm-6,48a24.42,24.42,0,0,0,7.47-18.26,24.39,24.39,0,0,0-7.47-18.26,24.79,24.79,0,0,0-18.1-7.31,24,24,0,0,0-17.76,7.31c-4.65,4.81-7,11-7,18.26s2.32,13.44,7,18.26a24,24,0,0,0,17.76,7.3A24.82,24.82,0,0,0,343.67,153.44Z" fill="#0b5567"/><path d="M388.48,177V61.31h19.76v67.56l30.87-35.53H462l-32.7,37.35L465.51,177H442.93l-26.39-33.7-8.3,9.3V177Z" fill="#0b5567"/><path d="M470.82,177V61.31h19.75v67.56l30.88-35.53h22.91l-32.7,37.35L547.84,177H525.27l-26.4-33.7-8.3,9.3V177Z" fill="#0b5567"/><path d="M607.87,105.46V93.34h19.92v58.44c0,7.13,1.66,9.79,6.14,9.79,1.17,0,2.66-.17,4.15-.33v16.1a28.71,28.71,0,0,1-9.79,1.33c-4.81,0-8.63-.83-11.62-2.66a15.41,15.41,0,0,1-6.81-10.12c-5.81,8.79-15.43,13.11-28.71,13.11a39.74,39.74,0,0,1-29.88-12.62c-8-8.46-12-18.75-12-31.2s4-22.75,12-31.05a39.77,39.77,0,0,1,29.88-12.61C594.59,91.52,604.72,97.49,607.87,105.46Zm-6,48a24.42,24.42,0,0,0,7.47-18.26,24.39,24.39,0,0,0-7.47-18.26,24.79,24.79,0,0,0-18.1-7.31A24,24,0,0,0,566,116.92c-4.65,4.81-7,11-7,18.26s2.32,13.44,7,18.26a24,24,0,0,0,17.76,7.3A24.82,24.82,0,0,0,601.9,153.44Z" fill="#0b5567"/></g><g id="icon"><path d="M230.26,212.82c35.88,28.67,58.91-57,1.74-72.82-48-13.29-96.33,9.5-144.66,62.74C87.34,202.74,176.67,170,230.26,212.82Z" fill="#0b5567"/><path d="M88.08,202c34.41-35.69,91.64-75.53,144.9-60.75A46.09,46.09,0,0,1,259.9,160.6L209.48,58.78c-7.2-11.46-25.58-9.15-35.95-.26L40.29,170.07a27.4,27.4,0,0,0-1.56,40.15l0,0a27.4,27.4,0,0,0,36.51,2L88.14,202Z" fill="#15a9ce"/></g></g></g></svg>