<?xml version="1.0" encoding="utf-8"?>
<!-- Generator: Adobe Illustrator 25.2.0, SVG Export Plug-In . SVG Version: 6.00 Build 0)  -->
<svg version="1.1" id="Layer_1" xmlns="http://www.w3.org/2000/svg" xmlns:xlink="http://www.w3.org/1999/xlink" x="0px" y="0px"
	 viewBox="0 0 390.9 269.7" style="enable-background:new 0 0 390.9 269.7;" xml:space="preserve">
<style type="text/css">
	.st0{fill:#FFFFFF;}
	.st1{fill-rule:evenodd;clip-rule:evenodd;fill:#FFFFFF;}
</style>
<g id="g1865" transform="translate(-1.668 -1.1)">
	<path id="path1857" class="st0" d="M131.5,111.3c0,3.7,0.4,6.7,1.1,8.9c0.8,2.2,1.8,4.6,3.2,7.2c0.5,0.8,0.7,1.6,0.7,2.3
		c0,1-0.6,2-1.9,3l-6.3,4.2c-0.9,0.6-1.8,0.9-2.6,0.9c-1,0-2-0.5-3-1.4c-1.4-1.5-2.6-3.1-3.6-4.7c-1-1.7-2-3.6-3.1-5.9
		c-7.8,9.2-17.6,13.8-29.4,13.8c-8.4,0-15.1-2.4-20-7.2c-4.9-4.8-7.4-11.2-7.4-19.2c0-8.5,3-15.4,9.1-20.6
		c6.1-5.2,14.2-7.8,24.5-7.8c3.4,0,6.9,0.3,10.6,0.8c3.7,0.5,7.5,1.3,11.5,2.2v-7.3c0-7.6-1.6-12.9-4.7-16
		c-3.2-3.1-8.6-4.6-16.3-4.6c-3.5,0-7.1,0.4-10.8,1.3c-3.7,0.9-7.3,2-10.8,3.4c-1.6,0.7-2.8,1.1-3.5,1.3c-0.7,0.2-1.2,0.3-1.6,0.3
		c-1.4,0-2.1-1-2.1-3.1v-4.9c0-1.6,0.2-2.8,0.7-3.5s1.4-1.4,2.8-2.1c3.5-1.8,7.7-3.3,12.6-4.5c4.9-1.3,10.1-1.9,15.6-1.9
		c11.9,0,20.6,2.7,26.2,8.1c5.5,5.4,8.3,13.6,8.3,24.6v32.4H131.5z M90.9,126.5c3.3,0,6.7-0.6,10.3-1.8c3.6-1.2,6.8-3.4,9.5-6.4
		c1.6-1.9,2.8-4,3.4-6.4s1-5.3,1-8.7V99c-2.9-0.7-6-1.3-9.2-1.7c-3.2-0.4-6.3-0.6-9.4-0.6c-6.7,0-11.6,1.3-14.9,4
		c-3.3,2.7-4.9,6.5-4.9,11.5c0,4.7,1.2,8.2,3.7,10.6C82.8,125.3,86.3,126.5,90.9,126.5L90.9,126.5z M171.2,137.3c-1.8,0-3-0.3-3.8-1
		c-0.8-0.6-1.5-2-2.1-3.9l-23.5-77.3c-0.6-2-0.9-3.3-0.9-4c0-1.6,0.8-2.5,2.4-2.5h9.8c1.9,0,3.2,0.3,3.9,1c0.8,0.6,1.4,2,2,3.9
		l16.8,66.2l15.6-66.2c0.5-2,1.1-3.3,1.9-3.9c0.8-0.6,2.2-1,4-1h8c1.9,0,3.2,0.3,4,1c0.8,0.6,1.5,2,1.9,3.9l15.8,67l17.3-67
		c0.6-2,1.3-3.3,2-3.9c0.8-0.6,2.1-1,3.9-1h9.3c1.6,0,2.5,0.8,2.5,2.5c0,0.5-0.1,1-0.2,1.6c-0.1,0.6-0.3,1.4-0.7,2.5L237,132.5
		c-0.6,2-1.3,3.3-2.1,3.9c-0.8,0.6-2.1,1-3.8,1h-8.6c-1.9,0-3.2-0.3-4-1s-1.5-2-1.9-4l-15.5-64.5l-15.4,64.4c-0.5,2-1.1,3.3-1.9,4
		c-0.8,0.7-2.2,1-4,1H171.2z M299.7,140c-5.2,0-10.4-0.6-15.4-1.8s-8.9-2.5-11.5-4c-1.6-0.9-2.7-1.9-3.1-2.8
		c-0.4-0.9-0.6-1.9-0.6-2.8v-5.1c0-2.1,0.8-3.1,2.3-3.1c0.6,0,1.2,0.1,1.8,0.3c0.6,0.2,1.5,0.6,2.5,1c3.4,1.5,7.1,2.7,11,3.5
		c4,0.8,7.9,1.2,11.9,1.2c6.3,0,11.2-1.1,14.6-3.3c3.4-2.2,5.2-5.4,5.2-9.5c0-2.8-0.9-5.1-2.7-7c-1.8-1.9-5.2-3.6-10.1-5.2
		l-14.5-4.5c-7.3-2.3-12.7-5.7-16-10.2c-3.3-4.4-5-9.3-5-14.5c0-4.2,0.9-7.9,2.7-11.1c1.8-3.2,4.2-6,7.2-8.2c3-2.3,6.4-4,10.4-5.2
		S298.6,46,303,46c2.2,0,4.5,0.1,6.7,0.4c2.3,0.3,4.4,0.7,6.5,1.1c2,0.5,3.9,1,5.7,1.6c1.8,0.6,3.2,1.2,4.2,1.8
		c1.4,0.8,2.4,1.6,3,2.5c0.6,0.8,0.9,1.9,0.9,3.3v4.7c0,2.1-0.8,3.2-2.3,3.2c-0.8,0-2.1-0.4-3.8-1.2c-5.7-2.6-12.1-3.9-19.2-3.9
		c-5.7,0-10.2,0.9-13.3,2.8s-4.7,4.8-4.7,8.9c0,2.8,1,5.2,3,7.1c2,1.9,5.7,3.8,11,5.5l14.2,4.5c7.2,2.3,12.4,5.5,15.5,9.6
		c3.1,4.1,4.6,8.8,4.6,14c0,4.3-0.9,8.2-2.6,11.6c-1.8,3.4-4.2,6.4-7.3,8.8c-3.1,2.5-6.8,4.3-11.1,5.6
		C309.5,139.3,304.8,140,299.7,140L299.7,140z"/>
	<g id="g1863">
		<path id="path1859" class="st1" d="M318.6,188.6c-32.9,24.3-80.7,37.2-121.8,37.2c-57.6,0-109.5-21.3-148.7-56.7
			c-3.1-2.8-0.3-6.6,3.4-4.4c42.4,24.6,94.7,39.5,148.8,39.5c36.5,0,76.6-7.6,113.5-23.2C319.3,178.5,324,184.6,318.6,188.6z"/>
		<path id="path1861" class="st1" d="M332.3,173c-4.2-5.4-27.8-2.6-38.5-1.3c-3.2,0.4-3.7-2.4-0.8-4.5c18.8-13.2,49.7-9.4,53.3-5
			c3.6,4.5-1,35.4-18.6,50.2c-2.7,2.3-5.3,1.1-4.1-1.9C327.6,200.6,336.5,178.3,332.3,173z"/>
	</g>
</g>
</svg>
