<?xml version="1.0" encoding="UTF-8"?><svg id="a" xmlns="http://www.w3.org/2000/svg" viewBox="0 0 800 155.51"><path d="M439.15,128.92V.98h-34.32V133.08l-2.6,20.8h123.78c11.44,0,19.5-.3,24.18-.91,4.68-.61,7.02-1.26,7.02-1.95l-10.4-22.1h-107.66Z"/><rect x="565.56" y=".98" width="34.32" height="152.91"/><polygon points="789.86 16.32 800 .98 758.39 .98 707.94 58.45 705.08 58.45 654.89 .98 613.29 .98 680.9 77.43 623.17 138.28 613.29 153.89 654.89 153.89 705.08 95.9 707.94 95.9 758.39 153.89 800 153.89 732.39 77.43 789.86 16.32"/><path d="M266.87,.98l-80.38,152.91h42.15l25.37-53.32c46.48,6.75,53.04,52.41,99.9,53.15l.08,.17h40.05L318.1,.98h-51.23Zm17.02,80.71s-9.69-2.87-18.43-5.18l24.8-52.12h4.4l41.74,91.12c-16.99-12.17-32.56-27.62-52.51-33.82Z"/><path d="M146.14,113.64c-18.15-14.75-32.8-32.52-54.09-40.31C113.81,51.45,141.52,26.34,158.89,0h-42.13c-14.07,19.09-33.76,44.37-50.45,61.11-6.53,7.68-20.31,4.99-29.39,5.46V0H0C4.22,9.81,2.2,138.75,2.6,152.91H36.93v-60.85c16.97-.33,34.92-.25,48.37,9.1,26.57,17.43,41.34,52.55,74.67,54.35,6.51-.09,11.96-.32,15.86-2.6l10.66-21.06c-14.39,.58-28.11-8.26-40.34-18.2Z"/></svg>