<svg id="Layer_1" data-name="Layer 1" xmlns="http://www.w3.org/2000/svg" viewBox="0 0 400 300"><g id="Layer_1-2" data-name="Layer 1"><path d="M274.63,187.28a79.81,79.81,0,0,0-15.74-13.11A82.65,82.65,0,0,0,274.56,161a82,82,0,0,0-19.28-7,88.55,88.55,0,0,0,10.28-17.72,82.55,82.55,0,0,0-20.49.07,80.78,80.78,0,0,0,3.55-20.2,82.26,82.26,0,0,0-19.21,7,85.94,85.94,0,0,0-3.54-20.2,86.57,86.57,0,0,0-15.66,13.18,83.86,83.86,0,0,0-10.28-17.71,83.35,83.35,0,0,0-10.21,17.79,80.93,80.93,0,0,0-15.66-13.19h0a84.77,84.77,0,0,0-3.54,20.13,83.44,83.44,0,0,0-19.21-7,84.1,84.1,0,0,0,3.62,20.2,83.18,83.18,0,0,0-20.56,0,80.66,80.66,0,0,0,10.28,17.72,85.58,85.58,0,0,0-19.28,7,80.51,80.51,0,0,0,15.74,13.11,82.29,82.29,0,0,0-15.67,13.18,82,82,0,0,0,19.28,7,88.47,88.47,0,0,0-10.28,17.71,85.46,85.46,0,0,0,20.41,0,81.33,81.33,0,0,0-3.54,20.13,82.26,82.26,0,0,0,19.21-7,82.33,82.33,0,0,0,3.54,20.2,83.44,83.44,0,0,0,15.66-13.18A83.7,83.7,0,0,0,200,250a83.78,83.78,0,0,0,10.21-17.79,79.31,79.31,0,0,0,15.73,13.18,84.54,84.54,0,0,0,3.54-20.2,84.17,84.17,0,0,0,19.28,7,84.1,84.1,0,0,0-3.61-20.13,82.53,82.53,0,0,0,20.48,0,80.59,80.59,0,0,0-10.28-17.71A89.4,89.4,0,0,0,274.63,187.28Z" fill="#090"/><path d="M255.35,194.29A67.31,67.31,0,0,0,243,181.75a68,68,0,0,0,15.94-7.58A68.14,68.14,0,0,0,243,166.65,67.76,67.76,0,0,0,255.35,154a65,65,0,0,0-17.58-1.63,65.17,65.17,0,0,0,7.3-16.09A67.27,67.27,0,0,0,228,140.79a65.2,65.2,0,0,0,1.35-17.65,66.53,66.53,0,0,0-14.46,10.06,65.72,65.72,0,0,0-4.75-17,65.61,65.61,0,0,0-10.2,14.46,65.35,65.35,0,0,0-10.28-14.38,65,65,0,0,0-4.6,16.93,66,66,0,0,0-14.6-10,68.79,68.79,0,0,0,1.41,17.65,65.5,65.5,0,0,0-17.08-4.4,69.6,69.6,0,0,0,7.37,16,69.16,69.16,0,0,0-17.64,1.7,67.06,67.06,0,0,0,12.4,12.55A68.25,68.25,0,0,0,141,174.31a68,68,0,0,0,15.95,7.51,67.21,67.21,0,0,0-12.4,12.62,65.16,65.16,0,0,0,17.5,1.63,65.47,65.47,0,0,0-7.3,16.08,66.29,66.29,0,0,0,17.08-4.46,68,68,0,0,0-1.41,17.58,67.73,67.73,0,0,0,14.52-10,68.41,68.41,0,0,0,4.68,17,69.17,69.17,0,0,0,10.21-14.38,65.3,65.3,0,0,0,10.27,14.38,68.41,68.41,0,0,0,4.68-17,65.6,65.6,0,0,0,14.6,10,68,68,0,0,0-1.42-17.58A66.43,66.43,0,0,0,245,212.08a68.7,68.7,0,0,0-7.37-16A72.26,72.26,0,0,0,255.35,194.29Z" fill="#9c0"/><path id="_2" data-name="2" d="M229.41,174.24A52.68,52.68,0,0,0,243,166.65a53.06,53.06,0,0,0-15.31-2.48,49.35,49.35,0,0,0,10.14-11.76,49,49,0,0,0-15.24,3,50.13,50.13,0,0,0,5.53-14.53,51.21,51.21,0,0,0-13.33,8,52.17,52.17,0,0,0,.21-15.6,52,52,0,0,0-9.85,12.12,52.08,52.08,0,0,0-5.1-14.74,51.78,51.78,0,0,0-5,14.6,51.17,51.17,0,0,0-9.85-12.05,52.17,52.17,0,0,0,.21,15.6A49.51,49.51,0,0,0,172,140.86a49.83,49.83,0,0,0,5.52,14.53,51.31,51.31,0,0,0-15.23-2.91,54.3,54.3,0,0,0,10.13,11.77,50.57,50.57,0,0,0-15.38,2.48,49.38,49.38,0,0,0,13.61,7.51,52.64,52.64,0,0,0-13.61,7.58,55.19,55.19,0,0,0,15.31,2.48,51.29,51.29,0,0,0-10.21,11.77,51.7,51.7,0,0,0,15.24-2.91,50.8,50.8,0,0,0-5.53,14.53,51.48,51.48,0,0,0,13.33-8A51.64,51.64,0,0,0,185,215.2a51.26,51.26,0,0,0,9.85-12,51.44,51.44,0,0,0,5.1,14.67,51.44,51.44,0,0,0,5.1-14.67,50.77,50.77,0,0,0,9.85,12,51.61,51.61,0,0,0-.21-15.52,51.74,51.74,0,0,0,13.4,8,50,50,0,0,0-5.53-14.53,52.16,52.16,0,0,0,15.31,2.91,52.81,52.81,0,0,0-10.21-11.77A50.57,50.57,0,0,0,243,181.82,49.82,49.82,0,0,0,229.41,174.24Z" fill="#ff0"/><path id="_1" data-name="1" d="M214.88,176.79a41.81,41.81,0,0,0,14.46-2.62,42.12,42.12,0,0,0-14.46-2.63,41.53,41.53,0,0,0,12.69-7.44A42.36,42.36,0,0,0,213,166.58a41.37,41.37,0,0,0,9.43-11.34,42.74,42.74,0,0,0-12.76,7.3,42.52,42.52,0,0,0,5-13.82A43,43,0,0,0,205.1,160a42.92,42.92,0,0,0-.07-14.74,41.34,41.34,0,0,0-5,13.68,41.64,41.64,0,0,0-5.1-13.82,42.92,42.92,0,0,0-.07,14.74,42.75,42.75,0,0,0-9.5-11.27,41.38,41.38,0,0,0,5,13.82,43.18,43.18,0,0,0-12.76-7.3A42.43,42.43,0,0,0,187,166.44,42.25,42.25,0,0,0,172.5,164a43,43,0,0,0,12.69,7.44A42.27,42.27,0,0,0,170.66,174a42.11,42.11,0,0,0,14.46,2.62,42.72,42.72,0,0,0-12.76,7.44,42.36,42.36,0,0,0,14.53-2.48A41.52,41.52,0,0,0,177.46,193a41.49,41.49,0,0,0,12.76-7.3,42.32,42.32,0,0,0-5,13.89,42.42,42.42,0,0,0,9.5-11.2,42.51,42.51,0,0,0,.07,14.67,41.85,41.85,0,0,0,5.1-13.75,42.22,42.22,0,0,0,5.1,13.82,42.52,42.52,0,0,0,.07-14.67,41.21,41.21,0,0,0,9.5,11.2,41.94,41.94,0,0,0-5-13.82,42.66,42.66,0,0,0,12.83,7.3A42.58,42.58,0,0,0,213,181.75a42.36,42.36,0,0,0,14.53,2.48A43,43,0,0,0,214.88,176.79Z" fill="#fff"/></g><g id="Layer_2" data-name="Layer 2"><path d="M240.61,73c0,4.33-1.56,10.28-7.65,10.28-7.38,0-7.38-8.29-7.38-10s0-10.49,7.59-10.49C240,62.76,240.61,70.41,240.61,73ZM225.73,50h-5V81.75l-.15,4.75h4.75l.14-4a8.69,8.69,0,0,0,2.56,2.69,10.14,10.14,0,0,0,5.88,1.7,11.32,11.32,0,0,0,9.28-4.53c1.35-1.7,2.55-4.54,2.55-9.64,0-5.81-1.77-8.43-3.12-9.92a10.7,10.7,0,0,0-8.36-3.4c-6,0-7.94,3.33-8.64,4.53V50Z" fill="#090"/><path d="M254.29,74.1c0-2.34,0-10.71,7.86-10.71,5.82,0,7.23,5,7.23,9.71,0,1.92-.28,5.67-2.12,8.3a6.7,6.7,0,0,1-5.6,2.55C254.78,83.88,254.29,77.29,254.29,74.1Zm-4.68,22.53h4.89v-13c1.42,2.34,4.25,4,8.08,4,6.31,0,12.05-4.32,12.05-14.17s-5.39-13.68-11.06-13.68a10.3,10.3,0,0,0-9,4.82l-.07-4.4h-5c.07,2.56.14,3.19.14,4.33l-.07,32.17Z" fill="#090"/></g></svg>