<svg id="Layer_1" data-name="Layer 1" xmlns="http://www.w3.org/2000/svg" viewBox="0 0 400 300"><path d="M127.4,116.25h9.39v55.59H127.4ZM90.73,136.33a2,2,0,1,0-3.9,0V163.1a2,2,0,1,0,3.9,0v-8.81h9.39v8.08c0,6.56-5.16,10-11.37,10-5.94,0-11.31-3.28-11.31-10V137c0-6.66,5.37-10,11.31-10,6.1,0,11.37,3.43,11.37,10v7.21H90.73Zm21.07,1.23a2,2,0,1,1,3.9,0v34.32h9.39v-36.8c0-6-3.88-8.06-6.84-8.06a7.64,7.64,0,0,0-6.28,3.61h-.15V116.25h-9.4v55.59h9.38Zm40.57,24.74a2,2,0,1,1-3.9,0V127.55h-9.39v36.9c0,4.89,3.37,7.94,7,7.94a7.23,7.23,0,0,0,6.22-3.63h.22l.16,3.09h9.08V127.59h-9.39V162.3Zm21.08,9.55h-9.39V127.58h9.3l.1,3.09h.18a7.25,7.25,0,0,1,6.31-3.61,6.77,6.77,0,0,1,6.24,4.26h.14a7.71,7.71,0,0,1,6.72-4.26c3.59,0,7,2.44,7,8.47v36.35h-9.36V137.13a2,2,0,0,0-3.91-.19v34.94h-9.47V137.11a1.9,1.9,0,0,0-1.76-2h-.21a1.88,1.88,0,0,0-1.92,2v34.74ZM217.93,127c-3.14,0-5.4,2.62-6,3.63h-.19V116.25h-9.4v55.59h9.29l.11-3.09h.19a6.52,6.52,0,0,0,5.91,3.62c4,0,7.21-3.42,7.21-8.6V135.08c0-5-3.37-8.06-7.15-8.06Zm-2.28,35.28a2,2,0,1,1-3.91,0V137.12a2,2,0,0,1,3.92-.18,1.09,1.09,0,0,1,0,.18Zm21.14.81a2,2,0,1,0,3.91,0v-8.83h9.38v8.08c0,6.68-5.5,10-11.36,10s-11.33-3.3-11.33-10V137c0-6.66,5.37-10,11.32-10s11.38,3.41,11.38,10v14.35h-13.3Zm3.93-18.54v-8.24a1.9,1.9,0,0,0-1.94-2,1.87,1.87,0,0,0-2,1.76,2.61,2.61,0,0,0,0,.28v8.24Zm23.07-9.5a1.9,1.9,0,0,0-2,1.83v34.94h-9.46V127.58h9.18l.18,3.09h.21c.88-1.23,3.15-3.61,6.3-3.61,3.6,0,6.81,2.95,6.81,7.64v16.62h-9.37V136.86a1.86,1.86,0,0,0-2-1.74Zm47.94,28a1.89,1.89,0,0,0,1.76,2h.2a1.89,1.89,0,0,0,1.94-2v-8.83H325v8.08c0,6.68-5.51,10-11.37,10s-11.32-3.3-11.32-10V137c0-6.66,5.37-10,11.31-10,6.1,0,11.38,3.41,11.38,10v14.35h-13.3Zm3.9-18.54v-8.24a1.9,1.9,0,0,0-1.94-2,1.87,1.87,0,0,0-2,1.76,2.72,2.72,0,0,0,0,.28v8.24Zm23-9.5a1.9,1.9,0,0,0-2,2v34.74h-9.4V127.58h9.2l.19,3.08h.2c.89-1.23,3.16-3.6,6.3-3.6,3.61,0,6.82,2.95,6.82,7.64v16.62h-9.41V136.85a1.85,1.85,0,0,0-2-1.73Zm-48,24.45a1.91,1.91,0,0,1-1.95,2,1.88,1.88,0,0,1-2-2v-22.4a2,2,0,1,1,3.91,0Zm0,15.56a2,2,0,1,1-3.91,0V171.5h-9.37v2.44c0,6.93,4.77,10,11.31,10s11.37-3.08,11.37-10V127.55h-9.26l-.14,3.1h-.23a7.42,7.42,0,0,0-6.23-3.63c-3.38,0-6.86,2.61-6.86,7.41v26.46c0,5.07,3.25,8,6.89,8a7.36,7.36,0,0,0,6.08-3.26h.28v9.43ZM60.56,162.4a1.9,1.9,0,0,0,2,2,1.92,1.92,0,0,0,2-2v-5.25c0-4.19-.9-5.72-4-8.64l-5.71-5.4a13.18,13.18,0,0,1-4.72-10.36v-6.66c0-7.31,6.08-10,12.46-10s12.42,2.78,12.42,10v8.58H64.47v-8.32a2,2,0,1,0-3.9,0v4c0,3.46,1.08,5,4,7.73l5.78,5.57c3.59,3.53,4.84,6.71,4.84,11.08v7.44c0,7.74-6.23,10.49-12.62,10.49S50,169.88,50,162.52V151.86H60.57Z" fill="#036" fill-rule="evenodd"/></svg>