<svg id="Layer_1" data-name="Layer 1" xmlns="http://www.w3.org/2000/svg" viewBox="0 0 400 300"><g id="g4"><path id="path6" d="M110,60H290V240H110Z" fill="#014f9d"/><path id="path8" d="M153,105.78l-6.2,1.45a23.78,23.78,0,0,1,.46,5.28v26.76h6.15V122.69a7.91,7.91,0,0,1,4.78-2.13c1.73,0,2.35.86,2.35,3.16v15.55h5.92V123.09a10.93,10.93,0,0,0-.58-4.3c-.73-2-3.08-3.3-6-3.3a10.15,10.15,0,0,0-6.56,2.5c0-.28.1-1.23.1-1.95v-4.61a31.23,31.23,0,0,0-.41-5.65Zm-31.53,2.08v5.25h7.67v26.16h6.42V113.11h7.51l1-5.25Zm59.17,7.77a9.06,9.06,0,0,0-7.27,3.12c-2,2.26-2.9,5-2.9,9.19,0,7.26,4.29,12,10.94,12a13.33,13.33,0,0,0,8.72-3.2l-2.35-3.62a9,9,0,0,1-5.88,2.3c-3.11,0-4.87-2-4.87-5.6v-.18h13.37v-1.41c0-4.83-.94-7.94-3.06-10.11a9.53,9.53,0,0,0-6.7-2.45Zm.09,4.43a3,3,0,0,1,2.67,1.36,6,6,0,0,1,.72,3.48v.27h-7v-.09c0-3.2,1.32-5,3.62-5Zm44.69,27.31-6.19,1.44a24.65,24.65,0,0,1,.45,5.29v26.76h6.15V164.27a8,8,0,0,1,4.79-2.13c1.72,0,2.35.87,2.35,3.16v15.56h5.91V164.67a11,11,0,0,0-.58-4.3c-.72-2-3.07-3.3-6-3.3a10.13,10.13,0,0,0-6.55,2.49c0-.26.09-1.21.09-1.94V153a31.38,31.38,0,0,0-.41-5.65Zm-104.18,2.07,7.51,31.68h7.18l2.62-12.87c1-4.61,1.5-9,1.5-9a83.68,83.68,0,0,0,1.48,9.12l2.81,12.79h6.91l7.59-31.68h-6.64l-2.59,11.93c-.63,3.08-1.62,9.45-1.71,10.45,0,0-.77-5.38-1.35-8.32l-2.9-14.06h-6.92l-2.8,12.7c-.94,4.34-1.49,8.82-1.62,10a97.31,97.31,0,0,0-1.67-10.35l-2.71-12.38Zm90.32,1.27-6.15,1.54a39.34,39.34,0,0,0-.23,5.47h-2.3v4.14h2.3v12.57a8.52,8.52,0,0,0,.41,3.57c.72,2,3.17,3.39,6.24,3.39a12.58,12.58,0,0,0,4.92-1l-.77-3.61a8.07,8.07,0,0,1-2.17.45c-2.08,0-2.62-.77-2.62-3.71V161.86h3.89l1.54-4.14h-5.43a67.79,67.79,0,0,1,.37-7Zm59.11,6.46-5.42,1.46a20.81,20.81,0,0,1,.86,6.77v15.46h6.07V164.5a4.78,4.78,0,0,1,3.7-1.94,3.42,3.42,0,0,1,1.76.45l1.67-5.34a4.66,4.66,0,0,0-2.27-.5,5.73,5.73,0,0,0-2,.36,10.16,10.16,0,0,0-3.43,2.94,7.51,7.51,0,0,0-1-3.3Zm-78.9.05a15.48,15.48,0,0,0-6.33,1.36,21.81,21.81,0,0,0-3.75,1.89l2.58,4.35c2.48-1.68,4.74-2.63,6.68-2.63,2.22,0,2.71.86,2.71,3.43v.95c-.49,0-.9,0-1.36,0-7.36,0-11.11,2.52-11.11,7.95,0,4.61,2.8,7.23,8,7.23a8,8,0,0,0,4.64-1.26,13.85,13.85,0,0,0,1.4-1.23,6.41,6.41,0,0,0,3.25,2.8l3.21-3.7c-1.76-1.32-2.16-2.26-2.16-4.74v-.4l.13-7.78a11,11,0,0,0-.4-4.16c-.91-2.57-3.58-4-7.46-4Zm-23.09,0a9.07,9.07,0,0,0-7.27,3.12c-2,2.26-2.89,5-2.89,9.17,0,7.28,4.29,12,10.93,12a13.33,13.33,0,0,0,8.73-3.2l-2.36-3.63a9,9,0,0,1-5.87,2.3c-3.11,0-4.88-2-4.88-5.59v-.2h13.38v-1.39c0-4.82-.94-7.95-3.08-10.13a9.47,9.47,0,0,0-6.69-2.43Zm83.48,0a9.1,9.1,0,0,0-7.28,3.12c-2,2.26-2.88,5-2.88,9.17,0,7.28,4.29,12,10.93,12a13.29,13.29,0,0,0,8.72-3.2l-2.35-3.63a9,9,0,0,1-5.88,2.3c-3.11,0-4.87-2-4.87-5.59v-.2h13.37v-1.39c0-4.82-1-7.95-3.07-10.13a9.49,9.49,0,0,0-6.69-2.43Zm-83.38,4.42a3,3,0,0,1,2.67,1.37,6,6,0,0,1,.72,3.47v.27h-7v-.08c0-3.21,1.3-5,3.61-5Zm83.47,0a2.94,2.94,0,0,1,2.67,1.37,6,6,0,0,1,.72,3.47v.27h-7v-.08c0-3.21,1.32-5,3.62-5Zm-58.94,9.09h.27l-.1,5a4.38,4.38,0,0,1-3.15,1.58,2.75,2.75,0,0,1-2.68-3c0-2.75,1.45-3.52,5.66-3.52Zm-38.94,18.92-6.21,1.45a24.45,24.45,0,0,1,.46,5.29v26.75h6.14V206.56a8,8,0,0,1,4.8-2.13c1.71,0,2.34.86,2.34,3.16v15.55h5.92V207a10.72,10.72,0,0,0-.59-4.3c-.73-2-3.07-3.3-6-3.3a10.08,10.08,0,0,0-6.55,2.49c0-.27.09-1.23.09-2v-4.6a32.45,32.45,0,0,0-.4-5.66Zm117.61,0-6.19,1.4a59.14,59.14,0,0,1,.31,7v17.27c0,3.3.09,4,.55,5.19.73,1.95,2.8,3.16,5.38,3.16a10,10,0,0,0,3.61-.63l-1-3.61a2.16,2.16,0,0,1-.67.08,1.43,1.43,0,0,1-1.23-.62c-.35-.64-.4-1.18-.4-5.16v-18a34,34,0,0,0-.32-6Zm-135.42,1.36a13.52,13.52,0,0,0-12,7.27,20.3,20.3,0,0,0-2.11,9.76c0,4.62,1.26,8.41,3.8,11.25s5.92,4.34,10.26,4.34a12.85,12.85,0,0,0,8.72-2.93l-2.89-4a8.19,8.19,0,0,1-5.38,2,6.53,6.53,0,0,1-6.06-3.53c-1-1.71-1.31-4.11-1.31-8.4,0-3.65.55-6.28,1.76-8.09a6.5,6.5,0,0,1,5.33-2.71,8.32,8.32,0,0,1,5,1.76l2.84-4.28a12.84,12.84,0,0,0-7.95-2.49Zm63.82,8.35L195,201a16.81,16.81,0,0,1,.8,5.43v16.76h6.06V206.78a7.18,7.18,0,0,1,4.2-2.07c1.58,0,2,.76,2,3.38v15h6v-16.9a9.13,9.13,0,0,0-.46-3.29c-.72-2-3-3.35-5.56-3.35a9.52,9.52,0,0,0-4.15,1,24.74,24.74,0,0,0-2.66,1.72,5.89,5.89,0,0,0-.87-2.9Zm23.6,0L218.58,201a16.8,16.8,0,0,1,.81,5.43v16.76h6.06V206.78a7.1,7.1,0,0,1,4.2-2.07c1.58,0,2,.76,2,3.38v15h6v-16.9a8.92,8.92,0,0,0-.46-3.29c-.72-2-3-3.35-5.56-3.35a9.59,9.59,0,0,0-4.15,1,28.28,28.28,0,0,0-2.67,1.72,6.06,6.06,0,0,0-.84-2.9Zm-41.48.09a15.5,15.5,0,0,0-6.33,1.37,21.58,21.58,0,0,0-3.76,1.89L175,207.1c2.48-1.68,4.73-2.63,6.68-2.63,2.22,0,2.72.86,2.72,3.44v.94c-.5,0-.91,0-1.36,0-7.36,0-11.12,2.53-11.12,8,0,4.6,2.8,7.23,8,7.23a7.94,7.94,0,0,0,4.66-1.27,10.17,10.17,0,0,0,1.4-1.22,6.51,6.51,0,0,0,3.26,2.81l3.21-3.72c-1.77-1.31-2.17-2.25-2.17-4.74v-.4l.13-7.78a10.46,10.46,0,0,0-.41-4.15c-.9-2.59-3.57-4-7.45-4Zm69.52,0a9.06,9.06,0,0,0-7.28,3.12c-2,2.25-2.88,5-2.88,9.18,0,7.26,4.28,12,10.93,12a13.28,13.28,0,0,0,8.72-3.21L259.15,217a9.07,9.07,0,0,1-5.87,2.31c-3.12,0-4.89-2-4.89-5.6v-.19h13.38v-1.4c0-4.83-.95-7.95-3.07-10.11a9.43,9.43,0,0,0-6.69-2.45Zm.08,4.42a3,3,0,0,1,2.68,1.36,6,6,0,0,1,.72,3.48V209h-7V209c0-3.21,1.32-5,3.61-5ZM184,213h.28l-.09,5a4.36,4.36,0,0,1-3.16,1.59,2.73,2.73,0,0,1-2.66-3c0-2.75,1.43-3.53,5.63-3.53Z" fill="#fff" fill-rule="evenodd"/></g></svg>