<svg id="Layer_1" data-name="Layer 1" xmlns="http://www.w3.org/2000/svg" viewBox="0 0 400 300"><g id="layer1"><g id="g12376"><path id="path12378" d="M231.92,135.59V90.07H168V144a24.36,24.36,0,0,1,13.52-5.77c11.2-.74,15.83,4.73,26.45,6.53a25.9,25.9,0,0,0,23.46-8.07,1.69,1.69,0,0,0,.46-.89l0-.17" fill="#3d90c3"/></g><g id="g12380"><path id="path12382" d="M174.07,134.17c2.15-1.13,4.05-1.7,8.56-2,10.9-.63,15,3.42,25.29,5,8.09,1.25,12.66-.55,16.11-2.76a12.67,12.67,0,0,0,2.31-1.67c.85-.71,1.06-1.2.93-1.69,0-.16-.2-.16-.5.05l-.71.47c-8.12,5.66-18.75,2.33-28-.58-8.65-2.71-19.26-1.52-24.07,1.9a3.7,3.7,0,0,0-1,1c-.13.2-.44,1-.06.85s.8-.45,1.15-.61m12.62-14.09L177.5,108v12.07h-4.12v-19h3.85l8.89,11.68V101.1h4.13v19h-3.56" fill="#fff"/></g><g id="g12384"><path id="path12386" d="M202.65,120.41a9.57,9.57,0,0,1-9.73-9.76v-.06a9.64,9.64,0,0,1,9.89-9.82,9.84,9.84,0,0,1,7.49,2.93l-2.66,3.07a7,7,0,0,0-4.86-2.15,5.62,5.62,0,0,0-5.49,5.91v.06c0,3.25,2.24,6,5.49,6a6.84,6.84,0,0,0,5-2.23l2.66,2.69a9.69,9.69,0,0,1-7.78,3.39m10.54-.33v-19h4.18v15.19h9.47v3.8H213.19" fill="#fff"/></g><g id="g12388"><path id="path12390" d="M70.1,185.12,56.22,166.9v18.22H50V156.46h5.81l13.43,17.65V156.46h6.22v28.66H70.1M109,170.79a8.7,8.7,0,0,0-8.67-9c-5.07,0-8.6,4-8.6,8.93v.08a8.7,8.7,0,0,0,8.68,9c5.07,0,8.59-4,8.59-8.92Zm-8.67,14.82c-8.85,0-15.19-6.59-15.19-14.74v-.08c0-8.15,6.43-14.82,15.27-14.82s15.18,6.59,15.18,14.74v.08c0,8.15-6.42,14.82-15.26,14.82m41.7-19.36c0-2.7-1.88-4.09-4.95-4.09h-6.27v8.23h6.39c3.07,0,4.83-1.64,4.83-4.06Zm-.12,18.88L135.8,176h-5v9.18h-6.29V156.47h13.09c6.76,0,10.81,3.56,10.81,9.45V166a8.89,8.89,0,0,1-6.14,8.88l7,10.24h-7.37m47.16.2h-5.48l-6.47-18.76-6.47,18.76H165.2l-9.78-28.87h6.75l5.94,19.41,6.42-19.49h5.4l6.43,19.49,5.93-19.41h6.59l-9.78,28.87m17.34-.21V156.46h21.62v5.61H212.7v5.81h13.52v5.61H212.7v6h15.56v5.61H206.44m44.11.5c-8.93,0-15.06-6.27-15.06-14.74v-.08a14.7,14.7,0,0,1,15-14.83c5.16,0,8.27,1.4,11.26,3.93l-4,4.79a10.59,10.59,0,0,0-7.5-2.9c-4.58,0-8.23,4.05-8.23,8.92v.09c0,5.24,3.61,9.08,8.68,9.08a10.15,10.15,0,0,0,5.94-1.71v-4.1h-6.34v-5.44h12.44v12.44a18.57,18.57,0,0,1-12.24,4.55m22.08-.5h6.3V156.46h-6.3Zm29.16-21.28L298,173.13h7.61Zm8.67,21.29-3.23-6.43h-11.5l-2.62,6.43h-6.43L299,156.26h5.81l12.28,28.87h-6.59m34.18,0L330.76,166.9v18.22h-6.22V156.46h5.81l13.43,17.65V156.46H350v28.66h-5.36M130.89,209.93a7.23,7.23,0,0,1-7.35-7.37v0a7.28,7.28,0,0,1,7.47-7.41,7.38,7.38,0,0,1,5.65,2.21l-2,2.32A5.24,5.24,0,0,0,131,198a4.25,4.25,0,0,0-4.15,4.47v0A4.26,4.26,0,0,0,131,207a5.14,5.14,0,0,0,3.77-1.68l2,2a7.32,7.32,0,0,1-5.88,2.56" fill="#231f20"/></g><path id="path12394" d="M150.08,200.25c0-1.36-.93-2.05-2.48-2.05h-3.12v4.12h3.19c1.54,0,2.41-.82,2.41-2Zm-.06,9.43L147,205.1h-2.47v4.58h-3.16V195.36h6.55c3.39,0,5.41,1.77,5.41,4.72v0a4.46,4.46,0,0,1-3.07,4.45l3.5,5.11H150m14.13.23c-3.85,0-6.2-2.15-6.2-6.37v-8.19h3.15v8.11c0,2.34,1.17,3.54,3.09,3.54s3.09-1.16,3.09-3.44v-8.21h3.15v8.09c0,4.34-2.43,6.47-6.28,6.47m11.69-.22H179V195.35h-3.16Zm13.87.2a9.14,9.14,0,0,1-6.08-2.29l1.86-2.23a6.64,6.64,0,0,0,4.28,1.74c1.3,0,2.07-.51,2.07-1.35v0c0-.8-.48-1.21-2.88-1.82-2.89-.74-4.75-1.54-4.75-4.39v0c0-2.6,2.09-4.31,5-4.31a8.33,8.33,0,0,1,5.32,1.81l-1.64,2.38a6.73,6.73,0,0,0-3.72-1.41c-1.22,0-1.85.56-1.85,1.25v0c0,.94.61,1.25,3.09,1.89,2.91.75,4.55,1.8,4.55,4.3v0c0,2.85-2.18,4.45-5.27,4.45m10-.21V195.36h10.82v2.81h-7.69v2.9h6.76v2.81h-6.76v3h7.79v2.8H199.76m24,0V195.36h3.15v11.47H234v2.86h-10.3m14.86,0h3.15V195.36h-3.15Zm18.83,0-6.94-9.11v9.11h-3.11V195.36h2.91l6.71,8.83v-8.83h3.11v14.33h-2.68m8.16,0V195.36h10.82v2.81h-7.68v2.9h6.76v2.81h-6.76v3h7.78v2.8H265.57" fill="#231f20"/></g></svg>