<svg id="Layer_1" data-name="Layer 1" xmlns="http://www.w3.org/2000/svg" viewBox="0 0 400 300"><path d="M281,129.88H264.54a2.3,2.3,0,0,0-2.27,1.94l-6.67,42.3A1.37,1.37,0,0,0,257,175.7h8.46a1.6,1.6,0,0,0,1.59-1.35l1.89-12a2.3,2.3,0,0,1,2.26-1.94h5.22c10.87,0,17.14-5.25,18.78-15.68.74-4.55,0-8.14-2.1-10.64C290.71,131.34,286.55,129.88,281,129.88Zm1.91,15.45c-.91,5.92-5.43,5.92-9.8,5.92h-2.49l1.75-11.05a1.37,1.37,0,0,1,1.35-1.16h1.14c3,0,5.79,0,7.24,1.69C283,141.75,283.26,143.25,282.94,145.33Z" fill="#009cde"/><path d="M163.38,129.88h-16.5a2.3,2.3,0,0,0-2.26,1.94L138,174.12a1.37,1.37,0,0,0,1.36,1.58h7.87a2.3,2.3,0,0,0,2.27-1.93l1.8-11.41a2.28,2.28,0,0,1,2.26-1.94h5.22c10.87,0,17.14-5.25,18.78-15.68.73-4.55,0-8.14-2.11-10.64C173.06,131.34,168.9,129.88,163.38,129.88Zm1.9,15.45c-.9,5.92-5.42,5.92-9.79,5.92H153l1.74-11.05A1.38,1.38,0,0,1,156.1,139h1.14c3,0,5.79,0,7.24,1.69C165.35,141.75,165.61,143.25,165.28,145.33Z" fill="#003087"/><path d="M212.68,145.14h-7.9a1.37,1.37,0,0,0-1.35,1.16l-.35,2.21-.55-.8c-1.71-2.48-5.53-3.31-9.33-3.31-8.73,0-16.18,6.61-17.64,15.89a14.9,14.9,0,0,0,2.95,12.13c2.41,2.84,5.85,4,9.94,4a15.12,15.12,0,0,0,10.94-4.52l-.35,2.19a1.37,1.37,0,0,0,1.35,1.59h7.12a2.28,2.28,0,0,0,2.26-1.93l4.27-27A1.38,1.38,0,0,0,212.68,145.14Zm-11,15.38a8.82,8.82,0,0,1-8.92,7.54,6.12,6.12,0,0,1-6.54-7.68,8.84,8.84,0,0,1,8.85-7.6,6.67,6.67,0,0,1,5.27,2.15A6.83,6.83,0,0,1,201.68,160.52Z" fill="#003087"/><path d="M330.34,145.14h-7.9a1.37,1.37,0,0,0-1.36,1.16l-.35,2.21-.55-.8c-1.71-2.48-5.52-3.31-9.33-3.31-8.73,0-16.18,6.61-17.63,15.89a14.86,14.86,0,0,0,2.94,12.13c2.41,2.84,5.85,4,9.95,4A15.11,15.11,0,0,0,317,171.92l-.35,2.19a1.37,1.37,0,0,0,1.36,1.59h7.11a2.28,2.28,0,0,0,2.26-1.93l4.27-27A1.37,1.37,0,0,0,330.34,145.14Zm-11,15.38a8.81,8.81,0,0,1-8.92,7.54,6.12,6.12,0,0,1-6.54-7.68,8.84,8.84,0,0,1,8.85-7.6,6.64,6.64,0,0,1,5.27,2.15A6.83,6.83,0,0,1,319.33,160.52Z" fill="#009cde"/><path d="M254.75,145.14h-7.94a2.27,2.27,0,0,0-1.89,1L234,162.28l-4.65-15.5a2.29,2.29,0,0,0-2.19-1.64h-7.81A1.38,1.38,0,0,0,218,147l8.74,25.66-8.22,11.6a1.38,1.38,0,0,0,1.12,2.17h7.94a2.28,2.28,0,0,0,1.88-1l26.4-38.11A1.38,1.38,0,0,0,254.75,145.14Z" fill="#003087"/><path d="M339.65,131l-6.77,43.08a1.37,1.37,0,0,0,1.35,1.58H341a2.3,2.3,0,0,0,2.27-1.93l6.67-42.3a1.38,1.38,0,0,0-1.36-1.59H341A1.37,1.37,0,0,0,339.65,131Z" fill="#009cde"/><path d="M105.59,132.1c.89-5.66,0-9.52-3.07-13-3.37-3.84-9.46-5.48-17.26-5.48H62.64a3.24,3.24,0,0,0-3.2,2.73L50,176.07a2,2,0,0,0,1.92,2.25h14l-1,6.11a1.7,1.7,0,0,0,1.68,2H78.39a2.83,2.83,0,0,0,2.8-2.39l.12-.59,2.21-14.07.15-.77a2.82,2.82,0,0,1,2.79-2.39h1.76c11.41,0,20.34-4.64,23-18,1.09-5.6.52-10.27-2.36-13.56a11.29,11.29,0,0,0-3.22-2.48h0" fill="#009cde"/><path d="M105.59,132.1c.89-5.66,0-9.52-3.07-13-3.37-3.84-9.46-5.48-17.26-5.48H62.64a3.24,3.24,0,0,0-3.2,2.73L50,176.07a2,2,0,0,0,1.92,2.25h14l3.51-22.25-.11.7A3.22,3.22,0,0,1,72.49,154h6.64c13,0,23.25-5.3,26.23-20.62.09-.45.16-.89.23-1.32" fill="#012169"/><path d="M73.19,132.17A2.83,2.83,0,0,1,76,129.78H93.72a36.87,36.87,0,0,1,5.85.43c.51.08,1,.18,1.49.28s1,.23,1.41.36l.67.21a16.55,16.55,0,0,1,2.45,1c.89-5.66,0-9.52-3.07-13-3.37-3.84-9.46-5.48-17.26-5.48H62.64a3.24,3.24,0,0,0-3.2,2.73L50,176.07a2,2,0,0,0,1.92,2.25h14l3.51-22.25Z" fill="#003087"/></svg>