<svg id="Layer_1" data-name="Layer 1" xmlns="http://www.w3.org/2000/svg" viewBox="0 0 400 300"><g id="layer1"><path id="path3392" d="M327,147.41l-2.62-1.4c-3.09-1.65-5.49-2.95-5.49-5.73,0-3.11,2.95-4.45,6.26-4.45a23,23,0,0,1,8.54,1.74V131a30,30,0,0,0-9.24-1.14c-8.62,0-13.25,5.08-13.25,10.89s4.7,8.76,8.61,10.85l2.82,1.5c3.24,1.72,5.63,3.08,5.63,6.08,0,3.41-3.3,5-6.59,5a19.07,19.07,0,0,1-9.6-2.37l-1.9,5.83a25.32,25.32,0,0,0,11.63,2.61c8.08,0,14.11-4.72,14.11-11.72,0-5-3.37-8.12-8.94-11.07m-39.1,1.09h-4.68V136.16h4.68c6.2,0,7.28,4,7.28,6.11,0,2.46-1.24,6.23-7.28,6.23m7.25,4.88v-.24a11.28,11.28,0,0,0,7.21-10.81c0-5.27-3.4-12-14.29-12H276.17v39.43h7V154.37h2.51c3.64,0,4.55,1.32,6.82,5.39l5.62,10h8.08l-6.52-11.51c-2.15-3.84-3.8-4.62-4.57-4.84M132.33,148.5h-4.69V136.16h4.69c6.2,0,7.27,4,7.27,6.11,0,2.46-1.24,6.23-7.27,6.23m7.26,4.88v-.24a11.3,11.3,0,0,0,7.21-10.81c0-5.27-3.4-12-14.29-12H120.63v39.43h7V154.37h2.52c3.62,0,4.51,1.32,6.81,5.39l5.63,10h8.07l-6.52-11.51c-2.13-3.84-3.76-4.62-4.56-4.84m77.65.75h6V163a12.46,12.46,0,0,1-5.73,1.2c-8.33,0-12.47-5.56-12.47-14.07s4.2-14.28,12.72-14.28a17,17,0,0,1,8.91,2.69l2-6a25.36,25.36,0,0,0-11.41-2.66c-12,0-19.7,8.81-19.7,20.79,0,11.28,6.77,19.64,19.45,19.64a28.94,28.94,0,0,0,13.35-3.17V148.45H219.08l-1.87,5.69Zm31.65-1.58H264v-5.87H248.89V136.15h15.18l1.91-5.86H241.73v39.44h24.33v-5.87H248.89ZM172.2,164.16c-7.16,0-10.89-5.21-10.89-14.13s3.73-14.18,10.91-14.18c7.33,0,10.86,5.45,10.86,14.19,0,8.92-3.76,14.13-10.88,14.13m0-34.38c-11.46,0-18.41,8.27-18.41,20.25s7,20.18,18.41,20.18,18.39-8.08,18.39-20.18c0-11.94-6.93-20.21-18.37-20.21M349,165.34l-1.29,3.37h0l-1.3-3.37h-.95v4.39h.59v-3.67h0l1.44,3.67h.4l1.45-3.67h0v3.67H350v-4.39Zm-7.7.58h1.41v3.84h.61v-3.84h1.39v-.54h-3.42ZM92.17,148.2a16.51,16.51,0,0,0,3-9.61c0-7.65-7.16-14.77-19-14.77a25.93,25.93,0,0,0-17,6.26,25.73,25.73,0,0,1,8-1.26c9.1,0,19.78,7.18,24.94,19.38m-32,3.62a16.61,16.61,0,0,0-3,9.59c0,7.65,7.16,14.77,19,14.77a26,26,0,0,0,17-6.25,25.81,25.81,0,0,1-8,1.25c-9.11,0-19.78-7.18-24.95-19.37M74.38,134a16.58,16.58,0,0,0-9.61-3C57.14,131,50,138.18,50,150a26,26,0,0,0,6.26,17A25.72,25.72,0,0,1,55,159c0-9.09,7.17-19.77,19.37-24.94m23,7c0,9.1-7.18,19.77-19.38,24.94a16.51,16.51,0,0,0,9.6,3c7.65,0,14.78-7.16,14.78-19a26,26,0,0,0-6.26-17,26.13,26.13,0,0,1,1.26,8" fill="#ee2722"/></g></svg>