<svg id="Layer_1" data-name="Layer 1" xmlns="http://www.w3.org/2000/svg" viewBox="0 0 400 300"><path d="M127.09,129.58l-3.89-2.14v-6.61a40.82,40.82,0,0,1,9.94,5.26c0,5.89.52,11.85-.58,17.76-1.25,6.66-5.25,11.62-10.37,15.75-8.76,7-18.45,12.86-27.71,19.25-2.53,1.77-5.15,3.5-7.64,5.46,4.09-.64,7.51-3,11.53-4.5,2.7,3.35,8.57,4.43,7.51,10.76H77.37a5.33,5.33,0,0,1,1.86-6.09c2.54-2.08,5.06-4.19,7.6-6.28-.33-1.08-1.29-1.37-2-1.86q-11.13-7.69-22.13-15.58c-8.36-6-12.76-13.81-12.69-24.11,0-3.5,0-7,0-10.57a43.56,43.56,0,0,1,9.91-5.25v6.61l-3.7,2.1c-.09,5.2-.36,10.41.66,15.54,1,5,3.93,8.93,7.59,12.3,6.33,5.81,13.3,10.83,20.26,15.87a2.83,2.83,0,0,0,.75.23c.22-.94-.53-1.23-1-1.62-3.37-3-6.8-6-10.14-9-7.71-7-12-15.46-11.66-26.09.22-7.32,0-14.66,0-22.3a83.87,83.87,0,0,1,57.56.11,3.54,3.54,0,0,1,.22.85q-.06,11.79-.06,23.59c0,9.57-4.3,17.2-11.15,23.53-3.93,3.64-8.08,7.06-12.14,10.57-.62.54-1.23,1.09-1.86,1.65.57.53.84.1,1.09-.08,6.9-5.1,13.79-10.22,20.26-15.87,4.74-4.12,8.94-8.64,10-15.21A73.93,73.93,0,0,0,127.09,129.58Zm-50.82,30c7.38-.29,14,.34,20.71-.38,6.3-.69,10.41-5.09,10.44-11.26,0-6.5,0-13,0-19.51a10.52,10.52,0,0,0-10-10.58c-2.44-.17-4.9-.28-7.35-.31-4.41,0-8.81,0-13.77,0l3.45,3.8v34.33ZM86,173.78c0-.21,0-.1,0,0C86,173.68,86,173.58,86,173.78Z" fill="#ea1920"/><path d="M269.9,130.51c6.93-.93,13.79-2.25,20.69.63a24.72,24.72,0,0,1,13-1.37c4.81.81,7.87,3.75,7.95,8.63.18,10.68.05,21.36.05,32.17h-8.94c-.55-.75-.29-1.63-.29-2.44V143.59c0-5.47-2.13-6.87-7.44-4.76v31.7h-8.25v-27c0-5.36-1.76-6.69-7.45-5.39v32.47H269.9Z" fill="#ea1920"/><path d="M187.39,170.57h-9.28V130.51c.22-.34.63-.31,1-.31,5.61,0,11.21-.06,16.81,0s8.13,2.85,8.25,8.29c0,1.84,0,3.67,0,5.51,0,5.18-.13,5.51-3.75,9,3.85,1.1,4.68,4,4.63,7.45s0,6.68,0,10.14h-9.61V159.81c0-2.55-.67-3.22-3.28-3.28-1.3,0-2.6,0-3.91,0a3.68,3.68,0,0,0-.85.28Zm.06-21.37h3.86c2.46-.09,3.26-.86,3.34-3.37.07-2.05,0-4.11,0-6.17a2.69,2.69,0,0,0-2.46-2.91H192a11.54,11.54,0,0,0-4.57.19Z" fill="#ea1920"/><path d="M246,156.62v13.9h-9.27V130.18c6.46.27,12.9-.67,19.25.57a9.35,9.35,0,0,1,8,9.37c.14,10.07,0,20.14,0,30.4h-9.42v-13.9Zm8.58-7.5c0-1.87,0-3.47,0-5.07.21-7.2-.49-7.7-8.18-7.3-.06,0-.11.1-.24.22v12.17Z" fill="#ea1920"/><path d="M143.39,130.27c6.8,0,12.87-.24,18.9.07,6.75.34,10.5,4.71,10.5,11.43V159c0,6.51-3.29,10.74-9.75,11.49-6.28.75-12.64.19-19.67.25,3.55-2.89,2.83-6.36,2.84-9.65V138.59C146.28,135.69,146.58,132.74,143.39,130.27Zm12.45,6.86v26.5h2.88c3.36-.07,4.77-1.45,4.78-4.76v-17.2c0-3-1.41-4.42-4.27-4.5-1.07-.08-2.13,0-3.39,0Z" fill="#ea1920"/><path d="M231.6,130.27v7.25h-12c-1.34,3-.44,6.06-.71,9.17h11.18V154H219v8.87c4.13.9,8.33.08,12.55.52a41.19,41.19,0,0,1,.05,7.11c-5.1,0-10.08.3-15-.09-4.27-.33-6.88-3.48-6.94-7.79q-.18-12.16,0-24.31c.07-4.7,3-7.78,7.75-8S226.75,130.27,231.6,130.27Z" fill="#ea1920"/><path d="M339.11,130.27H350v40.27h-9.29V139c-1.32-.79-2.62-.15-4-.63A72.16,72.16,0,0,1,339.11,130.27Z" fill="#ea1920"/><path d="M331.71,170.61h-9.13V139c-1.46-.75-2.84-.06-4.18-.67.81-2.61,1.63-5.25,2.5-8h10.81Z" fill="#ea1920"/><path d="M89.66,124.91H93c3.21.12,4.32,1.28,4.32,4.5v17.16c0,4.27-1,5.22-5.25,5.22H89.66Z" fill="#ea1920"/></svg>