<svg id="Layer_1" data-name="Layer 1" xmlns="http://www.w3.org/2000/svg" viewBox="0 0 400 300"><path id="R_mark" data-name="R mark" d="M259.37,225.63a5.26,5.26,0,1,1-5.34,5.24A5.25,5.25,0,0,1,259.37,225.63Zm0,.85a4.41,4.41,0,1,0,4.29,4.39A4.28,4.28,0,0,0,259.37,226.48Zm-1.12,7.44h-.93v-6.06h2.32c1.44,0,2.15.53,2.15,1.72a1.58,1.58,0,0,1-1.58,1.67l1.72,2.67h-1l-1.61-2.64h-1.05v2.64Zm0-3.4h1.11c1.13,0,1.5-.33,1.5-1s-.28-.91-1.35-.91h-1.26v1.9Z" fill="#010101"/><path id="green_b" data-name="green b" d="M110,150a90,90,0,1,1,90,90,90,90,0,0,1-90-90" fill="#067655"/><path id="white_b" data-name="white b" d="M112.65,150A87.35,87.35,0,1,1,200,237.35,87.34,87.34,0,0,1,112.65,150" fill="#fff"/><path id="mid" d="M115.5,150A84.5,84.5,0,1,1,200,234.5,84.5,84.5,0,0,1,115.5,150" fill="#067655"/><path id="STARBUCKS" d="M223.87,75.67c-1.5,4.33-3.47,8.61-4.54,13.18a2.47,2.47,0,0,0,1.87,2.64,2.72,2.72,0,0,0,2.85,0c2.89-4.06,4.26-9.11,6.08-13.67,2.3.81,4.09,2,6.33,2.8-2.38,5-3.85,11-7.14,15.15-2.38,2.08-6.14,1.57-9,.87-3.25-1.16-6.8-3.25-7.78-6.91-.77-2.5,2.7-11.1,4.6-16.24l6.73,2.18M184,85.82a8.87,8.87,0,0,0,1.42-3.41c0-1.86-.22-3.91-1.53-5.37-5.2-5.36-13.61.4-19.43,2.74,2.3,5.8,5.41,13,7.94,19.2l6.18-3.36-2.27-5.2a8.15,8.15,0,0,1,2.31-1c2,1.39,3.36,2.72,5.71,4.6l6.58-1.45.27-.09C188.92,90.38,185.7,88,184,85.82Zm-6.18-1.48-3.62,1.53c-.9-1.66-1.28-2.8-1.91-4.15,1.69-.62,4.57-3.14,5.93-.33C178.55,82.3,178.57,83.79,177.79,84.34Zm32.77,1c-.22-1.9-1.65-3-3.08-4.06a7,7,0,0,0,2.31-3.51A5.77,5.77,0,0,0,208,72.94c-5-2.45-11.55-1-17.15-1l0,.42.87,19.31.06.77,8.5-.22c3.22-.11,6.77.55,9-2A5.91,5.91,0,0,0,210.56,85.34ZM198,75.8c1.24.18,3.4-.45,4.32.54a2.35,2.35,0,0,1,.1,2.31c-.94,1.1-2.7,1.06-4.16.87C198.37,78.28,197.92,77.07,198,75.8Zm4,11.74a23.77,23.77,0,0,1-3.29.1,20.75,20.75,0,0,1-.19-4.17c1.68.22,4.21-.69,5,1.21A2.26,2.26,0,0,1,202,87.54Zm50.91,4.28a14.88,14.88,0,0,1,2.63,5.37c-1.53.83-2.7,1.76-4.17,2.42a7.62,7.62,0,0,0-3.84-5.71,5,5,0,0,0-3.84-.33,7.37,7.37,0,0,0-4.17,4.17,5.35,5.35,0,0,0,1.1,4.94,7.45,7.45,0,0,0,5.48,2.52,44.93,44.93,0,0,1-2.41,3.84,12.58,12.58,0,0,1-9-5.81,11,11,0,0,1-.32-10.1,10.79,10.79,0,0,1,8.22-5.81,12.52,12.52,0,0,1,10.32,4.5m-99.52-4.06-.62-.39L145.05,94l8.45,20.08.38.84,4.78-5.34c-.59-1.46-1.29-3.07-1.84-4.39l5.35-4.5c1.31.61,2.36,1.25,4.17,2.2l4.82-3.18.64-.42C165.67,95.81,159.44,91.45,153.39,87.76Zm1.21,12.83c-.88-2.08-1.72-4-2.64-6.25,2.1,1.11,3.95,2.41,5.93,3.62A30.57,30.57,0,0,1,154.6,100.59Zm109.28,4.17c-1.68,1.68-3.91,3.11-5.71,4.72,2.86.62,6.08.51,9,1,1.32,1.9,2,3.73,3.3,6l-10.76-.76c-2.37,3.73-4.53,7.53-6.58,11.41-1.28-1.87-2.27-4.28-3.51-6.36,1.39-2.82,3.2-5.8,4.59-8.62-2.39,1.48-4.5,3.4-6.93,4.94l-3.8-5.11c5.12-4.38,10.64-8.3,16-12.28l.44-.16,3.95,5.2m-120.73-1.35c-1,2-2.25,3.38-3.15,5.3l12.51,8.23a26.7,26.7,0,0,1-3.29,5.49l-12.84-8a53,53,0,0,0-3.13,5c-1.68-1.12-2.87-1.85-4.22-2.82,3.18-5.3,6.2-10.28,9.71-15.78l4.41,2.58m-11.82,20c-2.27,1.76-3.87,4.32-3.4,7.25.26.44.51,1.09,1.1,1.2,1.83,0,2.45-2,3.29-3.18,1-2.19,2.89-4.57,5.49-4.82a6.25,6.25,0,0,1,5.6,2.19c2.23,2.67,1.82,7,.76,10.1a14.09,14.09,0,0,1-4.72,6.14l-3.95-2.41c2.16-1.5,4.43-4,4.72-6.7,0-1-.21-2.3-1.43-2.41-2.52.73-2.77,3.76-4.49,5.48a5.83,5.83,0,0,1-5.05,2.09,6.49,6.49,0,0,1-4.72-2.86c-2.16-3.29-1.1-8.12.22-10.64a13.9,13.9,0,0,1,3.07-4,25.68,25.68,0,0,1,3.51,2.52m143.31,2.86a14.2,14.2,0,0,1,1.64,10.86l-4.06-.22c.55-2.45.95-5.52-.77-7.57a1.84,1.84,0,0,0-2.08-.66c-2.23,2.49.19,6.08-1.2,8.89a6.89,6.89,0,0,1-3.08,3.4,6.64,6.64,0,0,1-6.91-1.31c-3.44-3.59-5.05-9.15-2.85-13.83h4.28a10.37,10.37,0,0,0-.55,6.59c.36.91.8,2.08,1.87,2.41,3.51.13,1.13-4.9,2-7.24A5.8,5.8,0,0,1,266,123.2c3.29-1.61,7.13.21,8.67,3.07" fill="#fff"/><path id="COFFEE" d="M161.4,192.76a13.31,13.31,0,0,1,1.35,3.49c-1.17.74-2.65,1.34-4,2a6.89,6.89,0,0,0-4.82-5.38,5.71,5.71,0,0,0-5.6,2.2,6.32,6.32,0,0,0-1.2,5.26,7,7,0,0,0,6.25,4.36l.77,0a29,29,0,0,1-2,3.95c-4.43-.15-8.89-2.74-10.54-7a11.51,11.51,0,0,1,1.43-10.87c2.7-3.43,7-4.38,11.19-3.51a13,13,0,0,1,7.13,5.49m85.25-2.3.28.27-6.58,6.13,2.19,2.65c1.86-1.46,3.88-3,5.87-4.88a24,24,0,0,1,2.82,3c-2,1.88-4,3.16-5.74,5a25.83,25.83,0,0,0,2.41,3.06l7.1-5.85,3,3.12a134.6,134.6,0,0,1-12.58,10.81l-12.4-16c3.95-3.3,7.28-6.29,10.75-9.77a25.36,25.36,0,0,1,2.85,2.53M176.87,204a11.86,11.86,0,0,0-10.64-5.16c-4.21.51-8.31,3.58-9.44,7.79a10.87,10.87,0,0,0,2.63,10.64,12.21,12.21,0,0,0,10.54,3.4,11.21,11.21,0,0,0,7.78-6.14C179.14,211.23,179.1,206.81,176.87,204Zm-6.8,10.42a4.79,4.79,0,0,1-4.64,1.05,4.86,4.86,0,0,1-2.66-2.59c-.8-2.92.53-5.66,2.58-7.68a4.42,4.42,0,0,1,4.6-.87,3.94,3.94,0,0,1,2.31,2.3C173.5,209.48,172.08,212.33,170.07,214.38Zm45.86-3.15c-3.07.44-6,.81-8.94,1.29.29,1.44.16,2.41.38,3.51a69.12,69.12,0,0,0,7.7-.88l.75,4.7c-2.5.45-5.23.87-7.86,1.13.07,2.12.35,4.72.32,7.06a31.35,31.35,0,0,1-6.72.42l-1.32-20V208c5-.48,10-1.12,14.71-1.89.21,1.5.67,3.23,1,5.08m16.78-9,.19.34-8,4,1.37,3.16a69.59,69.59,0,0,0,7-3,25.16,25.16,0,0,1,1.86,3.67c-2.21,1.18-4.49,2.09-6.9,3.15.45,1.08.67,1.87,1.46,3.61l8.45-3.63,2,3.86A136.42,136.42,0,0,1,225,224.23l-7.41-18.86c4.72-2.05,8.76-4,13.06-6.35a24.21,24.21,0,0,1,2,3.22m-35.48,11.27c-3.06-.52-6-1.06-8.91-1.5-.17,1.46-.58,2.35-.7,3.46a67.58,67.58,0,0,0,7.6,1.51l-.72,4.7c-2.52-.32-5.25-.76-7.84-1.31-.57,2-1.09,4.6-1.83,6.82a31.27,31.27,0,0,1-6.53-1.65l4.82-19.45.12-.4c4.86,1.05,9.85,2,14.59,2.68-.26,1.48-.36,3.28-.6,5.14" fill="#fff"/><path id="star" d="M135.39,163.91c2.22,0,4.35.07,6.63,0l-5.09,4.25c.49,1.79.91,3.85,1.54,6.26l-5.05-3.51c-2.12,1-3.4,2.16-5.6,3.29l1.76-6c-1.67-1.36-3.53-2.66-5.11-4.05,2.3,0,4.31,0,6.53,0,1-1.92,1.49-4.12,2.42-6l2,5.83" fill="#fff"/><path id="star-2" data-name="star" d="M268.34,163.94c2.21,0,4.18.05,6.62,0l-5.08,4.26c.49,1.78.91,3.85,1.53,6.25L266.36,171c-2.12,1-3.4,2.15-5.59,3.29l1.75-6c-1.66-1.37-3.53-2.67-5.1-4.06,2.3,0,4.31,0,6.53,0,.89-2,1.53-3.91,2.42-6l2,5.82" fill="#fff"/><path id="inner" d="M147.77,149.64a52,52,0,1,1,52,52,52,52,0,0,1-52-52" fill="#fff"/><path id="inner_artwork" data-name="inner artwork" d="M199.58,118.26a25.85,25.85,0,0,1,4.94,3.62l-.55.55a68.1,68.1,0,0,0-8.23.11c-.29-.29-.87-.73-.33-1.1Zm48.5,34.07a8.26,8.26,0,0,1-.33,3.57c-5,1.42-8.3-3.88-13.16-3.08l.55,2.75c4.5.15,7.3,4.46,12,4.27-.66,1.32.3,4.8-2.63,3.41-3-.73-5.23-3.41-8.56-3.41-.4.74-.14,1.76-.21,2.63,3.51.55,6,3.52,9.54,4.07-.33,1.21-.66,2.56-1.65,3.29-2.85-.69-5.08-3.26-8.12-3.18l-.54,2.52c2.89.07,4.75,2.63,7.35,3.4.07,1.06-.88,2-1.43,3-2.3-.7-4.06-2.68-6.7-2.53,0-1,.56-2.12.33-3.18-2.95.88-4.94-1.87-7.13-3.52-.06-5.39-5.74-8.93-6-14a7.47,7.47,0,0,1,.56-3.24c1.86-4.31,1.28-9.91-.77-13.94a7.8,7.8,0,0,0-2.75-2.51c1.5,3.18,3.33,6.94,2.42,10.85-.11,3-1.89,5.93-1.91,8.84a6.12,6.12,0,0,0,.81,3.13c2.38,4.28,6.66,8.34,5.05,13.71-.44,1.65-1.76,2.93-2.09,4.61,2.79,2.3,5.42,4.9,9.11,5,1.32-.84.59-4.56,3.29-2.84l3.95,2a6.29,6.29,0,0,1-2,2.74c-1.5-.73-3-1.61-4.83-1.54a2.9,2.9,0,0,0-1,2.09,8.64,8.64,0,0,1,3.62,1.54,9.23,9.23,0,0,1-2.41,2.63l-3.07-1.1c-.51.73-1.58,1.5-1.2,2.31a6.19,6.19,0,0,1,2,1.21,20.54,20.54,0,0,1-4.72,3.39c-1.42-4.64-6.11-7.9-5.71-13.27l-.21-.22c-1.1,1.24-.74,3.22-.67,4.82,1.32,3.37,4.47,6,4.94,9.66-.55.95-1.79,1.14-2.74,1.54.11-6.66-10-11.7-3.51-18.43,2.16-3.3,5.77-6.44,4.49-11-1.31-4.38-6-7.1-5.93-12V152c1.06-5.12,4.28-10.58,1.65-16-.74-2.2-2.38-4.69-4.61-5.6a15.65,15.65,0,0,1,2.74,15.14c-1,2-2.28,4.47-2.41,6.86h0a5.74,5.74,0,0,0,1,3.68c2.52,4.09,6.91,8.59,4.38,13.94-2.85,4.27-7.82,8.62-5,14.26,2,3.36,5.12,6.72,4.28,10.86l-3.29,1.09c2.19-7.71-8.56-12.25-4.06-20,2.78-4.14,7.75-8,4.94-13.5-1.69-3.4-5.16-5.41-5.05-9.66l.12-.71c1.13-6,5.71-11.72,2.51-18.16a11.49,11.49,0,0,0-4.39-4.94l-.11.12a13.29,13.29,0,0,1,2.85,14.36c-.94,2.81-3,5.61-3.42,8.62a7.07,7.07,0,0,0,.79,4.44c2.38,3.77,6.55,7.76,4,12.63-2.74,4-7.32,7.93-5.49,13.15,2,4.58,6.21,8.93,3.95,14.6l-3.4.77c2.7-5.52-1.35-11-3.73-15.8-2.89-6.88,6.21-10.17,6.36-16.46,0-4-4.35-6.36-5.26-10.09-1.87-1.57-3.8.63-6,.22-1.64.33-4.17-2.27-5.16.55-1.17,4.13-6.51,7.17-4.16,12.07,2.23,4.35,7.6,7.53,5.81,13.17-1.61,5.26-6.92,10.27-3.62,16.34-1.36-.44-3.88.4-3.84-1.76-2.09-7.35,6.8-11.63,4.05-19-1.27-4.5-7.09-7-5.81-12.4.94-4.45,5.94-7.57,5.24-12.45a6.2,6.2,0,0,0-.3-1.26c-1.86-5.27-5.67-10.54-3.4-16.68a21.48,21.48,0,0,1,3-4.83c-3.62,1.94-5.45,6-5.37,10.21-.16,4.53,3.19,8.41,3.66,12.56a7.63,7.63,0,0,1-1.25,5.21c-2.38,3.22-5.48,6.62-4.06,10.86s6.69,6.88,6.37,11.85c0,5.89-6.88,9.56-4.94,16.14L182,195.28c-1.35-5.85,4.87-8.84,4.94-14.25.88-6.22-7.06-8.53-6.58-14.6,0-4.61,4-7.53,5.81-11.41a7.37,7.37,0,0,0,.37-2.69c-.22-4.29-4.08-7.64-3.44-12.46a15.24,15.24,0,0,1,3.73-9.32c-3.18,1.27-4.5,4.94-5.37,8-1.53,4.93,2.11,9.36,2.48,13.77a7.31,7.31,0,0,1-2.15,5.87c-2.64,3.11-5.31,7-3.41,11.2,2,4.6,8.35,8.18,5.6,13.93-1.5,3.62-5.08,6.36-4.94,10.64a9.31,9.31,0,0,1-2.74-1.54c0-5.44,7.75-8.85,4.06-14.59-.33,1.13-.4,2.67-.65,3.95-1.29,3.33-4,6-5,9.44a15.07,15.07,0,0,1-4.94-3.51l2-1.21a6,6,0,0,0-1.31-2c-1.28-.18-2.13.66-3.19,1a16.68,16.68,0,0,1-2.52-2.52c.66-1.87,5.78-.33,3.19-3.4-1.76-1.1-3.52.47-5,1.2l-2.09-2.63c1.8-1.09,3.58-2.63,5.81-2.19.55,1,.59,2.44,1.65,3,3.77-.08,6.44-2.93,9.32-5.16-2-3-3.65-7.13-1.86-10.75,1.43-3.63,5.17-6.69,5.34-10.7a7.31,7.31,0,0,0-.51-2.91c-2-5.08-2.67-11.95,1.1-16.46-2.05.56-3.26,3.11-4,5-2.27,5,.6,9.56.7,14.32a10.34,10.34,0,0,1-.27,2.58c-1.94,3.91-5.08,7.34-5.59,11.85-2.23,1.42-4.06,3.91-7.24,3.07a8.47,8.47,0,0,0,.43,3.07c-2.52-.1-4.24,1.76-6.36,2.63-1.13-.36-1.43-1.82-1.86-2.84,2.48-.84,4.27-3.34,7.13-3.3.33-.92-.19-1.76-.33-2.63-3.55-1.58-9.18,7.78-9.65-.33,3.54-.22,5.81-3.52,9.32-3.84L164,160c-4-.41-6.55,3.69-10.54,3.29l-.88-3.51c4.61.29,7.36-3.84,11.75-4.07a6.08,6.08,0,0,0,.77-3c-4.8-.62-8.08,4.69-13.17,3.08,0,0-.17-2.21-.27-3.46h0c0-.49-.07-.83-.07-.83,4.53,1.76,8.52-1.49,12.4-3.18,1-.29,2.52.22,3-.88,0-.84,1.49-1.82.21-2.41-5.67-.77-9.43,6.07-15.25,3l-.44-.88c1.21-16.53,10.53-32.51,26-40.37a45.41,45.41,0,0,1,21.9-5.47c9.47-.08,19.05,2.41,26.17,7.45A48.76,48.76,0,0,1,242.71,127c3.43,6.22,5,13.2,5.48,20.62-6,4.54-10-4.27-16.13-2.3a7.61,7.61,0,0,0,1.21,2.75c5.41,0,9.14,5.63,14.81,3.39ZM179.17,132c-3.81-2.48-8.63-.14-12.18,1.21a11.89,11.89,0,0,0-4.5-8.56,3.06,3.06,0,0,0-1-.44.58.58,0,0,0-.55.33c1.28,7.86-3.83,13.35-7.45,19.31,1.2,1,3.14.84,4.6.55,3.84-1.53,7.5-4.21,12.07-3.29a33.76,33.76,0,0,1,5.49-6.36C176.8,133.73,178.36,133.11,179.17,132Zm11.63,4.94c-.07.47,0,1.32.77,1,1.13-1.57,3.14-.33,4.39-.22v-.44a3.94,3.94,0,0,0-3.51-1.55,5.48,5.48,0,0,0-1,.13A.85.85,0,0,0,190.8,136.91Zm17.88-4.71c-1-2.27-3.36-3.19-5.48-3.74a30.51,30.51,0,0,0-3.2-.22c-.2,0-.4,0-.6,0-3,.06-5.86.83-7.61,3.3-.25.69-1.36,1.67-.33,2.3,2.3-.15,4.93-.44,6.47,1.54,0,1.76,1.13,4.09-.77,4.93-1.57-1.45-3.44.63-5.15-.55-.81-.47-1.32.08-1.65.78a12.9,12.9,0,0,0,6.14,12.06c1.72.62,4,1.21,5.83.33,4.31-2,6.1-6.62,6.9-10.86-.1-.81-.07-2.38-1.2-2.42-1.28.81-3.14.33-4.5,0-.8.26-.84,1.43-1.75,1.66l-.56-.45c-.47-2-.77-4.86,1.1-6.25a10.32,10.32,0,0,1,6.7-.55C209.42,133.37,208.8,132.82,208.68,132.2Zm-2.2,3.6-.43,0c-.76.51-3,.14-2.19,1.86,1.39-1.1,3.33-.33,4.72.22.51-.25.4-.77.44-1.21C208.57,135.86,207.5,135.78,206.48,135.8Zm15.93-15.46c-2.71-.14-5,1.39-7.47,2.09-.21-2.12,1.4-4.35,1.76-6.48-4,.26-7.2,2.68-10.53,4.62l-2.31-5.6,4.39-4.17.11-.55-5.93-.33c-1-1.79-1.42-4-2.63-5.59-1,1.86-1.65,3.84-2.63,5.7l-5.93.33v.44l4.5,4.06c-.55,2.08-1.06,4.35-2.41,5.92a52.53,52.53,0,0,0-8.12-4.38c-.69-.23-1.68-.59-2.31-.12.92,2,2.2,4.18,2,6.38-1.21-.23-2.16-1-3.29-1.33-1.36-.37-3-1.09-4.28-.65a24.14,24.14,0,0,1,4.6,10,40.71,40.71,0,0,1,24.59-4c4.13.66,7.93,2.34,11.63,3.73C218.27,126.57,220.72,123.45,222.41,120.34Zm12.5,21.07c3.73,1,7.47,5.05,11.41,2.41-3.43-5.7-8.55-11-7.13-18.43a.86.86,0,0,0-.65-1.1,9.65,9.65,0,0,0-4.84,5.27,32,32,0,0,1-1.09,3.84c-2.67-1.39-5.52-2.74-8.78-2.41-1.17.15-2.85.22-3.07,1.43a25.62,25.62,0,0,1,9,8.77A17.94,17.94,0,0,1,234.91,141.41Zm-39.06,5.16.11.66c1.42,1,1.86,2.56,3.84,2.42,1.76.1,3.07-1.54,3.95-2.86C201.37,146.46,198.48,147,195.85,146.57Zm2-3c.07.29-.19.73.21.88,1.17-.26,3.29.62,4-.77a2.65,2.65,0,0,0-2-.75A3.87,3.87,0,0,0,197.83,143.61Z" fill="#010101"/></svg>