<svg id="Layer_1" data-name="Layer 1" xmlns="http://www.w3.org/2000/svg" viewBox="0 0 400 300"><path d="M51.86,133c2.26,0,3.83.47,4.8,1.45s1.58,2.89,1.58,5.84v36.86c0,5.1-1.07,7.37-7.38,7.37H50v2.26H78.35v-2.25H77.5c-6.25-.07-7.3-2.34-7.3-7.37V140.28c0-2.94.48-4.73,1.57-5.82S74.36,133,76.66,133h1.69v-2.3H50V133Zm90.69,35a30.78,30.78,0,0,1-.57-3.59V147.55c-.11-9.81,1.23-14.7-7.35-14.66v-2.21h19.74v2.21c-8.84,0-7.72,4.85-7.78,14.66v39.31l-2.81,0-42.63-44.62a34.17,34.17,0,0,1,.56,3.59v27.56c-.25,10.06,1,11.27,7.48,11.16v2.29H88.6v-2.29c6.49,0,7.76-.86,7.76-12V146l0-4.31c.24-5.58-1.82-8.81-8.12-8.76v-2.21h19ZM214,129.61h-2.17l-.11.75c-.14,1.11-.58,3-1.85,3a6.53,6.53,0,0,1-2.27-.63,40.07,40.07,0,0,0-14.93-3.09c-9.36,0-17.84,3.35-23.9,9.44a29.84,29.84,0,0,0-8.57,21.44c0,7.88,3.13,14.36,9.48,19.83s13.54,7.8,23.95,7.8c8.66,0,13.63-1.25,21.24-5.34l1.33-.72V167.35c0-6.26.77-7.24,5.87-7.44l.83,0v-2.18H198v2.18l.83,0c5.68.22,6.75,1.23,6.75,6.42V180c-4.21,2.78-7.27,3.84-11.13,3.84a20.47,20.47,0,0,1-14.71-6.11c-4.58-4.58-6.81-11.24-6.81-18.78,0-8.11,2.16-15,6.62-19.49a18.87,18.87,0,0,1,13.62-5.51A24.39,24.39,0,0,1,207.34,139a16.65,16.65,0,0,1,5.94,9.08l.18.61h2.13L214,129.61Z" fill="#1a3b73" fill-rule="evenodd"/><path d="M323.14,186.62c1.38-.21,2.86-.17,4-1.19a18.15,18.15,0,0,0,13.1-3,27.52,27.52,0,0,0,5.1-5.35,19.41,19.41,0,0,0,2.86-5.33,25.7,25.7,0,0,0,1.13-3.75A35.77,35.77,0,0,0,348,149.34c-.36-1.05-.77-2.09-1.23-3.1-2.47-5.1-5.83-10.61-11-13.83a22.2,22.2,0,0,1-7.24-7.54c-.89-.8-1.75-1.87-2.9-2.06a4.42,4.42,0,0,1,.74,1.64l-.06.09a4.22,4.22,0,0,1-3-1.4l.92-.84A4.85,4.85,0,0,0,323,122c-3.53-.4-6.44,1.23-9.58,2l-.05.17c1.93.86,2.33,3,3.45,4.42.28-.33.75-.09,1.14-.12.56,0,1.09.44,1.63.29a5.19,5.19,0,0,0-.33-1.26,2.55,2.55,0,0,1,1.1,0c1,.6,2.64-.1,3.28,1.26a19,19,0,0,0-3.33.59c.07.43.51.78.47,1.22a11.05,11.05,0,0,0-2.94-.75l-.05.16a10.12,10.12,0,0,0,4.95,3c2.65.61,5-.65,7.54-.21,6.27,2.88,11.63,9.45,14,15.69.12.3.23.6.33.91A30.41,30.41,0,0,1,345,168a22.79,22.79,0,0,1-4,6.81,14.05,14.05,0,0,1-2.29,2.27,10.34,10.34,0,0,1-9.22,2c-.21-.14-.63-.18-.56-.55s.23-1,.32-1.48a36.94,36.94,0,0,0,.66-8.84v-.39a33.85,33.85,0,0,0-2.65-12,41.16,41.16,0,0,0-3.78-6.62,15.7,15.7,0,0,0-7-5.78c-1.79-.47-4-.56-5.35.92a3.62,3.62,0,0,0-1.22,3.23,11,11,0,0,1-5.05,1.63c-.45,0-.91.2-1.38.2a8.16,8.16,0,0,1-1.31,0,12.91,12.91,0,0,1-6.17-2.84c0-.91-.09-1.77-.12-2.73a3.27,3.27,0,0,1-1.85-2.61l.08-.09a7.72,7.72,0,0,1,1.56.75,11.66,11.66,0,0,0-1.17-3.91,19.22,19.22,0,0,1-1.86-.79,3,3,0,0,1-1.22-2c.61.59,1.67.38,2.15,1-.83-2.44-.84-5.22-2.19-7.45-.69-1.64-2.47-2.4-3.7-3.6-.47-.58-.66-1.39-1.52-1.48-.7-.17-.76-1-.88-1.47a11.22,11.22,0,0,1,1.17.42c-1-2.69-1.91-5.69-4.66-7.41l-.47.3a27.7,27.7,0,0,1-3.27.26,4.42,4.42,0,0,1,2-1.31,4.68,4.68,0,0,0-2.37-.88,4.87,4.87,0,0,1-2.29,1l-.09-.07c0-.63-.16-1.4.79-1.56a5.48,5.48,0,0,0-3.35,0c-.26.68-1,1.3-1,2.11a13.43,13.43,0,0,1-1.49,1.71A16.31,16.31,0,0,1,271,113c-.78.3-1.58.72-2.36,1.09a31.47,31.47,0,0,0-3.88-2c-.12-.06-.38-.11-.33.12,1.14.82.69,2.37.82,3.54l-.72-.6c-.35-.89-1.37-1.54-1.54-2.52a13.76,13.76,0,0,0-3.06,1l-.15.09a2.48,2.48,0,0,1,1.93,1.29,21.82,21.82,0,0,1-3.58-.55c-.12-.12-.23-.26-.42-.24A6.8,6.8,0,0,0,256,115.3a11.74,11.74,0,0,0-3,4.08,2.64,2.64,0,0,1,1.21.3c-.67.4-1.25,1.08-1.89,1.47a15.62,15.62,0,0,0-.25,2.94,13.23,13.23,0,0,0-1.52,2.32,34.21,34.21,0,0,0-1.21,11.42c-.36.33-.81.54-1.14.81l0,3.57h.08c.16-.75,1-1.17,1.6-1.68h.17c-.09.8-.19,1.61-.21,2.43l-1,.84c-1,.9-.16,2.25-.25,3.37.07.29.12.73.33.8a4.87,4.87,0,0,1,.76-1.13c.44-.11.82-.46,1.22-.51a17.7,17.7,0,0,1-.88,2.57,3.75,3.75,0,0,0-.53.44,1.35,1.35,0,0,0-.36.65,79.42,79.42,0,0,0,3.45,12.16c-1,1.63-1.51,3.55-2.31,5.23a7.8,7.8,0,0,0-.31.72c-.81,2-1.05,4.31-2.06,6.27a6.91,6.91,0,0,0-1.29-.68,5.29,5.29,0,0,0-5.47,1.22,4.7,4.7,0,0,0-3.45.64,4.49,4.49,0,0,0-1.53,1.87,3.82,3.82,0,0,0-.28,1.67,4.11,4.11,0,0,0-1.47,2.22,6.91,6.91,0,0,0,1.39,5.32h87.33Z" fill="#fff" fill-rule="evenodd"/><path d="M311.54,147.23c0,.45-.35,1-.05,1.35.42-.48,1.12-.46,1.68-.67a13.89,13.89,0,0,1,4.5.7c-.37-.58-.61-1.22-1-1.75-.81-.21-2,.35-2.17-.84-.5-.42-1.27-.12-1.77-.09a3.87,3.87,0,0,0-1.18,1.3ZM258,132.1l0,0v0Zm6.37,15.57,1.05-1a.23.23,0,0,1,.21.09l-.09,1.94a2.74,2.74,0,0,0,1.81.67c.05-.53.45-.9.68-1.35s.07-.91.46-1.18l.12.13a5.52,5.52,0,0,0,.39,1.73c0,.28.08.63.12.88a4.28,4.28,0,0,0,2.06-.46,8.34,8.34,0,0,1,.3-1.82c.16-.21-.19-.6.25-.58.24.52.68,1.07.92,1.63a6.85,6.85,0,0,0,1.69-3.78c-.3-.41-.75-.41-1.11-.67-3-1-6.8-1.16-9.67.33a4.49,4.49,0,0,0,.81,3.45Zm-27.84,32.88a27.37,27.37,0,0,0,.08,3.95,2,2,0,0,0,1.3,1l.09-.89c.21-1.25-.46-2.57.25-3.62a8.9,8.9,0,0,1,1.4.63,3.09,3.09,0,0,0-1.2-3.21l-1.92,2.16Zm4.33-1.89c-.69,2.05-1.2,4.58-.37,6.74a8.53,8.53,0,0,0,1.38-1.05c-.09-1.65-.31-3.41.66-4.78a3.09,3.09,0,0,1,1.77,1.9,3.25,3.25,0,0,0,.55-2.74c0-.77-.84-.59-1.27-.91.15-.65.13-1.4.81-1.77l-2.1.21A9.83,9.83,0,0,0,240.85,178.66Zm4.32,6.05c.09.16,0,.44.18.48.26-1.47,1.45-2.43,2.1-3.72.31-.44.3-1.06.81-1.39.68,0,1.17.49,1.84.54.21.16-.11.3-.13.47a18,18,0,0,0-.5,3.41h.12a17.61,17.61,0,0,0,2.24-3.16l.12-1c.16-1.19-1.14-2-2-2.45l.75-1-1.05-.37a4.76,4.76,0,0,0-3.19,1.6,14.31,14.31,0,0,0-1.31,6.55Zm4.72-10.4c.4.13.77-.21,1.17,0a10.57,10.57,0,0,1,4.5,2.56L257,180.5l.72-2.26-.48-1.23c-.4-.88-1.5-.8-2.26-.84-.31-.35,0-.75.13-1.09.36-1.24-1.16-1.17-1.77-1.67,0-.76-.88-.5-1.39-.57l-.17-.21a.35.35,0,0,0-.51,0s-.11-.09-.07-.18l-.39.09a2.47,2.47,0,0,0-.92,1.8Zm1-4a1.15,1.15,0,0,0,.37.59c.79-.21,1.54-.75,2.45-.42a13.88,13.88,0,0,0,3.83,2.68l.5-.09c.32.11.67.13.87.48s-.29.75-.45,1.13c.79.58.47,1.62,1,2.32l1.26-1.69c-.3-.73,0-2-1.14-2.06a1.11,1.11,0,0,1-.63-1c-.75-.68-1.68-1-2.44-1.68-.61-.49-1-1.25-1.77-1.42a6.09,6.09,0,0,0-1.76-.59c-1.18-.18-1.29,1.22-2.06,1.77Zm1.68-3.46.21.34c.88-.06,1.67-.44,2.53-.42.57.35,1.33.33,1.92.63a6.93,6.93,0,0,0,1.68,1.82c1.43.21,2.21,1.74,2.7,2.85v-.54a3.74,3.74,0,0,0-.29-2.31c-.36-.35-.86-.58-1.23-.89a.75.75,0,0,1,0-.55,11.77,11.77,0,0,0-2-1.35c-.93-1.35-2.72-1-4.14-1.35l-1.42,1.77Zm0-12.85a17.09,17.09,0,0,1,.45,1.81c.49-1.09,1.46-1.58,2.32-2.47a4.4,4.4,0,0,0-1.64-.6v0C253.29,153.07,252.69,153.46,252.55,154Zm3.19,5.77.78-.81a5,5,0,0,0,1.56-2.77,2.21,2.21,0,0,0-1.83.09,21.73,21.73,0,0,0-.51,3.49Zm.57,2.47c1.21.07,2.39.31,3.37-.37l1-3.16a2.67,2.67,0,0,0-.93-.05,7.65,7.65,0,0,1-3.42,3.58Zm.36-11.18a7,7,0,0,0,3.45,2.82c-.16-1.47-1.42-2.49-2.06-3.75l0-.42a6.73,6.73,0,0,0-1.65-1.09,8,8,0,0,0,.3,2.44Zm4.27,11.32a6.11,6.11,0,0,0,2.79-.27c1.24-.29,1.93-1.66,2.35-2.73h-1.56L262.83,161a13,13,0,0,0-1.89,1.35Zm-.19-12.92a10.37,10.37,0,0,0,1.63,3.79l.21-2.61Zm5.75,6.82a12.71,12.71,0,0,0-.37-2.78c-.53-.36-1.26-.32-1.8-.67C264.36,154.19,265.45,155.37,266.5,156.26Zm-1.6,8.9a17.65,17.65,0,0,0,3.19-1.3c.65-.92,1.63-1.77,1.77-2.85-.81.23-1.51,0-2.26.33a5.79,5.79,0,0,1-1.62,2.35C265.85,164.28,265.2,164.69,264.9,165.16Zm1.72,2.16,1.31,1.71a2.66,2.66,0,0,0,2.19-.24l-.48-1.56A6.15,6.15,0,0,1,266.62,167.32Zm2.19-12.41.51,2.31a4.67,4.67,0,0,0,1.44-4A5.64,5.64,0,0,1,268.81,154.91Zm3.45,4.08a1.77,1.77,0,0,0,.3.92c1.36.48,1.5,2.15,2.77,2.78a3.12,3.12,0,0,0,2.48-.42c-.54-.61-1.16-1-1.68-1.69-.37-.15-.74-.38-.72-.83l-3.15-.76Zm1.08,8.27a4.06,4.06,0,0,0,2.25,1.23c-.14-.2.09,0,.12-.12l-1-2.31c-.52,0-1.07.12-1.56.08a4.55,4.55,0,0,0,.24,1.12Zm1.86-10.79a13.65,13.65,0,0,1-.83-3.78c-.53.63-1.07,1-1.56,1.68-.23,1.29,1.62,1.61,2.39,2.1Zm2.14-1.19c.63.82,2,.54,2.79.29-.37-.63-1.56-1-1.77-1.68a15.44,15.44,0,0,0-.75-3.48c-.61,1.49-1.36,3.26-.27,4.87Zm1.1,3.71c1.75,1.28,3.47,2.77,5.93,2.23.17-.12.47-.11.5-.34-.72-.45-1.49-.8-2.22-1.22l-.84-1.23h-.39a14.54,14.54,0,0,1-3,.56Zm0,14.21h.12a9.42,9.42,0,0,1,3.54-1.47c.34.12.12.49.42.63.75-.31,1.67-.24,2.44-.5a5.2,5.2,0,0,1,2.43.45c.6.79,1.72.7,2.49,1.22l-.12-1.22c-1.63-1.91-4.17-2.05-6.52-2l0-.25a4.16,4.16,0,0,0-1.72.37,8.67,8.67,0,0,0-2.19.63,19.51,19.51,0,0,0-.84,2.15Zm1.41-21.53a3,3,0,0,0,2.85,1.35c-.59-.58-1.28-1.19-1.31-2,.17-1.55-1.54-1.67-2.38-2.49A10.18,10.18,0,0,0,279.89,151.67Zm-.18,24.64h.2c.93-.59,2.28-.15,3.19-.76.51-.26.55.44.9.63.86.53,1,2.1,2.17,1.74,1.45.75,1.08,2.52,1.14,3.82l1.35-.84c-.12-.69.26-1.51-.18-2.11-.33-.75-1.24-.82-1.68-1.43.53-.9-.66-1.32-.91-2l.07-.08,1.85.24a2.78,2.78,0,0,1,1.06,1.73c1.45.25,1.8,1.9,2.31,2.95.3-.72.42-1.49.72-2.19,0-.58-.76-.58-1.14-.84a3.15,3.15,0,0,0-1.3-2.28c-1.61-.4-3-1.3-4.8-1.3l-1.47.46c-.8.19-1.66-.05-2.27.51-.92.06-1,1.07-1.21,1.72Zm.92-7.23.34.16c.71-.33,1.43-.72,2.19-1,1.17-.33,2.08,1,3.06.16.37-.26.68.12,1,.33.42.78,1.4.72,2.13.93-.36-1-.82-2.36-2.1-2.52a13.35,13.35,0,0,1-1.59-.51c-1.35-1.49-2.22,1.22-3.7.56a4.09,4.09,0,0,0-1.3,1.89Z" fill="#fff" fill-rule="evenodd"/><path d="M281,177.62c.56.47,1.13,1.28,2,1.17,1.09.51.63,1.94,1.23,2.7l.63-.56,0,0,.09-.09,0,.06a3.36,3.36,0,0,0-.37-2.07c-.4-.28-.87,0-1.26-.25a1.76,1.76,0,0,0-.8-1.19c-.28-.21-.65.07-1,.05l-.54.22Zm2.19-21.36a9,9,0,0,0,2.59,2.22,4.09,4.09,0,0,0,2.49.25,16.7,16.7,0,0,1-2.07-2c-.24-.35-.3-.79-.63-1.11A4.94,4.94,0,0,0,283.16,156.26Zm1-6.27c.81,1,2.06.59,3.19.63v-.12L285.56,149a4.87,4.87,0,0,0-1.44,1Zm-32.25-16.53,1,3.16c0-1.79.81-3.28.64-5.1l.75-1.12-1.6.49A6,6,0,0,0,251.87,133.46Zm.68-5.46,1.39-.81v-2a7.27,7.27,0,0,0-1.35,1.42Z" fill="#fff" fill-rule="evenodd"/><path d="M281,131.19a1.94,1.94,0,0,1-1.26.63,6,6,0,0,0,.51-4.75,7.1,7.1,0,0,0,1.17-.42l0,0,1-.84c1.28-.87.79-2.54,1.27-3.78-.64-1-.83-2.18-1.74-3l0,0c-.72-.91-2-.81-3-1.27-1.29-.43-2.29.46-3.22,1.06-.41.07-.16.59-.59.57a18,18,0,0,0-.73,2.07,7,7,0,0,0-5,.93,7.28,7.28,0,0,0-2.49-.89c-.63-.13-1.35.1-1.8-.25-.66-.75-.81-2.12-1.95-2.31-.4-.14-.49-.58-.49-1-.75-.12-1.42-.47-2.15-.63-1.12-.51-2,.3-2.86.84a7.31,7.31,0,0,0-1.13.43,16.07,16.07,0,0,0-1.63,3.06,6.36,6.36,0,0,0,1,2.44,5,5,0,0,0,2.73,2.49,10.45,10.45,0,0,0,0,5.55l0,0s0,0,0,.05a1,1,0,0,1-.49-.05h0a7.67,7.67,0,0,0,2.31,4.39c.45.16.35.71.54,1.06a.79.79,0,0,1,.09.63,13.65,13.65,0,0,0-7.36,1.84c-.56.28-.31,1-.37,1.59a13.63,13.63,0,0,1,5.05-2.1,7.64,7.64,0,0,1,2.43,0l.09,1.51c-2.08,1.09-4.36,1.72-6.15,3.5a7.1,7.1,0,0,0,.09,1.63l1.6-1.29a18.62,18.62,0,0,1,4.92-2.82,6.15,6.15,0,0,0,1.6,1.5,11.78,11.78,0,0,1,3.45-1.5c.65-.39,1.68,0,2.1-.81l.3-1.59c-.06,0-.09-.11-.18-.09a2.4,2.4,0,0,1-1.29-2.26,2.41,2.41,0,0,1-.93.24c-.28-.07-.55-.14-.67-.42s-.19-.87.16-1.14a6.77,6.77,0,0,1,4.05-.63c1.07.14,2.61.09,3,1.35-.06.37,0,.77-.39,1s-.82,0-1.18-.18a2.84,2.84,0,0,1-1.71,2.1l.12,1c.12.46.16,1.21.88,1a15.63,15.63,0,0,1,4.59,2.19,10.68,10.68,0,0,0,1.22-1.56c2.6.88,4.84,2.82,7,4.63l.09-1.47a24,24,0,0,0-6.65-4.09,8.35,8.35,0,0,0,.21-1.43,17.11,17.11,0,0,1,7.73,2.36l0-1.26a17.33,17.33,0,0,0-8-2.19.85.85,0,0,1-.12-.54,3.89,3.89,0,0,0,2.73-3c.72-.82,1.76-1.71,1.51-2.94l.1-.31a1.38,1.38,0,0,0,.07-.91Z" fill="#fff" fill-rule="evenodd"/><path d="M283.41,135.69l1.43-.46.16-.8c.41-1.18-.45-2.05-.87-3l-.72,4.24Zm3.62,5.56c.69.75,1.35,2,2.56,1.59a8,8,0,0,0-.54-1.39c-.32-.37-.42-1.42-1.05-1-.48-.31-.6-.84-.9-1.26A13.53,13.53,0,0,0,287,141.25Zm.25,5.12c.26.38.33.85.59,1.18a2.88,2.88,0,0,0,1.75.21c.53-.12.86.46,1.35.12-.61-.38-1-1.09-1.55-1.59s-1.42-.07-2.14.08Zm.93,8.15a6.65,6.65,0,0,0,4.36,1.18c.17-.09.47-.07.5-.28-1-.35-2-1.35-3.09-1.56-.58-.9-1.33.23-2.07.16,0,.21.23.37.3.5ZM291.85,170l.26.57c.27,1.82,1.42,3.5.79,5.5.53.37.68,1,1,1.47H294a11.65,11.65,0,0,0-.08-4.63c.15-1.38-1.25-2.19-2.07-2.91Zm.3-17.94a3.87,3.87,0,0,0,3.42.42,9.87,9.87,0,0,1-1.95-1.26l-1.47.84Zm4.32,5.38a1.93,1.93,0,0,0,.93,1.72,3.73,3.73,0,0,0,.54-1.29,3.18,3.18,0,0,0-1.26-2,4.44,4.44,0,0,0-.21,1.52Zm.06,8c-.12.82.79.93,1.17,1.39s-.21.64-.21,1a4.78,4.78,0,0,1,1.05,3,26.61,26.61,0,0,0,.81-3.19c-.07-.77-1.3-.61-1.1-1.47a3.84,3.84,0,0,0-.3-2.52c-.07-.13-.23-.37-.37-.3-.32.72-1.11,1.22-1.05,2.1Zm2.4-4.17.91,1.77c.4-.05.66-.44,1-.71.25-.74-.41-1.21-.6-1.81-.16-.42,0-1-.29-1.35-.23-.14-.5-.37-.76-.3l-.24,2.4Zm1.17-4.66a5.07,5.07,0,0,1,1.92,1.84c.62,1.79,1.6,3.4,2.32,5.13.26,1.21.47,2.29.8,3.48.13.32.06.93.55.88.14-1.33.4-2.61.42-4a5.41,5.41,0,0,0-1.56-1.17v-.12c.07-.3.32-.65.68-.6.16-.18.63-.35.43-.66-.92-.91-.86-2.48-2.32-2.77a1.31,1.31,0,0,1-.68-1.22A4.18,4.18,0,0,0,300.1,156.59Zm.84,9.5c.9.82.58,2,.51,3.12-.14.66.7.28,1,.63.55.8.23,2,0,2.85a17.21,17.21,0,0,0,1.38-2.13c0-.3.37-.44.35-.81.16-.51-.43-.28-.68-.33s-.43-.2-.37-.48c.46-.87,0-1.93-.14-2.8-.21-.72.09-1.68-.24-2.31C302.19,164.6,300.52,164.77,300.94,166.09Zm1.63-12.44c1.56,1.58,2.7,3.16,4.38,4.68a16.31,16.31,0,0,0-.09-2,4.81,4.81,0,0,0-1.08-1.17C304.53,155.06,303.89,153.39,302.57,153.65Zm4.08,8.35a3.35,3.35,0,0,0,.18.46,22.5,22.5,0,0,1,1.8,3.48c-.14-1.29.74-2.91-.42-3.91-.16-.42-.68-.28-1-.24l-.55.21Zm4.21,12.8c.49.22,1.12-.18,1.59-.46a1.41,1.41,0,0,1,1.14.37c.14.28,0,.54.05.8a10.91,10.91,0,0,1,3,1.3l.29-.3a2.06,2.06,0,0,0-1.08-1.71c-.37-.22-.92-.09-1.18-.43a1.75,1.75,0,0,0,.16-1,2.53,2.53,0,0,1-1.42-.46c-.29-.08-.56-.33-.81,0-.87.6-.92,1.47-1.76,1.9Zm1.23-22.05a3.24,3.24,0,0,0,1.26-.56c1.17-1.07,2.87-.35,4.23-.37a9.17,9.17,0,0,0-1-1.35,3.91,3.91,0,0,0-1.51-.42c-1.19-.7-2,.47-2.9,1a1.92,1.92,0,0,0-.12,1.65Zm0,3.6s0-.1.05-.12c.16.15,0,.48.25.55a11.86,11.86,0,0,0,1.29-.84c1.18,0,1.88-1.14,3-1.14a17.28,17.28,0,0,1,5.52,1.68,3.78,3.78,0,0,0-2.1-2.68,1.43,1.43,0,0,0-1.4.42c-1.18.74-.56-1.07-1.39-1.11a8.63,8.63,0,0,1-3.36.6c-.7.26-1.19.91-2,.84A4.5,4.5,0,0,0,312.12,156.35Zm.8,3.91c.37.39,1,.32,1.51.39l1.52-.6c0-.28-.45-.35-.35-.66.43-.47,1-.14,1.53-.34.73-.1,1.49-.84,2.22-.29,0,.09,0,.21,0,.29-.23.55.15.88.58,1.09.86.16,1.66,1,2.52.59a15.75,15.75,0,0,0-.46-2.06c-.71-.13-1.22-.72-1.89-1a1.46,1.46,0,0,1-1.05.46c-1.35-.32-3-1.15-4.33-.3-.49.6-1.36.42-2,.68a8.59,8.59,0,0,0,.26,1.72Zm.58,10.42c-.1.3-.4.79.14.93,1.12,0,2.56-.54,3.44.33.29.23.16.7.14,1l1.47,1.23a13.16,13.16,0,0,0,.42-2.2,2.49,2.49,0,0,0-.89-1.47c-1,0-1.53-1.13-2.56-1-.55-.13-1,.35-1.56.35a8.9,8.9,0,0,0-.6.81Zm.42-8.26c.23.47.49,1.24.93,1.3a5,5,0,0,1,3.7-.25c.38.07.38.51.3.79.59.35,1.31.63,1.94,1l-.17-1.05c0-1.14-1.47-1.24-1.56-2.37a7,7,0,0,0-3.73-.2c-.41.37-1,.31-1.48.42,0,.14,0,.22.07.35Zm.3,5.68c.69-.2,1.12-.95,1.86-1a3.42,3.42,0,0,1,2.82,1.44c.42.28.33,1,.87,1a18,18,0,0,1,.1-2.53c-.74-1.22-2.56-.28-3.25-1.72l-1.29.09c-.93.23-.68,1.32-.81,2-.11.23-.32.41-.3.69Zm6.43,7.66c.55,1.08,1.74,1.91,1.86,3.16a5.87,5.87,0,0,0,.66-1.09c0-.35-.42-.35-.58-.63-.15-.46.09-.86.16-1.27a3.43,3.43,0,0,0-1.38-1.64l-.72,1.47Zm2.16-2.77,1.26,1.72a4.54,4.54,0,0,0,.33-3.16c-.12-.19-.35-.5-.66-.37C323.26,171.68,323.19,172.43,322.81,173Zm-5.14-48a3.77,3.77,0,0,0,1.44.48,1.76,1.76,0,0,1,1.3-.21c.65.42,1.43-.09,2.18-.06a8,8,0,0,0-2.18-1.38C319.43,124.07,318.64,124.77,317.67,125Zm6.85,1.65c.93.09,1.6.91,2.23,1.6a3.14,3.14,0,0,1,1.86,1.26l-.3-.93a6.07,6.07,0,0,0-1.38-2.39,7.12,7.12,0,0,0-2.41.46Z" fill="#fff" fill-rule="evenodd"/><path d="M259.14,119l.51.05c1.36.69,3.57,1,3.7,3a10.63,10.63,0,0,0-3.82,2.4c-.84-.86-2.54-.39-2.82-1.9.26-1.41.77-3.2,2.43-3.57Zm1.32,8.89c1.59-.14,3.13.08,4.78-.06a2.19,2.19,0,0,1,1,.93c-.06,1.89-.64,3.7-.72,5.64a2.62,2.62,0,0,0-1.6,1.68,14.28,14.28,0,0,0-1.86.88,1.86,1.86,0,0,1,.27-2c.68-1,2.45-.74,2.31-2.26.45-.74,0-1.68,0-2.45-.17-.58-.34.19-.62.17a2.28,2.28,0,0,1-1.63-.12c-.37-.39-.83-.7-.93-1.23a2.87,2.87,0,0,1-1.32-1.14l.27-.06Zm1.92,11.42c.75.1,1.54-.23,2.19.14a1.21,1.21,0,0,1-.8.42l-1.18.54c-.44-.1-.19-.8-.21-1.1Zm3.07-14.63c.75-.25,1.56-.75,2.36-.51a12,12,0,0,0-1.47,2l-2.4,0a3.41,3.41,0,0,1,1.51-1.47Zm7-.58c1-.17.94,1.12,1.85,1.18.16.21.39.4.3.71a15.34,15.34,0,0,1-1.9.25c-.78-.44-.27-1.81-1.52-1.72-.07-.1-.21-.31,0-.38a3,3,0,0,1,1.3,0Zm-.64,4.7a2.38,2.38,0,0,1,1.74-.79l4.54.09c.19.17-.18.33-.18.54-.28.26-.68.33-.93.58-.59,0-.54.71-1,1-.65.65-1.6.36-2.35.25a2,2,0,0,1-.68-.75l-.21.21c.26,1,.19,2.06.38,3.06l1.09.72c0,1.62,1.91,1.18,2.73,2.07a4.74,4.74,0,0,1-1,1.56,6,6,0,0,0-2.23-1.35c-.07-1-1.1-1.51-1.68-2-.16-1.72-.2-3.47-.47-5.14l.2-.08Zm1.65,10.81h2.1l-.26,1.1-2.11-.89C273.18,139.63,273.37,139.58,273.49,139.6Zm3.79-19.85,1.55-.5a16,16,0,0,1,2.56,1.55,6.2,6.2,0,0,1,.25,4.13c-.48.53-1.51,0-1.89.84h-.08a7.7,7.7,0,0,0-3.74-3.87,3.22,3.22,0,0,1,1.35-2.15Z" fill="#db812e" fill-rule="evenodd"/><path d="M313.82,186.5h9.34c1.39-.21,2.86-.17,4-1.2a18.13,18.13,0,0,0,13.11-3,27.29,27.29,0,0,0,5.1-5.36,19.18,19.18,0,0,0,2.85-5.32,23.87,23.87,0,0,0,1.13-3.75A35.55,35.55,0,0,0,348,149.22a28.55,28.55,0,0,0-1.23-3.1c-2.46-5.1-5.82-10.6-11-13.83a22.17,22.17,0,0,1-7.24-7.53c-.89-.81-1.75-1.88-2.91-2.08a4.4,4.4,0,0,1,.75,1.65l-.07.09a4.24,4.24,0,0,1-3-1.4l.93-.84a4.85,4.85,0,0,0-1.14-.34c-3.54-.4-6.45,1.23-9.58,2l0,.17c1.93.86,2.33,3,3.45,4.42.28-.34.75-.09,1.14-.13.56,0,1.08.44,1.62.3a5.18,5.18,0,0,0-.32-1.26c.32-.16.73,0,1.1,0,1,.6,2.64-.1,3.28,1.26a19,19,0,0,0-3.33.58c.06.44.5.79.47,1.23a10.66,10.66,0,0,0-2.95-.75l-.05.15a10.24,10.24,0,0,0,5,3c2.65.61,5-.65,7.53-.21,6.28,2.87,11.63,9.45,14,15.69.11.29.22.6.33.9a30.34,30.34,0,0,1,.36,18.64,22.69,22.69,0,0,1-4,6.82,14,14,0,0,1-2.3,2.26,10.28,10.28,0,0,1-9.21,2c-.21-.13-.63-.17-.57-.54s.23-1,.33-1.49a37.06,37.06,0,0,0,.66-8.84c0-.12,0-.25,0-.38a33.84,33.84,0,0,0-2.64-12,42.27,42.27,0,0,0-3.78-6.62,15.7,15.7,0,0,0-7-5.79c-1.79-.47-4-.56-5.34.93a3.59,3.59,0,0,0-1.23,3.23,11.12,11.12,0,0,1-5,1.63c-.46,0-.92.2-1.39.2a8,8,0,0,1-1.3-.05,12.84,12.84,0,0,1-6.17-2.85c0-.9-.09-1.76-.13-2.72A3.31,3.31,0,0,1,294,141L294,141a6.93,6.93,0,0,1,1.55.75,11.59,11.59,0,0,0-1.17-3.91c-.63-.26-1.26-.47-1.86-.79a3,3,0,0,1-1.22-2c.61.6,1.68.39,2.15,1-.82-2.44-.84-5.22-2.19-7.45-.68-1.65-2.47-2.4-3.7-3.61-.47-.58-.66-1.38-1.52-1.47-.7-.17-.75-1-.87-1.47.43.05.8.35,1.17.42-1-2.7-1.91-5.7-4.66-7.41l-.47.29a30.21,30.21,0,0,1-3.28.27,4.5,4.5,0,0,1,2-1.32,4.81,4.81,0,0,0-2.37-.88,4.72,4.72,0,0,1-2.29,1l-.09-.06c0-.63-.16-1.41.78-1.56a5.37,5.37,0,0,0-3.34,0c-.27.68-1,1.29-1,2.1a15.24,15.24,0,0,1-1.49,1.72,15.88,15.88,0,0,1,.8-3.74c-.79.3-1.59.72-2.36,1.09a33,33,0,0,0-3.88-2c-.13-.05-.39-.11-.34.12,1.14.82.7,2.37.82,3.54l-.72-.59c-.35-.9-1.36-1.54-1.54-2.53a13.51,13.51,0,0,0-3.05,1l-.16.09a2.45,2.45,0,0,1,1.93,1.29,22.8,22.8,0,0,1-3.57-.54c-.13-.12-.23-.27-.43-.25a6.75,6.75,0,0,0-1.67,1.09,11.86,11.86,0,0,0-3,4.08,2.74,2.74,0,0,1,1.21.3c-.66.4-1.24,1.09-1.89,1.47a15.66,15.66,0,0,0-.25,3,12.45,12.45,0,0,0-1.52,2.31,34.21,34.21,0,0,0-1.21,11.42c-.35.33-.81.54-1.14.8l0,3.58h.08c.16-.75,1.05-1.18,1.6-1.68h.17c-.08.8-.19,1.61-.2,2.43l-1,.85c-1,.89-.16,2.24-.25,3.36.07.3.12.73.34.8a4.78,4.78,0,0,1,.75-1.14c.44-.1.82-.45,1.22-.5a17.66,17.66,0,0,1-.87,2.57,3,3,0,0,0-.54.44,1.26,1.26,0,0,0-.35.65A78.31,78.31,0,0,0,252.62,162c-1,1.63-1.51,3.55-2.32,5.23-.11.24-.22.48-.31.72-.81,2-1.05,4.31-2.05,6.27a7,7,0,0,0-1.3-.68,5.29,5.29,0,0,0-5.47,1.22,4.29,4.29,0,0,0-5,2.51,3.66,3.66,0,0,0-.27,1.66,4.06,4.06,0,0,0-1.47,2.23,6.89,6.89,0,0,0,1.38,5.32Z" fill="#fff" fill-rule="evenodd"/><path d="M348,149.22a28.55,28.55,0,0,0-1.23-3.1c-2.46-5.1-5.82-10.6-11-13.83a22.17,22.17,0,0,1-7.24-7.53c-.89-.81-1.75-1.88-2.91-2.08a4.4,4.4,0,0,1,.75,1.65l-.07.09a4.24,4.24,0,0,1-3-1.4l.93-.84a4.85,4.85,0,0,0-1.14-.34c-3.54-.4-6.45,1.23-9.58,2l0,.17c1.93.86,2.33,3,3.45,4.42.28-.34.75-.09,1.14-.13.56,0,1.08.44,1.62.3a4.77,4.77,0,0,0-.33-1.26,2.31,2.31,0,0,1,1.11,0c1,.6,2.64-.1,3.28,1.26a19,19,0,0,0-3.33.58c.06.44.5.79.47,1.23a10.66,10.66,0,0,0-2.95-.75l-.05.15a10.24,10.24,0,0,0,5,3c2.65.61,5-.65,7.53-.21,6.28,2.87,11.63,9.45,14,15.69.11.29.22.6.33.9a30.34,30.34,0,0,1,.36,18.64,22.69,22.69,0,0,1-4,6.82,14,14,0,0,1-2.3,2.26,10.28,10.28,0,0,1-9.21,2c-.21-.13-.63-.17-.57-.54s.23-1,.33-1.49a37.06,37.06,0,0,0,.66-8.84c0-.12,0-.25,0-.38a33.84,33.84,0,0,0-2.64-12,42.27,42.27,0,0,0-3.78-6.62,15.7,15.7,0,0,0-7-5.79c-1.79-.47-4-.56-5.34.93a3.59,3.59,0,0,0-1.23,3.23,11.12,11.12,0,0,1-5,1.63c-.46,0-.92.2-1.39.2a8,8,0,0,1-1.3-.05,12.84,12.84,0,0,1-6.17-2.85c0-.9-.09-1.76-.13-2.72A3.31,3.31,0,0,1,294,141L294,141a6.93,6.93,0,0,1,1.55.75,11.59,11.59,0,0,0-1.17-3.91c-.63-.26-1.26-.47-1.86-.79a3,3,0,0,1-1.22-2c.61.6,1.68.39,2.15,1-.82-2.44-.84-5.22-2.19-7.45-.68-1.65-2.47-2.4-3.7-3.61-.47-.58-.66-1.38-1.52-1.47-.7-.17-.75-1-.87-1.47.43.05.8.35,1.17.42-1-2.7-1.91-5.7-4.66-7.41l-.47.29a30.21,30.21,0,0,1-3.28.27,4.5,4.5,0,0,1,2-1.32,4.81,4.81,0,0,0-2.37-.88,4.72,4.72,0,0,1-2.29,1l-.09-.06c0-.63-.16-1.41.78-1.56a5.37,5.37,0,0,0-3.34,0c-.27.68-1,1.29-1,2.1a15.24,15.24,0,0,1-1.49,1.72,15.88,15.88,0,0,1,.8-3.74c-.79.3-1.59.72-2.36,1.09a33,33,0,0,0-3.88-2c-.13-.05-.39-.11-.34.12,1.14.82.7,2.37.82,3.54l-.72-.59c-.35-.9-1.36-1.54-1.54-2.53a13.51,13.51,0,0,0-3.05,1l-.16.09a2.45,2.45,0,0,1,1.93,1.29,22.8,22.8,0,0,1-3.57-.54c-.13-.12-.23-.27-.43-.25a6.75,6.75,0,0,0-1.67,1.09,11.86,11.86,0,0,0-3,4.08,2.74,2.74,0,0,1,1.21.3c-.66.4-1.24,1.09-1.89,1.47a15.66,15.66,0,0,0-.25,3,12.45,12.45,0,0,0-1.52,2.31,34.21,34.21,0,0,0-1.21,11.42c-.35.33-.81.54-1.14.8l0,3.58h.08c.16-.75,1.05-1.18,1.6-1.68h.17c-.08.8-.19,1.61-.2,2.43l-1,.85c-1,.89-.16,2.24-.25,3.36.07.3.12.73.34.8a4.78,4.78,0,0,1,.75-1.14c.44-.1.82-.45,1.22-.5a17.66,17.66,0,0,1-.87,2.57,3,3,0,0,0-.54.44,1.26,1.26,0,0,0-.35.65A78.31,78.31,0,0,0,252.62,162c-1,1.63-1.51,3.55-2.32,5.23-.11.24-.22.48-.31.72-.81,2-1.05,4.31-2.05,6.27a7,7,0,0,0-1.3-.68,5.29,5.29,0,0,0-5.47,1.22,4.29,4.29,0,0,0-5,2.51,3.66,3.66,0,0,0-.27,1.66,4.06,4.06,0,0,0-1.47,2.23,6.89,6.89,0,0,0,1.38,5.32h31a10.21,10.21,0,0,1-1.2-1.95c-.66-1-.2-2.42-.28-3.57.64-1.28,1.28-2.56,2-3.8.14-.25.29-.5.44-.74l1.42-.54c.75,0,1.38-.55,2.1-.35,1,1,1-1,1.9-1.06,2.17-.28,4.32-.07,5.55,1.77,0,.25.38.25.3.48-.28.08-.55-.09-.84-.09-1.33-.34-2.9-1.18-4.21-.42-.05.31-.11.63-.18.94s-.13.67-.16,1a5.33,5.33,0,0,1,2.23,1.53,3.56,3.56,0,0,1,2.19-1.53,5.24,5.24,0,0,1,2.11.63c1.1,1,.55,2.76.45,4.05,1,.56,2.1.88,3.12,1.42a5,5,0,0,1-1.68.81l-1.68-.34c-.2-.14-.53-.14-.6-.38a8.69,8.69,0,0,0-1.59,2.15h24a12.57,12.57,0,0,0-1.13-1.94c-.49-1.05-.29-2.49-.34-3.61l2.24-3.42c1.22,0,2.61-.47,3.94-.24a1.18,1.18,0,0,0,.19-.11c.55-.38.72-1.27,1.55-1.15,1.46-.41,2.59.26,3.69.92a1.63,1.63,0,0,1-.11.23c-.46.74-1.33-.08-2,.14-.26.28.13.61.18.93.22.31-.23.28-.39.33a1.21,1.21,0,0,1-1.05-.33c-.07-.09,0-.19-.16-.21a5.57,5.57,0,0,0-.89,1.59,4.41,4.41,0,0,1,1.14,1.27c.4.58-.32,1-.46,1.52a.15.15,0,0,1-.26,0c-.37-.21-.68-.74-1.09-.6-.35,1.56.12,3.12-.09,4.68a12.77,12.77,0,0,0,2.23,0l.3-3.29a10.73,10.73,0,0,1,3.06-5.56c1.61-1.1,2.65,1.07,3.84,1.83.19,0,.12.24.21.36,0,.35-.38.49-.63.6-.74.26-1.28-.55-1.74-1-.43.47-.63,1.11-1.13,1.47l.17.06a3.78,3.78,0,0,1,1.26,2,2.22,2.22,0,0,1-1.05,1.74,18.12,18.12,0,0,1-1.17-2.53s0,0-.06.09c-1,.26-1.22,1.35-1.38,2.22.06.86-.59,1.21-.42,2.07h12.49c1.39-.21,2.86-.17,4-1.19a18.22,18.22,0,0,0,13.11-3,27.86,27.86,0,0,0,5.1-5.36,19.38,19.38,0,0,0,2.85-5.33,23.87,23.87,0,0,0,1.13-3.75A35.52,35.52,0,0,0,348,149.22Z" fill="#db812e" fill-rule="evenodd"/><path d="M267.57,181.73c.69-.43,1.79-.54,1.95-1.55a2.54,2.54,0,0,0-.84-.55l-.72.21a9,9,0,0,1,.42-1.35l2.31-.75a18,18,0,0,0-.54,3.57,12.9,12.9,0,0,0,1.38,5.19H269c-.28-1.65-2-2.84-1.47-4.77Zm5.38-2.1h.14l1.68,1.53.25-.06c-.15,1.8-.23,3.6-.25,5.4H273a22.19,22.19,0,0,1-.91-5.43A8,8,0,0,1,273,179.63Zm3.75,1.69c.33-.44.47-1.18,1.14-1.26a1.78,1.78,0,0,1,1.26.41c.62.77,0,1.76-.21,2.53a27.2,27.2,0,0,1-1.05,3.5h-1.77l.63-5.18Zm26.58-.55c.38.49.51,1.16,1.08,1.6a3.34,3.34,0,0,0,.39-2.69l-.51-.51c.65-.15,1.33-.2,2-.33a7.36,7.36,0,0,0-.72,2.86c0,1.58.29,3.15.43,4.8H304a10.64,10.64,0,0,1-1.35-4.8,4.34,4.34,0,0,1,.63-.93Z" fill="#db812e" fill-rule="evenodd"/><path d="M311.56,147.11c0,.45-.34,1-.05,1.35.43-.48,1.12-.46,1.69-.67a13.89,13.89,0,0,1,4.5.7c-.37-.58-.61-1.23-1-1.75-.81-.21-2,.35-2.17-.84-.49-.43-1.26-.13-1.77-.09a4,4,0,0,0-1.18,1.3ZM258,132l0,0v0Zm6.37,15.57,1.05-1a.25.25,0,0,1,.21.08l-.09,1.95a2.72,2.72,0,0,0,1.8.66c.06-.52.46-.89.69-1.35s.07-.91.45-1.17l.13.12a5.58,5.58,0,0,0,.38,1.74c0,.28.09.63.12.88a4.36,4.36,0,0,0,2.07-.46,7.69,7.69,0,0,1,.29-1.82c.17-.21-.19-.6.25-.58.25.53.68,1.07.93,1.63a6.77,6.77,0,0,0,1.68-3.79c-.3-.4-.75-.4-1.1-.66-3-1-6.8-1.15-9.67.33a4.46,4.46,0,0,0,.81,3.45Zm-27.85,32.88a26,26,0,0,0,.09,3.95,2,2,0,0,0,1.3,1l.08-.9c.21-1.24-.45-2.56.25-3.61a8.5,8.5,0,0,1,1.4.63,3.07,3.07,0,0,0-1.19-3.21l-1.93,2.16Zm4.33-1.89c-.68,2.05-1.19,4.57-.37,6.73a6.9,6.9,0,0,0,1.38-1.05c-.08-1.65-.31-3.4.67-4.77a3.07,3.07,0,0,1,1.77,1.89,3.23,3.23,0,0,0,.54-2.73c0-.78-.84-.6-1.26-.91.14-.65.12-1.4.81-1.77l-2.1.21A9.69,9.69,0,0,0,240.87,178.54Zm4.33,6.05c.09.16,0,.44.17.48.27-1.48,1.46-2.43,2.11-3.73.31-.43.3-1.05.8-1.38.68,0,1.18.49,1.84.54.21.16-.1.3-.12.47a17.13,17.13,0,0,0-.51,3.41h.12a17.66,17.66,0,0,0,2.25-3.16l.12-1c.16-1.19-1.14-2-2-2.45l.75-1-1.05-.37a4.76,4.76,0,0,0-3.19,1.6,14.16,14.16,0,0,0-1.31,6.55Zm4.71-10.4c.4.12.77-.21,1.17,0a10.63,10.63,0,0,1,4.51,2.55l1.43,3.67.72-2.26-.47-1.23c-.4-.87-1.51-.8-2.26-.84-.32-.35,0-.75.12-1.09.37-1.24-1.15-1.17-1.77-1.68,0-.75-.88-.49-1.38-.56l-.18-.21a.36.36,0,0,0-.51,0c0-.05-.1-.08-.06-.17l-.39.09a2.48,2.48,0,0,0-.93,1.8Zm1-4a1.1,1.1,0,0,0,.36.6c.79-.21,1.55-.76,2.46-.42a13.84,13.84,0,0,0,3.82,2.68l.5-.09c.32.1.67.12.88.47s-.3.75-.45,1.14c.79.58.47,1.61,1,2.31l1.26-1.68c-.3-.73,0-2-1.14-2.06a1.11,1.11,0,0,1-.63-1c-.75-.68-1.68-1-2.43-1.68-.62-.49-1-1.25-1.77-1.42a6.15,6.15,0,0,0-1.77-.59c-1.18-.18-1.28,1.22-2,1.76Zm1.68-3.45.21.34c.88-.06,1.66-.44,2.52-.43.58.35,1.33.34,1.93.64a6.77,6.77,0,0,0,1.68,1.82c1.42.21,2.21,1.73,2.7,2.85v-.54a3.75,3.75,0,0,0-.3-2.31c-.35-.35-.86-.58-1.23-.89a.75.75,0,0,1,.06-.55,11.85,11.85,0,0,0-2-1.35c-.93-1.35-2.71-1-4.13-1.35l-1.42,1.77Zm0-12.85c.15.54.34,1.22.45,1.8.49-1.08,1.46-1.58,2.31-2.47a4.38,4.38,0,0,0-1.64-.59v0C253.31,153,252.72,153.34,252.58,153.86Zm3.18,5.76.79-.8a5,5,0,0,0,1.56-2.77,2.27,2.27,0,0,0-1.84.09,22.6,22.6,0,0,0-.51,3.48Zm.58,2.48c1.21.06,2.39.31,3.37-.38l1-3.15c-.32,0-.64-.16-.93,0a7.79,7.79,0,0,1-3.42,3.58Zm.35-11.18a7.11,7.11,0,0,0,3.46,2.82c-.16-1.48-1.42-2.49-2.07-3.75l0-.42a6.36,6.36,0,0,0-1.65-1.09A8.29,8.29,0,0,0,256.69,150.92ZM261,162.23a6.23,6.23,0,0,0,2.79-.26c1.25-.3,1.93-1.66,2.35-2.73h-1.56l-1.68,1.64A13.11,13.11,0,0,0,261,162.23Zm-.18-12.91a10.2,10.2,0,0,0,1.63,3.79l.21-2.61-1.84-1.18Zm5.74,6.82a12.78,12.78,0,0,0-.36-2.79c-.53-.35-1.26-.31-1.81-.66,0,1.38,1.12,2.56,2.17,3.45Zm-1.59,8.9a17.65,17.65,0,0,0,3.19-1.3c.65-.93,1.62-1.77,1.77-2.85-.81.22-1.51,0-2.26.33a5.86,5.86,0,0,1-1.62,2.35C265.87,164.16,265.22,164.56,264.93,165Zm1.71,2.15,1.32,1.72a2.66,2.66,0,0,0,2.19-.24l-.48-1.56A6.19,6.19,0,0,1,266.64,167.19Zm2.19-12.4.51,2.31a4.61,4.61,0,0,0,1.44-4,5.56,5.56,0,0,1-1.95,1.68Zm3.45,4.08a1.7,1.7,0,0,0,.3.91c1.37.49,1.51,2.15,2.77,2.78a3.07,3.07,0,0,0,2.48-.42c-.53-.61-1.15-1-1.67-1.68-.37-.15-.74-.38-.72-.84l-3.16-.75Zm1.09,8.27a4.16,4.16,0,0,0,2.24,1.23c-.14-.2.09,0,.13-.13l-1.06-2.31a14,14,0,0,1-1.56.09A5.07,5.07,0,0,0,273.37,167.14Zm1.86-10.79a14.1,14.1,0,0,1-.84-3.79c-.52.64-1.06,1-1.56,1.68C272.6,155.54,274.46,155.86,275.23,156.35Zm2.13-1.2c.64.83,2,.55,2.79.3-.37-.63-1.55-1-1.76-1.68a15.46,15.46,0,0,0-.76-3.48C277,151.78,276.28,153.55,277.36,155.15Zm1.11,3.72c1.75,1.28,3.47,2.77,5.92,2.22.17-.12.47-.1.51-.33-.72-.45-1.49-.81-2.23-1.23l-.84-1.22h-.38A15.39,15.39,0,0,1,278.47,158.87Zm0,14.21h.12a9.2,9.2,0,0,1,3.54-1.47c.33.12.12.49.42.63.75-.32,1.67-.25,2.43-.51a5.37,5.37,0,0,1,2.44.45c.6.79,1.71.7,2.49,1.23l-.12-1.23c-1.63-1.91-4.17-2.05-6.52-2l-.05-.24a4.15,4.15,0,0,0-1.72.36,9.1,9.1,0,0,0-2.19.63A18.51,18.51,0,0,0,278.51,173.08Zm1.4-21.53a3,3,0,0,0,2.85,1.35,3.37,3.37,0,0,1-1.31-2c.18-1.56-1.54-1.68-2.38-2.49A10.85,10.85,0,0,0,279.91,151.55Zm-.18,24.63h.21c.93-.58,2.28-.14,3.19-.75.51-.27.55.44.89.63.86.52,1,2.1,2.17,1.73,1.46.75,1.09,2.53,1.15,3.82l1.34-.84c-.12-.68.27-1.51-.17-2.1-.33-.75-1.25-.82-1.68-1.44.52-.89-.67-1.31-.92-2l.08-.09,1.85.25a2.7,2.7,0,0,1,1.05,1.73c1.46.25,1.81,1.89,2.32,2.94.29-.71.42-1.49.72-2.19,0-.57-.76-.57-1.14-.84a3.13,3.13,0,0,0-1.3-2.27c-1.61-.41-3-1.3-4.8-1.3l-1.47.46c-.81.19-1.67-.05-2.28.5-.91.07-1,1.07-1.21,1.72Zm.93-7.22.33.16c.72-.33,1.44-.72,2.19-1,1.18-.33,2.09,1,3.07.16.37-.26.68.12,1,.33.43.77,1.4.72,2.14.93-.37-1-.82-2.37-2.1-2.52a12.79,12.79,0,0,1-1.59-.51c-1.35-1.49-2.23,1.23-3.71.56A4.07,4.07,0,0,0,280.66,169Z" fill="#fff" fill-rule="evenodd"/><path d="M281,177.49c.56.48,1.14,1.28,2,1.18,1.09.5.63,1.94,1.22,2.7l.63-.57-.05,0,.09-.09,0,0a3.38,3.38,0,0,0-.37-2.07c-.41-.28-.87,0-1.26-.24a1.8,1.8,0,0,0-.81-1.19c-.28-.22-.65.07-1,.05l-.54.21Zm2.19-21.35a9,9,0,0,0,2.6,2.22,4.17,4.17,0,0,0,2.49.24,16,16,0,0,1-2.07-2c-.25-.36-.3-.79-.63-1.11A4.87,4.87,0,0,0,283.18,156.14Zm1-6.27c.81,1,2.05.59,3.19.63v-.13l-1.75-1.47a4.63,4.63,0,0,0-1.44,1ZM251.9,133.34l1,3.16c0-1.79.81-3.28.64-5.1l.75-1.13-1.6.5A5.83,5.83,0,0,0,251.9,133.34Zm.68-5.46,1.38-.81v-2a7.22,7.22,0,0,0-1.34,1.42Z" fill="#fff" fill-rule="evenodd"/><path d="M281,131.06a1.89,1.89,0,0,1-1.26.63,6,6,0,0,0,.51-4.74,7.45,7.45,0,0,0,1.17-.42l0,0,1-.84c1.27-.87.78-2.54,1.26-3.78-.63-1-.83-2.18-1.74-3l.06,0c-.72-.92-2-.81-3-1.26-1.3-.44-2.3.45-3.23,1-.4.07-.16.59-.59.57a16.26,16.26,0,0,0-.72,2.07,7,7,0,0,0-5,.93,7.28,7.28,0,0,0-2.49-.89c-.63-.13-1.35.1-1.81-.25-.66-.75-.8-2.12-1.94-2.31-.41-.14-.49-.58-.49-1-.76-.13-1.42-.48-2.15-.63-1.13-.51-2,.3-2.86.84a6.79,6.79,0,0,0-1.14.42,16.66,16.66,0,0,0-1.63,3.06,6.32,6.32,0,0,0,1,2.44,5,5,0,0,0,2.73,2.49,10.26,10.26,0,0,0,0,5.55s0,0,0,0-.06.05-.06.05A1,1,0,0,1,258,132h0a7.73,7.73,0,0,0,2.31,4.4c.46.15.35.7.55,1.05a.84.84,0,0,1,.09.63,13.74,13.74,0,0,0-7.36,1.84c-.56.28-.32,1-.37,1.59a13.68,13.68,0,0,1,5-2.1,7.7,7.7,0,0,1,2.44,0l.09,1.51c-2.09,1.09-4.37,1.72-6.15,3.51a7.07,7.07,0,0,0,.08,1.62l1.6-1.29a19.06,19.06,0,0,1,4.92-2.82,6.36,6.36,0,0,0,1.6,1.51,11.54,11.54,0,0,1,3.45-1.51c.65-.39,1.68,0,2.11-.81l.29-1.59c-.05,0-.09-.11-.18-.09a2.41,2.41,0,0,1-1.29-2.26,2.18,2.18,0,0,1-.93.24.81.81,0,0,1-.67-.42c0-.35-.19-.87.17-1.13a6.74,6.74,0,0,1,4-.64c1.07.15,2.61.09,3,1.35-.05.37,0,.78-.39,1s-.82,0-1.17-.18a2.92,2.92,0,0,1-1.71,2.11l.12,1c.12.46.15,1.21.87,1a15.64,15.64,0,0,1,4.59,2.19,10.25,10.25,0,0,0,1.23-1.56c2.59.88,4.83,2.83,7,4.63l.08-1.47a24,24,0,0,0-6.64-4.08,9.42,9.42,0,0,0,.21-1.44,17.28,17.28,0,0,1,7.72,2.36l0-1.26a17.16,17.16,0,0,0-8-2.18.9.9,0,0,1-.13-.55,3.92,3.92,0,0,0,2.74-2.94c.72-.82,1.75-1.72,1.51-2.94,0-.11.06-.21.1-.32a1.54,1.54,0,0,0,.07-.92Z" fill="#fff" fill-rule="evenodd"/><path d="M283.43,135.57l1.44-.46.16-.8c.4-1.18-.46-2.05-.88-3l-.72,4.24Zm3.63,5.55c.68.75,1.35,2,2.56,1.6a7.32,7.32,0,0,0-.55-1.39c-.31-.37-.42-1.42-1.05-1.05-.47-.32-.59-.84-.89-1.26a12.29,12.29,0,0,0-.07,2.1Zm.24,5.14c.27.36.34.84.6,1.17a2.86,2.86,0,0,0,1.75.21c.53-.12.86.45,1.35.12-.61-.38-1-1.09-1.56-1.6s-1.42-.06-2.14.1Zm.93,8.14a6.72,6.72,0,0,0,4.36,1.17c.18-.08.48-.06.51-.27-1-.36-2.05-1.35-3.1-1.56-.57-.9-1.33.22-2.07.15,0,.21.23.37.3.51Zm3.64,15.47.27.56c.26,1.83,1.41,3.51.78,5.5.53.37.69,1,1,1.48H294a11.84,11.84,0,0,0-.09-4.63c.16-1.38-1.24-2.19-2.07-2.91Zm.3-17.94a3.94,3.94,0,0,0,3.42.42,10,10,0,0,1-1.94-1.26l-1.48.84Zm4.33,5.38a1.9,1.9,0,0,0,.93,1.72,4.22,4.22,0,0,0,.54-1.3,3.27,3.27,0,0,0-1.26-1.94,4.44,4.44,0,0,0-.21,1.52Zm.05,8c-.12.82.79.93,1.17,1.39s-.21.64-.21,1a4.73,4.73,0,0,1,1.06,3,28.61,28.61,0,0,0,.8-3.19c-.07-.77-1.29-.61-1.1-1.47a3.81,3.81,0,0,0-.3-2.53c-.07-.12-.23-.36-.37-.29-.31.72-1.1,1.22-1.05,2.1Zm2.4-4.17.91,1.77c.4-.05.67-.44,1-.72.25-.74-.4-1.21-.59-1.81-.16-.42,0-1-.3-1.34-.23-.15-.49-.37-.75-.3l-.25,2.4Zm1.17-4.66a5.17,5.17,0,0,1,1.93,1.84c.61,1.79,1.59,3.39,2.31,5.13.27,1.21.48,2.29.81,3.48.12.32.05.93.54.88.14-1.34.4-2.62.42-4a5,5,0,0,0-1.56-1.17v-.13c.08-.29.32-.65.69-.59.15-.18.63-.35.42-.66-.91-.92-.86-2.48-2.31-2.77a1.34,1.34,0,0,1-.69-1.22,4.16,4.16,0,0,0-2.56-.79ZM301,166c.89.82.58,2,.5,3.11-.13.67.71.28,1,.64.54.8.23,2,0,2.85a17.74,17.74,0,0,0,1.38-2.14c0-.3.37-.44.35-.81.16-.5-.43-.28-.68-.33s-.44-.19-.37-.47c.46-.88,0-1.93-.14-2.8s.09-1.69-.25-2.32c-.56.78-2.23,1-1.8,2.27Zm1.63-12.44c1.56,1.58,2.69,3.16,4.38,4.68,0-.68-.06-1.31-.09-2a4.66,4.66,0,0,0-1.09-1.17C304.56,154.94,303.91,153.26,302.6,153.53Zm4.07,8.34a2.58,2.58,0,0,0,.18.46,21.81,21.81,0,0,1,1.81,3.49c-.14-1.3.73-2.91-.42-3.91-.16-.42-.68-.28-1-.25l-.55.21Zm4.21,12.8c.5.23,1.12-.17,1.6-.45a1.42,1.42,0,0,1,1.14.37c.14.28,0,.54.05.8a10.85,10.85,0,0,1,3,1.3l.3-.3a2.06,2.06,0,0,0-1.09-1.72c-.37-.2-.91-.08-1.17-.42a1.76,1.76,0,0,0,.16-1,2.53,2.53,0,0,1-1.42-.46c-.3-.09-.57-.33-.81,0-.87.6-.93,1.47-1.77,1.89Zm1.23-22a3.13,3.13,0,0,0,1.26-.57c1.18-1.06,2.88-.35,4.24-.36a9.17,9.17,0,0,0-1-1.35,3.92,3.92,0,0,0-1.51-.43c-1.19-.7-2,.48-2.91,1.06a1.92,1.92,0,0,0-.12,1.65Zm0,3.6s0-.1.06-.12c.15.14,0,.48.24.55a9.9,9.9,0,0,0,1.29-.85c1.18,0,1.88-1.13,3-1.13a17.28,17.28,0,0,1,5.52,1.68,3.79,3.79,0,0,0-2.11-2.68,1.41,1.41,0,0,0-1.4.42c-1.17.74-.56-1.07-1.38-1.11a8.47,8.47,0,0,1-3.37.6c-.7.26-1.19.91-2,.84A4.51,4.51,0,0,0,312.14,156.23Zm.81,3.91c.37.39,1,.32,1.51.39l1.52-.6c0-.28-.46-.35-.35-.67.42-.47,1-.13,1.52-.33.74-.1,1.49-.84,2.23-.29,0,.08,0,.21,0,.29-.22.55.16.88.58,1.09.86.16,1.66.95,2.52.59a15.38,15.38,0,0,0-.45-2.06c-.72-.13-1.23-.72-1.89-1a1.48,1.48,0,0,1-1.05.46c-1.36-.32-3-1.16-4.33-.3-.49.6-1.37.42-2,.68a8.33,8.33,0,0,0,.27,1.72Zm.58,10.42c-.1.29-.4.78.14.92,1.12,0,2.56-.54,3.43.34.3.22.16.7.14,1l1.47,1.22a12.13,12.13,0,0,0,.43-2.19,2.46,2.46,0,0,0-.9-1.47c-1,0-1.52-1.13-2.56-1-.54-.12-1,.36-1.56.36a8,8,0,0,0-.59.81Zm.42-8.27c.22.48.49,1.25.93,1.3a5,5,0,0,1,3.69-.24c.39.07.39.5.3.78.6.35,1.32.64,1.95,1l-.18-1.05c0-1.14-1.47-1.24-1.56-2.37a7,7,0,0,0-3.73-.21c-.4.37-1,.32-1.47.42,0,.14.05.23.07.35Zm.3,5.68c.68-.19,1.12-.94,1.85-1a3.39,3.39,0,0,1,2.82,1.44c.43.27.34,1,.88,1a16.47,16.47,0,0,1,.09-2.52c-.74-1.23-2.56-.28-3.24-1.72l-1.3.09c-.93.23-.68,1.32-.8,2-.11.23-.32.4-.3.68Zm6.43,7.67c.54,1.08,1.73,1.91,1.85,3.15a5.61,5.61,0,0,0,.67-1.09c0-.34-.42-.34-.58-.63-.16-.45.09-.85.16-1.26a3.42,3.42,0,0,0-1.39-1.65l-.71,1.48Zm2.15-2.77,1.26,1.72a4.43,4.43,0,0,0,.33-3.16c-.12-.19-.34-.51-.66-.36-.47.48-.54,1.24-.93,1.8Zm-5.13-48a3.5,3.5,0,0,0,1.44.47,1.84,1.84,0,0,1,1.29-.21c.65.42,1.44-.09,2.19,0a7.83,7.83,0,0,0-2.19-1.38C319.45,123.94,318.66,124.65,317.7,124.91Zm6.85,1.64c.93.09,1.6.92,2.22,1.6a3.11,3.11,0,0,1,1.86,1.26l-.3-.93A6,6,0,0,0,327,126.1a6.78,6.78,0,0,0-2.4.45Z" fill="#fff" fill-rule="evenodd"/><path d="M259.16,118.87l.52,0c1.36.69,3.56,1,3.69,3a10.58,10.58,0,0,0-3.82,2.4c-.84-.86-2.54-.39-2.82-1.9.26-1.42.77-3.2,2.43-3.57Zm1.32,8.89c1.6-.15,3.14.08,4.79-.06a2.08,2.08,0,0,1,1,.93c0,1.89-.63,3.7-.71,5.64A2.57,2.57,0,0,0,264,136a14.28,14.28,0,0,0-1.86.88,1.86,1.86,0,0,1,.26-2c.69-1,2.46-.74,2.32-2.26.45-.74,0-1.68,0-2.45-.17-.58-.35.19-.63.17a2.23,2.23,0,0,1-1.63-.12c-.37-.39-.82-.7-.93-1.22a3,3,0,0,1-1.31-1.14l.26-.07Zm1.93,11.42c.75.11,1.54-.23,2.19.14a1.27,1.27,0,0,1-.81.42l-1.17.54C262.18,140.18,262.42,139.48,262.41,139.18Zm3.06-14.63c.76-.25,1.57-.75,2.37-.51a11,11,0,0,0-1.47,2l-2.4,0a3.38,3.38,0,0,1,1.5-1.47Zm7-.58c1-.17.95,1.12,1.86,1.17.16.21.38.4.29.72a13.53,13.53,0,0,1-1.89.24c-.79-.43-.28-1.8-1.52-1.71-.07-.11-.21-.32,0-.39a3,3,0,0,1,1.3,0Zm-.63,4.69a2.39,2.39,0,0,1,1.74-.78l4.53.08c.2.18-.17.34-.17.55-.28.26-.68.33-.93.57-.6,0-.54.72-1,1-.64.65-1.59.35-2.34.25a2.09,2.09,0,0,1-.69-.76l-.21.21c.27,1,.2,2.07.39,3.07l1.08.72c0,1.61,1.92,1.17,2.74,2.06a4.77,4.77,0,0,1-1,1.56,5.9,5.9,0,0,0-2.22-1.35c-.08-.94-1.11-1.5-1.69-2-.15-1.72-.19-3.48-.47-5.14l.21-.09Zm1.64,10.82h2.11l-.26,1.1-2.11-.89C273.2,139.51,273.39,139.46,273.51,139.48Zm3.79-19.85,1.56-.5a16.25,16.25,0,0,1,2.56,1.54,6.17,6.17,0,0,1,.24,4.14c-.47.52-1.5,0-1.89.84h-.07a7.68,7.68,0,0,0-3.75-3.87,3.24,3.24,0,0,1,1.35-2.15Z" fill="#db812e" fill-rule="evenodd"/></svg>