<svg id="Layer_1" data-name="Layer 1" xmlns="http://www.w3.org/2000/svg" viewBox="0 0 400 300"><path d="M90.25,107.63a39.09,39.09,0,0,0-28.93,12.11A40.19,40.19,0,0,0,53,133.05a46.73,46.73,0,0,0-3,16.75A49.41,49.41,0,0,0,52.9,167a39.17,39.17,0,0,0,8.31,13.42,37.84,37.84,0,0,0,12.93,8.81,43.52,43.52,0,0,0,16.73,3.12,48.26,48.26,0,0,0,19.82-4,35.42,35.42,0,0,0,14.9-13l-7.22-6.05a28.78,28.78,0,0,1-11.59,10.34A34.29,34.29,0,0,1,91,183.54c-6.24,0-11.39-1.21-15.34-3.57a31.05,31.05,0,0,1-14.37-18.74A37.53,37.53,0,0,1,60,152.61v-.33H128.1v-7a40.38,40.38,0,0,0-2.41-13.73,36.72,36.72,0,0,0-7.22-12.11,35.1,35.1,0,0,0-11.86-8.54,40.13,40.13,0,0,0-16.36-3.2Zm27.91,35.89H59.86v-.34a22.78,22.78,0,0,1,1.42-6,32.46,32.46,0,0,1,4.79-8.95,31.57,31.57,0,0,1,9.14-8.16c3.84-2.37,8.72-3.58,14.48-3.58a29.35,29.35,0,0,1,20.16,7.94,28.22,28.22,0,0,1,6.06,8.46,24.48,24.48,0,0,1,2.21,10.35v.26Zm62-35.85A40.17,40.17,0,0,0,164,110.9a39.42,39.42,0,0,0-12.71,8.88A40,40,0,0,0,143,133.1a46.47,46.47,0,0,0-3,16.74A49.09,49.09,0,0,0,142.88,167a39.1,39.1,0,0,0,8.21,13.42,37.81,37.81,0,0,0,12.93,8.8,43.24,43.24,0,0,0,16.74,3.12,48.25,48.25,0,0,0,19.82-4,35.42,35.42,0,0,0,14.9-13l-7.23-6.06a28.6,28.6,0,0,1-11.51,10.35A34.33,34.33,0,0,1,181,183.58c-6.24,0-11.4-1.21-15.35-3.58a31,31,0,0,1-14.37-18.74,36.93,36.93,0,0,1-1.32-8.61v-.33h68.17v-7a40.88,40.88,0,0,0-2.45-13.76,36.55,36.55,0,0,0-7.22-12.11,35.34,35.34,0,0,0-11.85-8.54A40.13,40.13,0,0,0,180.2,107.67Zm27.91,35.85H149.8v-.34a22.4,22.4,0,0,1,1.43-6,32.43,32.43,0,0,1,4.78-8.95,31.7,31.7,0,0,1,9.14-8.16c3.83-2.37,8.73-3.58,14.48-3.58a29.4,29.4,0,0,1,20.17,7.94,28.36,28.36,0,0,1,6,8.46,24.64,24.64,0,0,1,2.22,10.35v.26Zm99.57-35.85a46.19,46.19,0,0,0-17.08,3.12,39.05,39.05,0,0,0-13.43,8.73,41.27,41.27,0,0,0-8.72,13.42,47.9,47.9,0,0,0,0,34,40.2,40.2,0,0,0,8.72,13.5,39,39,0,0,0,13.43,8.8,47.79,47.79,0,0,0,34,0A39.51,39.51,0,0,0,346.88,167a47.9,47.9,0,0,0,0-34,39.45,39.45,0,0,0-22.23-22.23,45.19,45.19,0,0,0-17-3.12Zm0,75.91a33,33,0,0,1-13.47-2.67,31.47,31.47,0,0,1-10.3-7.18,30.66,30.66,0,0,1-6.46-10.65,39.14,39.14,0,0,1,0-26,30.57,30.57,0,0,1,6.46-10.65,31.13,31.13,0,0,1,10.27-7.23,35.22,35.22,0,0,1,26.94,0,31.49,31.49,0,0,1,10.31,7.19A30.62,30.62,0,0,1,337.89,137a39.39,39.39,0,0,1,0,26,30.57,30.57,0,0,1-6.46,10.65,31.11,31.11,0,0,1-10.31,7.18,32.84,32.84,0,0,1-13.44,2.68Zm-77.91,6.73h9.95v-44a38.62,38.62,0,0,1,1.58-11.25,25.38,25.38,0,0,1,4.89-9.18,22.73,22.73,0,0,1,8.38-6.13,29.85,29.85,0,0,1,11.66-2.21v-9.12c-11.5.27-20.49,3.76-26.77,10.46-10.3,11-9.63,27-9.63,27.12v44.31Z" fill="#1d262b"/></svg>