<svg id="Layer_1" data-name="Layer 1" xmlns="http://www.w3.org/2000/svg" viewBox="0 0 400 300"><path d="M115,123.46a.82.82,0,0,0-.73-.69c-.31,0-6.29-.12-6.29-.12s-5-4.86-5.5-5.35a2,2,0,0,0-1.84-.23l-2.51.77a17.56,17.56,0,0,0-1.21-3c-1.78-3.4-4.39-5.2-7.54-5.21h0c-.22,0-.44,0-.66,0s-.18-.22-.28-.32a6.64,6.64,0,0,0-5.25-2.13c-4.07.12-8.12,3.06-11.41,8.28a32.78,32.78,0,0,0-4.58,11.87l-8,2.49c-2.36.74-2.44.81-2.75,3-.22,1.68-6.4,49.43-6.4,49.43l51.75,9,22.43-5.58S115,123.88,115,123.46Zm-19.46-4.81-4,1.24a22,22,0,0,0-1.24-7.41C93.34,113.07,94.87,116.56,95.51,118.65Zm-6.73,2.08-8.64,2.67a20.46,20.46,0,0,1,4.37-8.46,8.56,8.56,0,0,1,2.93-2.14A19.33,19.33,0,0,1,88.78,120.73ZM83.23,110a4.16,4.16,0,0,1,2.45.64,12,12,0,0,0-3.16,2.47,23.65,23.65,0,0,0-5.36,11.24l-7.09,2.19C71.47,120,77,110.16,83.23,110Z" fill="#95bf47"/><path d="M114.24,122.77c-.31,0-6.29-.11-6.29-.11s-5-4.86-5.5-5.36a1.23,1.23,0,0,0-.7-.32v74.35l22.42-5.58S115,123.88,115,123.46A.83.83,0,0,0,114.24,122.77Z" fill="#5e8e3e"/><path d="M89.32,134.3l-2.6,9.75a14.8,14.8,0,0,0-6.35-1.1c-5.05.31-5.11,3.5-5.06,4.3.28,4.36,11.74,5.31,12.39,15.52.5,8-4.26,13.53-11.13,14a16.68,16.68,0,0,1-12.78-4.34L65.53,165s4.57,3.45,8.23,3.21a3.22,3.22,0,0,0,3.15-3.46c-.35-5.69-9.69-5.35-10.28-14.7-.5-7.86,4.66-15.82,16.06-16.54C87.08,133.19,89.32,134.3,89.32,134.3Z" fill="#fff"/><path d="M153.72,154.71c-2.58-1.4-3.91-2.58-3.91-4.2,0-2.06,1.85-3.39,4.72-3.39a16.86,16.86,0,0,1,6.34,1.4l2.35-7.22s-2.16-1.69-8.54-1.69c-8.88,0-15,5.08-15,12.23,0,4,2.87,7.14,6.7,9.35,3.1,1.77,4.2,3,4.2,4.87s-1.54,3.46-4.42,3.46a19.83,19.83,0,0,1-8.32-2.21l-2.51,7.22a19.23,19.23,0,0,0,10,2.5c9.14,0,15.7-4.49,15.7-12.6C161,160.09,157.7,157,153.72,154.71Z"/><path d="M190.12,139.53c-4.5,0-8,2.14-10.76,5.38l-.15-.07,3.91-20.41H173l-9.87,51.94h10.17l3.39-17.75c1.32-6.71,4.78-10.83,8-10.83,2.28,0,3.17,1.54,3.17,3.76a22.79,22.79,0,0,1-.45,4.49l-3.83,20.33h10.17l4-21a38.25,38.25,0,0,0,.74-6.64C198.44,143,195.42,139.53,190.12,139.53Z"/><path d="M221.43,139.53c-12.23,0-20.33,11.06-20.33,23.36,0,7.88,4.86,14.22,14,14.22,12,0,20.11-10.76,20.11-23.36C235.21,146.46,230.94,139.53,221.43,139.53Zm-5,29.77c-3.46,0-4.94-3-4.94-6.63,0-5.82,3-15.32,8.55-15.32,3.61,0,4.79,3.09,4.79,6.11C224.82,159.72,221.8,169.3,216.42,169.3Z"/><path d="M261.22,139.53c-6.87,0-10.76,6.05-10.76,6.05h-.15l.59-5.46h-9c-.45,3.69-1.26,9.29-2.07,13.49l-7.07,37.2H243l2.8-15H246a11.79,11.79,0,0,0,6,1.33c11.93,0,19.74-12.23,19.74-24.61C271.68,145.65,268.66,139.53,261.22,139.53Zm-9.73,29.92a6.44,6.44,0,0,1-4.2-1.48l1.7-9.5c1.18-6.34,4.49-10.54,8-10.54,3.09,0,4.05,2.88,4.05,5.6C261.07,160.09,257.17,169.45,251.49,169.45Z"/><path d="M286.2,125a5.79,5.79,0,0,0-5.82,5.89c0,3,1.91,5.08,4.78,5.08h.15a5.74,5.74,0,0,0,6-5.89A4.83,4.83,0,0,0,286.2,125Z"/><path d="M272,176.37h10.16l6.93-36H278.83Z"/><path d="M314.93,140.27h-7.07l.36-1.69c.59-3.47,2.66-6.56,6-6.56a10.69,10.69,0,0,1,3.24.51l2-8a13.36,13.36,0,0,0-5.53-.89,15.15,15.15,0,0,0-10,3.39c-3.46,3-5.08,7.22-5.89,11.5l-.29,1.69h-4.72l-1.47,7.67h4.71L291,176.37h10.16l5.38-28.43h7Z"/><path d="M339.39,140.35s-6.35,16-9.21,24.75H330c-.19-2.81-2.5-24.75-2.5-24.75H316.84L323,173.43a2.12,2.12,0,0,1-.22,1.69,17.44,17.44,0,0,1-5.53,6.12,22,22,0,0,1-5.74,2.87l2.8,8.62a23.21,23.21,0,0,0,9.94-5.53c4.65-4.34,8.92-11,13.34-20.18L350,140.34H339.39Z"/></svg>