<svg id="Layer_1" data-name="Layer 1" xmlns="http://www.w3.org/2000/svg" viewBox="0 0 400 300"><path id="Icon" d="M247.32,173.31h0c-12.38,8.77-27,18-42.86,27.63l-.62.36a.49.49,0,0,0-.12.66.47.47,0,0,0,.65.12h0l.53-.27c13.37-7,28.74-15.27,44.21-23.78l.25-.13A19.22,19.22,0,0,1,247.32,173.31Zm81.25-65.78C309.06,86,183.5,105.37,130.1,117l-1.24.27a.47.47,0,0,0-.39.54.48.48,0,0,0,.55.39h0l1.23-.24c44.24-7.88,136.23-18.8,156,.86,6,6,4.6,13.71-2.4,22.8a18,18,0,0,1,7.67,11C318.9,134.47,337.26,117.13,328.57,107.53Z" fill="#d03027"/><g id="Wordmark"><path d="M255.21,167.66c.26,7.58,5,13.78,11.3,13.78,12.11,0,17.26-14.88,16.9-24.81-.26-7.59-5.14-13.78-11.41-13.78C261.58,142.85,254.86,157.66,255.21,167.66Zm-6.39-.4c-.46-12.93,9.67-26.14,24.38-26.14,9.83,0,16.29,6.55,16.63,16.59.47,13.63-9,26.14-24.38,26.14-9.84,0-16.27-6.54-16.59-16.59Z" fill="#004977"/><path d="M109.49,163.84a14.12,14.12,0,0,1-2,.57c-.83.19-2.37.46-4.6.82a8,8,0,0,0-3.2,1,2.4,2.4,0,0,0-1,1.57,1.51,1.51,0,0,0,.67,1.61,5.38,5.38,0,0,0,3,.63,10.57,10.57,0,0,0,3.06-.48,7.77,7.77,0,0,0,2.49-1.33,3.93,3.93,0,0,0,1.07-1.57A19.28,19.28,0,0,0,109.49,163.84Zm12.78-8a30.45,30.45,0,0,1-.57,4l-2.16,12.15a2.24,2.24,0,0,0,1.22,2.5l-.07.47H108.3l-.11-3.09a24.76,24.76,0,0,1-6,2.58,22,22,0,0,1-5.94.72c-4,0-6.29-.42-7.87-1.8s-2.39-2.38-2.31-4.35a6.65,6.65,0,0,1,1.5-3.6,9.22,9.22,0,0,1,3.3-2.31,17.88,17.88,0,0,1,5-1.39c2.2-.35,5.25-.71,9.34-1.05a13.59,13.59,0,0,0,4.07-.92c.85-.33,1.18-.7,1.31-1.39.22-1.25-.17-2-1.83-2.29-4.46-.86-12.85.56-17.14,1.64L94,151.48a114.16,114.16,0,0,1,16.62-1.36C119.51,150.08,122.37,152.58,122.27,155.89Z" fill="#004977"/><path d="M158.18,175.05l4.28-24.26h11.86L170,175.05Zm5-29.88c.36-2,3.5-3.61,7-3.61s6.09,1.62,5.75,3.61-3.51,3.62-7,3.62S162.78,147.17,163.15,145.17Z" fill="#004977"/><path d="M216.45,163.9a20.34,20.34,0,0,1-2,.57c-.84.2-2.37.44-4.62.81a7.75,7.75,0,0,0-3.18,1,2.45,2.45,0,0,0-1,1.56,1.51,1.51,0,0,0,.67,1.61,5.37,5.37,0,0,0,3,.61,10.47,10.47,0,0,0,3-.46,7.44,7.44,0,0,0,2.5-1.33,4,4,0,0,0,1.06-1.58A20.43,20.43,0,0,0,216.45,163.9Zm12.78-8a29,29,0,0,1-.58,4l-2.15,12.17a2.28,2.28,0,0,0,1.21,2.51l-.08.41H215.25l-.09-3.1a24.5,24.5,0,0,1-6,2.58,21.39,21.39,0,0,1-6,.72c-4,0-6.27-.4-7.86-1.8s-2.39-2.37-2.3-4.33a6.42,6.42,0,0,1,1.49-3.61,8.93,8.93,0,0,1,3.31-2.31,18.47,18.47,0,0,1,4.94-1.4c2.2-.35,5.26-.71,9.35-1.06a14,14,0,0,0,4.05-.85c.86-.34,1.2-.72,1.33-1.41.22-1.23-.17-2-1.82-2.29-4.48-.86-12.86.57-17.14,1.64l2.33-6.32a112.92,112.92,0,0,1,16.63-1.36C226.46,150.12,229.31,152.68,229.23,155.94Z" fill="#004977"/><path d="M84.5,166.3a43.51,43.51,0,0,1-9.85,1c-5.66,0-10.16-2.81-9.92-8C64.91,156,69,148.71,79.3,148.71a16.89,16.89,0,0,1,9.21,2.52L90,142.8a28.59,28.59,0,0,0-11.72-1.94c-13.54.14-26.57,6.31-28.17,18.86-1.64,12.72,13.9,15.93,20.8,15.9a118.63,118.63,0,0,0,12-.58Z" fill="#004977"/><path d="M180.87,150.66l.86-4.95,12.4-2.7-1.32,7.65h6.08l-1.16,4.88h-5.88l-3.59,19.51s-11.94-.08-12,0l3.57-19.47h-4.51l.92-4.91Z" fill="#004977"/><polygon points="241.28 175.03 229.19 175.05 235.27 141.2 247.03 141.54 241.28 175.03" fill="#004977"/><path d="M142.49,156.48a6.89,6.89,0,0,0-4.21,1.41,6.35,6.35,0,0,0-2.34,4.16c-.37,2.11-.16,3.63.68,4.57a4.7,4.7,0,0,0,3.67,1.4,7.12,7.12,0,0,0,3-.6,6,6,0,0,0,2.32-2,8.1,8.1,0,0,0,1.3-3.19q.49-2.88-.85-4.29A4.59,4.59,0,0,0,142.49,156.48Zm-21.59,27,5.77-32.51h10.41l-.8,4.15a10,10,0,0,1,4.34-3.09,17.84,17.84,0,0,1,6.72-1.43c2.72,0,4.4.15,6.43,1.2a8.58,8.58,0,0,1,4.21,4.6,11.93,11.93,0,0,1,.51,6.61,14.29,14.29,0,0,1-5.86,9.49c-3.18,2.32-6,2.93-10.12,2.95a15.55,15.55,0,0,1-3.66-.4,8.53,8.53,0,0,1-2.37-.95,11.19,11.19,0,0,1-1.94-1.76l-1.95,11.14Z" fill="#004977"/><path d="M336.19,159.44c-.07-1.95-1-3.27-3.07-3.27-4.86,0-10,9.53-10.92,13.37C330.17,169.56,336.39,164.81,336.19,159.44Zm1.05,14.93.93.64c-2.36,4.83-7.21,8.71-12.85,8.71-4.64,0-8.45-3.08-8.65-8.88-.37-10.4,9.37-20.06,17.34-20.06,3.43,0,6.6,1.49,6.74,5.14.29,8.27-11.31,10.8-19,11a9.54,9.54,0,0,0-.3,3.05c.13,3.43,2.21,6.32,6.5,6.32,3.68.05,7.38-2.93,9.26-5.87Z" fill="#004977"/><path d="M289.66,159.18c.86-.11,2.15-.25,2.72-.25.86,0,1.72.17,1.72,1,0,.51-.91,4.2-1.11,5l-1.83,8.16c-.75,3.33-1.56,6.85-2.27,9.59h4.75l2.67-12.92c8.15-8.49,11.29-11.26,13.21-11.26a1.39,1.39,0,0,1,1.51,1.26v.23a26.64,26.64,0,0,1-1.2,5.86l-2.73,9.43a19.42,19.42,0,0,0-1,5.39,2.85,2.85,0,0,0,3.19,3c3.47,0,6-3.61,8.21-7.17l-.66-1.17c-.85,1.43-2.94,4.55-4.57,4.55-.52,0-1-.34-1-1.2a14,14,0,0,1,.73-3.84l3-11a27.36,27.36,0,0,0,1.18-6,2.84,2.84,0,0,0-2.62-3,2.9,2.9,0,0,0-.51,0c-3.12,0-7.27,2.28-16.06,12.4h-.11l1.1-4.94c.6-2.69,1.2-5.51,1.76-7.46a77.83,77.83,0,0,1-10.09,2.84Z" fill="#004977"/></g><path id="Trademark" d="M341.43,150.4a4.29,4.29,0,1,1,4.28,4.28,4.2,4.2,0,0,1-4.28-4.11Zm4.28,3.54a3.52,3.52,0,1,0-3.42-3.62v.08a3.42,3.42,0,0,0,3.31,3.54Zm-.85-1.09h-.76V148H346c1.16,0,1.72.42,1.72,1.38a1.28,1.28,0,0,1-1.21,1.35h-.06l1.39,2.14h-.86l-1.29-2.12h-.85Zm.85-2.73c.65,0,1.2-.06,1.2-.81,0-.6-.54-.71-1.07-.71h-1v1.52Z" fill="#004977"/></svg>