<svg id="Layer_1" data-name="Layer 1" xmlns="http://www.w3.org/2000/svg" xmlns:xlink="http://www.w3.org/1999/xlink" viewBox="0 0 400 300"><defs><clipPath id="clip-path"><rect x="110" y="60" width="180" height="180" fill="none"/></clipPath><linearGradient id="linear-gradient" x1="228.16" y1="1113.68" x2="228.16" y2="934.32" gradientTransform="matrix(1, 0, 0, -1, -28, 1174)" gradientUnits="userSpaceOnUse"><stop offset="0" stop-color="#05dbe4"/><stop offset="0.47" stop-color="#05b5e7"/><stop offset="0.56" stop-color="#0063ca"/><stop offset="0.63" stop-color="#006dd8"/><stop offset="0.74" stop-color="#0280db"/><stop offset="1" stop-color="#36ccfc"/></linearGradient><linearGradient id="linear-gradient-2" x1="138.32" y1="1023.84" x2="318" y2="1023.84" gradientTransform="matrix(1, 0, 0, -1, -28, 1174)" gradientUnits="userSpaceOnUse"><stop offset="0" stop-color="#05abef" stop-opacity="0"/><stop offset="0.25" stop-color="#01aee1"/><stop offset="0.5" stop-color="#03a9da"/><stop offset="0.75" stop-color="#03aee1"/><stop offset="1" stop-color="#05abef" stop-opacity="0"/></linearGradient><linearGradient id="linear-gradient-3" x1="251.17" y1="992" x2="251.17" y2="980.65" gradientTransform="matrix(1, 0, 0, -1, -28, 1174)" gradientUnits="userSpaceOnUse"><stop offset="0" stop-color="#077cda"/><stop offset="0.05" stop-color="#067ddb"/><stop offset="0.1" stop-color="#067fdc"/><stop offset="0.15" stop-color="#0681de"/><stop offset="0.2" stop-color="#0683df"/><stop offset="0.25" stop-color="#0684e0"/><stop offset="0.3" stop-color="#0686e1"/><stop offset="0.35" stop-color="#0687e2"/><stop offset="0.4" stop-color="#0688e3"/><stop offset="0.45" stop-color="#068ae4"/><stop offset="0.5" stop-color="#068be5"/><stop offset="0.55" stop-color="#068ce6"/><stop offset="0.6" stop-color="#068de7"/><stop offset="0.65" stop-color="#068ee7"/><stop offset="0.7" stop-color="#058ee8"/><stop offset="0.75" stop-color="#058fe8"/><stop offset="0.8" stop-color="#058fe9"/><stop offset="0.85" stop-color="#0590e9"/><stop offset="0.9" stop-color="#0590e9"/><stop offset="0.95" stop-color="#0590e9"/><stop offset="1" stop-color="#0591ea"/></linearGradient><linearGradient id="linear-gradient-4" x1="249.21" y1="997.33" x2="253.13" y2="975.33" gradientTransform="matrix(1, 0, 0, -1, -28, 1174)" gradientUnits="userSpaceOnUse"><stop offset="0" stop-color="#0280db" stop-opacity="0"/><stop offset="0.28" stop-color="#0280db" stop-opacity="0"/><stop offset="0.77" stop-color="#03a2e9"/><stop offset="1" stop-color="#03a2e9"/></linearGradient><linearGradient id="linear-gradient-5" x1="228" y1="944.72" x2="228" y2="1103.28" gradientTransform="matrix(1, 0, 0, -1, -28, 1174)" gradientUnits="userSpaceOnUse"><stop offset="0" stop-color="#63cef3"/><stop offset="0.28" stop-color="#3da9e9"/><stop offset="0.39" stop-color="#3385d0"/><stop offset="0.52" stop-color="#33a6e0"/><stop offset="0.65" stop-color="#43c0e6"/><stop offset="0.95" stop-color="#2ed9e5"/><stop offset="1" stop-color="#11616e"/></linearGradient><linearGradient id="linear-gradient-6" x1="252.43" y1="1067.35" x2="252.43" y2="1005.24" gradientTransform="matrix(1, 0, 0, -1, -28, 1174)" gradientUnits="userSpaceOnUse"><stop offset="0" stop-color="#05c1e7"/><stop offset="0.63" stop-color="#05b5e7"/><stop offset="0.87" stop-color="#0075d3"/><stop offset="1" stop-color="#0173d6"/></linearGradient><linearGradient id="linear-gradient-7" x1="236.69" y1="1073.43" x2="264.34" y2="997.45" gradientTransform="matrix(1, 0, 0, -1, -28, 1174)" gradientUnits="userSpaceOnUse"><stop offset="0" stop-color="#36bedc"/><stop offset="0.1" stop-color="#36bedc" stop-opacity="0.87"/><stop offset="0.36" stop-color="#36bedc" stop-opacity="0.16"/><stop offset="0.6" stop-color="#0173d6" stop-opacity="0"/><stop offset="1" stop-color="#0173d6" stop-opacity="0"/></linearGradient><linearGradient id="linear-gradient-8" x1="252.43" y1="1005.24" x2="252.43" y2="1067.35" gradientTransform="matrix(1, 0, 0, -1, -28, 1174)" gradientUnits="userSpaceOnUse"><stop offset="0" stop-color="#479de8"/><stop offset="0.48" stop-color="#51cff0"/><stop offset="0.87" stop-color="#8ef3f7"/><stop offset="1" stop-color="#7bdbf2"/></linearGradient><linearGradient id="linear-gradient-9" x1="265.36" y1="1004.93" x2="265.36" y2="1056.94" gradientTransform="matrix(1, 0, 0, -1, -28, 1174)" gradientUnits="userSpaceOnUse"><stop offset="0" stop-color="#004883"/><stop offset="0.5" stop-color="#004d6f"/><stop offset="1" stop-color="#004c64"/></linearGradient><linearGradient id="linear-gradient-10" x1="258.26" y1="1005.24" x2="258.26" y2="1056.94" gradientTransform="matrix(1, 0, 0, -1, -28, 1174)" gradientUnits="userSpaceOnUse"><stop offset="0" stop-color="#54b5f3"/><stop offset="0.21" stop-color="#54b5f3"/><stop offset="0.58" stop-color="#5ed3f8"/><stop offset="1" stop-color="#65e9ff"/></linearGradient><linearGradient id="linear-gradient-11" x1="1492.24" y1="-181.56" x2="1543.94" y2="-181.56" gradientTransform="translate(400 1661) rotate(-90)" gradientUnits="userSpaceOnUse"><stop offset="0" stop-color="#044a85"/><stop offset="0.21" stop-color="#044a85"/><stop offset="1" stop-color="#006173"/></linearGradient><linearGradient id="linear-gradient-12" x1="232.26" y1="1005.24" x2="232.26" y2="1056.94" xlink:href="#linear-gradient-10"/><linearGradient id="linear-gradient-13" x1="220.43" y1="1005.24" x2="220.43" y2="1067.35" gradientTransform="matrix(1, 0, 0, -1, -28, 1174)" gradientUnits="userSpaceOnUse"><stop offset="0" stop-color="#0c3a71"/><stop offset="0.01" stop-color="#0c3b71"/><stop offset="0.03" stop-color="#0c3d72"/><stop offset="0.04" stop-color="#0d3f73"/><stop offset="0.06" stop-color="#0d4174"/><stop offset="0.07" stop-color="#0d4375"/><stop offset="0.09" stop-color="#0e4476"/><stop offset="0.1" stop-color="#0e4677"/><stop offset="0.12" stop-color="#0e4877"/><stop offset="0.13" stop-color="#0f4a78"/><stop offset="0.15" stop-color="#0f4b79"/><stop offset="0.16" stop-color="#0f4d7a"/><stop offset="0.18" stop-color="#104f7b"/><stop offset="0.19" stop-color="#10507b"/><stop offset="0.21" stop-color="#10527c"/><stop offset="0.22" stop-color="#11537d"/><stop offset="0.24" stop-color="#11557e"/><stop offset="0.25" stop-color="#11567e"/><stop offset="0.26" stop-color="#12587f"/><stop offset="0.28" stop-color="#125980"/><stop offset="0.29" stop-color="#125b80"/><stop offset="0.31" stop-color="#125c81"/><stop offset="0.32" stop-color="#135d82"/><stop offset="0.34" stop-color="#135f82"/><stop offset="0.35" stop-color="#136083"/><stop offset="0.37" stop-color="#146184"/><stop offset="0.38" stop-color="#146384"/><stop offset="0.4" stop-color="#146485"/><stop offset="0.41" stop-color="#146585"/><stop offset="0.43" stop-color="#156686" stop-opacity="0.99"/><stop offset="0.44" stop-color="#156786" stop-opacity="0.99"/><stop offset="0.46" stop-color="#156887" stop-opacity="0.99"/><stop offset="0.47" stop-color="#156a87" stop-opacity="0.99"/><stop offset="0.49" stop-color="#156b88" stop-opacity="0.99"/><stop offset="0.5" stop-color="#166c89" stop-opacity="0.99"/><stop offset="0.51" stop-color="#166d89" stop-opacity="0.99"/><stop offset="0.53" stop-color="#166e89" stop-opacity="0.99"/><stop offset="0.54" stop-color="#166f8a" stop-opacity="0.99"/><stop offset="0.56" stop-color="#16708a" stop-opacity="0.99"/><stop offset="0.57" stop-color="#17718b" stop-opacity="0.99"/><stop offset="0.59" stop-color="#17718b" stop-opacity="0.99"/><stop offset="0.6" stop-color="#17728c" stop-opacity="0.99"/><stop offset="0.62" stop-color="#17738c" stop-opacity="0.99"/><stop offset="0.63" stop-color="#17748c" stop-opacity="0.99"/><stop offset="0.65" stop-color="#18758d" stop-opacity="0.99"/><stop offset="0.66" stop-color="#18758d" stop-opacity="0.99"/><stop offset="0.68" stop-color="#18768e" stop-opacity="0.99"/><stop offset="0.69" stop-color="#18778e" stop-opacity="0.99"/><stop offset="0.71" stop-color="#18788e" stop-opacity="0.99"/><stop offset="0.72" stop-color="#18788e" stop-opacity="0.99"/><stop offset="0.74" stop-color="#18798f" stop-opacity="0.99"/><stop offset="0.75" stop-color="#18798f" stop-opacity="0.99"/><stop offset="0.76" stop-color="#197a8f" stop-opacity="0.99"/><stop offset="0.78" stop-color="#197a90" stop-opacity="0.99"/><stop offset="0.79" stop-color="#197b90" stop-opacity="0.99"/><stop offset="0.81" stop-color="#197b90" stop-opacity="0.99"/><stop offset="0.82" stop-color="#197c90" stop-opacity="0.99"/><stop offset="0.84" stop-color="#197c90" stop-opacity="0.99"/><stop offset="0.85" stop-color="#197d91" stop-opacity="0.99"/><stop offset="0.87" stop-color="#197d91" stop-opacity="0.99"/><stop offset="0.88" stop-color="#197d91" stop-opacity="0.99"/><stop offset="0.9" stop-color="#197e91" stop-opacity="0.99"/><stop offset="0.91" stop-color="#197e91" stop-opacity="0.99"/><stop offset="0.93" stop-color="#197e91" stop-opacity="0.99"/><stop offset="0.94" stop-color="#197e91" stop-opacity="0.99"/><stop offset="0.96" stop-color="#197e91" stop-opacity="0.99"/><stop offset="0.97" stop-color="#197e91" stop-opacity="0.99"/><stop offset="0.99" stop-color="#197e91" stop-opacity="0.99"/><stop offset="1" stop-color="#1a7f92" stop-opacity="0.99"/></linearGradient><linearGradient id="linear-gradient-14" x1="228" y1="934.32" x2="228" y2="1113.68" gradientTransform="matrix(1, 0, 0, -1, -28, 1174)" gradientUnits="userSpaceOnUse"><stop offset="0" stop-color="#005483"/><stop offset="0.19" stop-color="#012c60"/><stop offset="0.36" stop-color="#011c4f"/><stop offset="0.67" stop-color="#067596"/><stop offset="0.88" stop-color="#2b91b0"/><stop offset="1" stop-color="#65c8e9"/></linearGradient><linearGradient id="linear-gradient-15" x1="191.27" y1="1067.35" x2="191.27" y2="980.34" gradientTransform="matrix(1, 0, 0, -1, -28, 1174)" gradientUnits="userSpaceOnUse"><stop offset="0" stop-color="#05c1e7"/><stop offset="0.44" stop-color="#05b5e7"/><stop offset="0.64" stop-color="#0176d6"/><stop offset="0.92" stop-color="#00aaef"/><stop offset="1" stop-color="#00aaef"/></linearGradient><linearGradient id="linear-gradient-16" x1="188.75" y1="991.06" x2="188.75" y2="1006.19" gradientTransform="matrix(1, 0, 0, -1, -28, 1174)" gradientUnits="userSpaceOnUse"><stop offset="0" stop-color="#55c9ff"/><stop offset="0.03" stop-color="#55c9ff"/><stop offset="0.16" stop-color="#1687c2"/><stop offset="0.39" stop-color="#094071"/><stop offset="1" stop-color="#03498b"/></linearGradient><linearGradient id="linear-gradient-17" x1="191.27" y1="1004.93" x2="191.27" y2="1067.35" gradientTransform="matrix(1, 0, 0, -1, -28, 1174)" gradientUnits="userSpaceOnUse"><stop offset="0" stop-color="#003678"/><stop offset="0.18" stop-color="#01417b"/><stop offset="0.29" stop-color="#035c83"/><stop offset="0.48" stop-color="#046f88"/><stop offset="0.85" stop-color="#1f89a1"/><stop offset="0.95" stop-color="#48b1c7"/><stop offset="1" stop-color="#84ebff"/></linearGradient><linearGradient id="linear-gradient-18" x1="194.9" y1="980.65" x2="194.9" y2="1067.35" gradientTransform="matrix(1, 0, 0, -1, -28, 1174)" gradientUnits="userSpaceOnUse"><stop offset="0" stop-color="#005573"/><stop offset="0.07" stop-color="#085a91"/><stop offset="0.21" stop-color="#1f89cb"/><stop offset="0.48" stop-color="#5aabe9"/><stop offset="1" stop-color="#59d5f0"/></linearGradient><linearGradient id="linear-gradient-19" x1="191.12" y1="1015.33" x2="191.12" y2="1056.94" gradientTransform="matrix(1, 0, 0, -1, -28, 1174)" gradientUnits="userSpaceOnUse"><stop offset="0" stop-color="#72baf3"/><stop offset="0.05" stop-color="#9ecfe7"/><stop offset="0.13" stop-color="#5fadde"/><stop offset="0.19" stop-color="#54acdf"/><stop offset="0.87" stop-color="#50e2f3"/><stop offset="1" stop-color="#016a78"/></linearGradient><linearGradient id="linear-gradient-20" x1="231.35" y1="1534.79" x2="190.06" y2="1534.79" gradientTransform="translate(1705 -73) rotate(90)" gradientUnits="userSpaceOnUse"><stop offset="0" stop-color="#00538e"/><stop offset="0.03" stop-color="#00548d"/><stop offset="0.07" stop-color="#00568d"/><stop offset="0.1" stop-color="#01588d"/><stop offset="0.13" stop-color="#015a8d"/><stop offset="0.17" stop-color="#025b8d"/><stop offset="0.2" stop-color="#025d8d"/><stop offset="0.23" stop-color="#025f8d"/><stop offset="0.27" stop-color="#03608c"/><stop offset="0.3" stop-color="#03628c"/><stop offset="0.33" stop-color="#03638c"/><stop offset="0.37" stop-color="#04648b"/><stop offset="0.4" stop-color="#04668b"/><stop offset="0.43" stop-color="#04678a"/><stop offset="0.47" stop-color="#04688a"/><stop offset="0.5" stop-color="#056989"/><stop offset="0.53" stop-color="#056a89"/><stop offset="0.57" stop-color="#056b88"/><stop offset="0.6" stop-color="#056c88"/><stop offset="0.63" stop-color="#056d87"/><stop offset="0.67" stop-color="#066e86"/><stop offset="0.7" stop-color="#066e86"/><stop offset="0.73" stop-color="#066f85"/><stop offset="0.77" stop-color="#066f84"/><stop offset="0.8" stop-color="#067084"/><stop offset="0.83" stop-color="#067083"/><stop offset="0.87" stop-color="#067182"/><stop offset="0.9" stop-color="#067181"/><stop offset="0.93" stop-color="#067180"/><stop offset="0.97" stop-color="#06717f"/><stop offset="1" stop-color="#07727f"/></linearGradient><linearGradient id="linear-gradient-21" x1="148.72" y1="1024" x2="307.28" y2="1024" gradientTransform="matrix(1, 0, 0, -1, -28, 1174)" gradientUnits="userSpaceOnUse"><stop offset="0" stop-color="#11616e" stop-opacity="0"/><stop offset="0.97" stop-color="#11616e" stop-opacity="0"/><stop offset="1" stop-color="#11616e"/></linearGradient><linearGradient id="linear-gradient-22" x1="138.32" y1="1024" x2="317.68" y2="1024" gradientTransform="matrix(1, 0, 0, -1, -28, 1174)" gradientUnits="userSpaceOnUse"><stop offset="0" stop-color="#57cfee" stop-opacity="0"/><stop offset="0.95" stop-color="#57cfee" stop-opacity="0"/><stop offset="1" stop-color="#57cfee"/></linearGradient><linearGradient id="linear-gradient-23" x1="228.16" y1="934" x2="228.16" y2="1113.68" gradientTransform="matrix(1, 0, 0, -1, -28, 1174)" gradientUnits="userSpaceOnUse"><stop offset="0" stop-color="#0071d5" stop-opacity="0"/><stop offset="0.09" stop-color="#0071d5" stop-opacity="0"/><stop offset="0.43" stop-color="#0071d5" stop-opacity="0.79"/><stop offset="0.58" stop-color="#3596df" stop-opacity="0"/><stop offset="0.87" stop-color="#4da6e4" stop-opacity="0"/><stop offset="0.93" stop-color="#ade7f7"/><stop offset="0.99" stop-color="#ade7f7" stop-opacity="0"/><stop offset="1" stop-color="#ade7f7" stop-opacity="0"/></linearGradient></defs><g clip-path="url(#clip-path)"><path d="M133.5,60.32H266.81A23.16,23.16,0,0,1,290,83.46V216.54a23.16,23.16,0,0,1-23.19,23.14H133.5a23.16,23.16,0,0,1-23.18-23.14V83.46A23.16,23.16,0,0,1,133.5,60.32Zm0,11.57a11.58,11.58,0,0,0-11.59,11.57V216.54a11.58,11.58,0,0,0,11.59,11.57H266.81a11.58,11.58,0,0,0,11.6-11.57V83.46a11.58,11.58,0,0,0-11.6-11.57Z" fill-rule="evenodd" fill="url(#linear-gradient)"/><path d="M133.23,71.83A11.17,11.17,0,0,0,122.06,83V217.32a11.17,11.17,0,0,0,11.17,11.17H267.09a11.17,11.17,0,0,0,11.17-11.17V83a11.17,11.17,0,0,0-11.17-11.17Zm-.15-11.51H267.24A22.76,22.76,0,0,1,290,83.08V217.24A22.76,22.76,0,0,1,267.24,240H133.08a22.76,22.76,0,0,1-22.76-22.76V83.08A22.76,22.76,0,0,1,133.08,60.32Z" fill-rule="evenodd" fill="url(#linear-gradient-2)"/><path d="M191.33,182H255v11.35H191.33Z" fill-rule="evenodd" fill="url(#linear-gradient-3)"/><rect x="191.33" y="182" width="63.68" height="11.35" fill="url(#linear-gradient-4)"/><path d="M191.33,182l.95.94h61.78L255,182Z" fill="#6fbcf7" fill-rule="evenodd"/><path d="M255,193.35l-1.26-1.26v-8.84L255,182Z" fill="#56c2fa" fill-rule="evenodd"/><path d="M191.33,193.35l1-.95h61.76l1,.95Z" fill="#003971" fill-rule="evenodd"/><path d="M191.33,193.66l1.26-1.25v-9.16L191.33,182Z" fill="#00396d" fill-rule="evenodd"/><path d="M133.14,71.91a11.22,11.22,0,0,0-11.23,11.22V216.85a11.23,11.23,0,0,0,11.23,11.22H266.73A11.23,11.23,0,0,0,278,216.85V83.13a11.22,11.22,0,0,0-11.23-11.22Zm-.07-1.19H266.93a12.34,12.34,0,0,1,12.35,12.34V216.94a12.34,12.34,0,0,1-12.35,12.34H133.07a12.34,12.34,0,0,1-12.35-12.34V83.06A12.34,12.34,0,0,1,133.07,70.72Z" fill-rule="evenodd" fill="url(#linear-gradient-5)"/><path d="M192,106.65h50.51A14.44,14.44,0,0,1,256.9,121.1v47.66h-13V122.54a4.33,4.33,0,0,0-4.33-4.33h-8.66v50.55h-13V118.21H205v50.55H192Z" fill-rule="evenodd" fill="url(#linear-gradient-6)"/><path d="M192,106.65h50.51a14.47,14.47,0,0,1,14.43,14.52v47.9h-13V122.62a4.34,4.34,0,0,0-4.33-4.35h-8.66v50.8h-13v-50.8H205v50.8H192Z" fill-rule="evenodd" fill="url(#linear-gradient-7)"/><path d="M192,106.65H243a15.55,15.55,0,0,1,9.76,4.25,15,15,0,0,1,4.09,9.23c0,16.21,0,32.42,0,48.63l-1.19-1.21-.05-46.42a12.67,12.67,0,0,0-3.68-9.42,13.57,13.57,0,0,0-9.07-3.87H193.16Z" fill-rule="evenodd" fill="url(#linear-gradient-8)"/><path d="M217.81,168.76l1-.95h11l1,.95Z" fill="#00305b" fill-rule="evenodd"/><path d="M244,169.07l1.27-1.26h10.37l1.28,1.26Z" fill="#00305b" fill-rule="evenodd"/><path d="M191.65,168.76l.95-.95h11.33l1,.95Z" fill="#00245b" fill-rule="evenodd"/><path d="M203.63,117.06l1.27,1.26h12.9l1.27-1.26Z" fill="#005669" fill-rule="evenodd"/><path d="M229.47,117.09l10.41,0a5.54,5.54,0,0,1,5.36,5.26v45.51L244,169.07q0-23.49.08-47a4.74,4.74,0,0,0-4-3.81H230.7Z" fill-rule="evenodd" fill="url(#linear-gradient-9)"/><path d="M230.74,168.76l-1-1V117.06l1,1Z" fill-rule="evenodd" fill="url(#linear-gradient-10)"/><path d="M217.81,168.76l1.26-1.32V117.06l-1.26,1.31Z" fill-rule="evenodd" fill="url(#linear-gradient-11)"/><path d="M204.89,168.76l-1.26-1.32V117.06l1.26,1.31Z" fill-rule="evenodd" fill="url(#linear-gradient-12)"/><path d="M192,106.65l.95,1V167.8l-.95,1Z" fill-rule="evenodd" fill="url(#linear-gradient-13)"/><path d="M133.71,61.52a22.07,22.07,0,0,0-22.07,22.07V216.41a22.07,22.07,0,0,0,22.07,22.07H266.29a22.07,22.07,0,0,0,22.07-22.07V83.59a22.07,22.07,0,0,0-22.07-22.07Zm-.18-1.2H266.47a23.21,23.21,0,0,1,23.21,23.21V216.47a23.21,23.21,0,0,1-23.21,23.21H133.53a23.21,23.21,0,0,1-23.21-23.21V83.53A23.21,23.21,0,0,1,133.53,60.32Z" fill-rule="evenodd" fill="url(#linear-gradient-14)"/><path d="M158.21,106.65h24.61v65.26c0,12-11,21.75-24.61,21.75H151v-11.6h7.24c6.39,0,11.58-4.54,11.58-10.15V169H158.21a14.49,14.49,0,0,1-14.48-14.5V121.16A14.5,14.5,0,0,1,158.21,106.65Zm2.89,11.61a4.34,4.34,0,0,0-4.34,4.35v30.45a4.34,4.34,0,0,0,4.34,4.35h8.69V118.26Z" fill-rule="evenodd" fill="url(#linear-gradient-15)"/><path d="M150.67,181.75H159c3-.28,10.52-2,10.57-10.31a26.41,26.41,0,0,0,0-2.68c.32-.34.74-.55,1.18-.95,0,1.92.1,2.27,0,4-.17,8.23-8,11.13-11.75,11.1h-8.37Z" fill-rule="evenodd" fill="url(#linear-gradient-16)"/><path d="M182.82,168.34v.73h-.73Zm-24.63-61.69h24.63v1.22H158.9a13.82,13.82,0,0,0-13.82,13.82v32.46A13.82,13.82,0,0,0,158.9,168h12l-1,1.1h-11.7a14.45,14.45,0,0,1-14.46-14.45V121.11A14.46,14.46,0,0,1,158.19,106.65Z" fill-rule="evenodd" fill="url(#linear-gradient-17)"/><path d="M182.82,106.65v64.22c.1,14.47-13.49,22.41-23.77,22.41l-8.07.07.92-1.25h7.15c12.09-.32,22.21-9.37,22.58-21.26v-63Z" fill-rule="evenodd" fill="url(#linear-gradient-18)"/><path d="M150.67,193.35l1.26-1.26v-8.84L150.67,182Z" fill="#1e516d" fill-rule="evenodd"/><path d="M161,118.25a4.31,4.31,0,0,0-4.31,4.31v30.58a4.31,4.31,0,0,0,4.31,4.32h8.68V118.25Zm-.45-1.19h10.32v41.61H160.52a5.13,5.13,0,0,1-5.13-5.13V122.19A5.13,5.13,0,0,1,160.52,117.06Z" fill-rule="evenodd" fill="url(#linear-gradient-19)"/><rect x="169.58" y="127.46" width="1.26" height="9.46" fill="#4472c4"/><path d="M170.84,117.06l-1.26,1.27v38.75l1.26,1.27Z" fill-rule="evenodd" fill="url(#linear-gradient-20)"/><path d="M133.14,71.91a11.22,11.22,0,0,0-11.23,11.22V216.85a11.23,11.23,0,0,0,11.23,11.22H266.73A11.23,11.23,0,0,0,278,216.85V83.13a11.22,11.22,0,0,0-11.23-11.22Zm-.07-1.19H266.93a12.34,12.34,0,0,1,12.35,12.34V216.94a12.34,12.34,0,0,1-12.35,12.34H133.07a12.34,12.34,0,0,1-12.35-12.34V83.06A12.34,12.34,0,0,1,133.07,70.72Z" fill-rule="evenodd" fill="url(#linear-gradient-21)"/><path d="M133.71,61.52a22.07,22.07,0,0,0-22.07,22.07V216.41a22.07,22.07,0,0,0,22.07,22.07H266.29a22.07,22.07,0,0,0,22.07-22.07V83.59a22.07,22.07,0,0,0-22.07-22.07Zm-.18-1.2H266.47a23.21,23.21,0,0,1,23.21,23.21V216.47a23.21,23.21,0,0,1-23.21,23.21H133.53a23.21,23.21,0,0,1-23.21-23.21V83.53A23.21,23.21,0,0,1,133.53,60.32Z" fill-rule="evenodd" fill="url(#linear-gradient-22)"/><path d="M133.75,61.52a22.11,22.11,0,0,0-22.11,22.11V216.69a22.11,22.11,0,0,0,22.11,22.11H266.56a22.11,22.11,0,0,0,22.12-22.11V83.63a22.11,22.11,0,0,0-22.12-22.11Zm-.18-1.2H266.74A23.25,23.25,0,0,1,290,83.57V216.74A23.26,23.26,0,0,1,266.74,240H133.57a23.25,23.25,0,0,1-23.25-23.26V83.57A23.25,23.25,0,0,1,133.57,60.32Z" fill-rule="evenodd" fill="url(#linear-gradient-23)"/></g></svg>