<svg id="Layer_1" data-name="Layer 1" xmlns="http://www.w3.org/2000/svg" viewBox="0 0 400 300"><g id="Intuit_Logo" data-name="Intuit Logo"><path d="M251.48,192.32h-8a2.73,2.73,0,0,1-3-2.48l-.12-3.09a31.22,31.22,0,0,1-19.69,7.06c-13.87,0-19.56-8.79-19.56-22.16V135c0-2.11,1.24-2.85,3.21-2.85H213c2,0,3.1.61,3.1,2.85v34c0,6.82,1.73,11.52,9.17,11.52,4.69,0,10.64-2.6,14.35-5.94V135c0-2.11,1.12-2.85,3.09-2.85h8.8c2,0,3.09.61,3.09,2.85v53.82C254.7,191.46,254,192.32,251.48,192.32Z" fill="#365ebf"/><path d="M50,134.65c0-1.5.75-2.47,2.25-2.47h10.5a2.18,2.18,0,0,1,2.36,2.47v54.58c0,2.25-1,3.09-3.1,3.09H53.22c-2.25,0-3.22-.86-3.22-3.09Z" fill="#365ebf"/><path d="M270.19,134.65c0-1.5.75-2.47,2.25-2.47h10.5a2.17,2.17,0,0,1,2.35,2.47v54.58c0,2.25-1,3.09-3.1,3.09h-8.78c-2.25,0-3.22-.86-3.22-3.09Z" fill="#365ebf"/><path d="M131.42,192.32H122.5c-2.25,0-3-1.11-3-3.22V155.42c0-6.8-1.85-11.63-9.41-11.63-4.82,0-10.76,2.6-14.6,5.94v39.49c0,2.12-.87,3.1-3,3.1h-9a2.7,2.7,0,0,1-3-3v-54c0-2,.87-3.09,3.1-3.09h8.1c1.73,0,2.85.5,3,2.35l.12,3.31a32.38,32.38,0,0,1,20.06-7.18c13.87,0,19.56,8.66,19.56,22.16V189.1C134.39,191.21,133.65,192.32,131.42,192.32Z" fill="#365ebf"/><path d="M175.54,115.29a9.08,9.08,0,1,0-9.09,9.07h0A9.08,9.08,0,0,0,175.54,115.29Z" fill="#365ebf"/><path d="M188.46,132.18c1.5,0,2.36.49,2.36,2.1V143a2.26,2.26,0,0,1-2.14,2.36H174v43.87c0,2.25-1,3.1-3.22,3.1h-8.62c-2.25,0-3.21-.86-3.21-3.1V145.35H144.59a2.25,2.25,0,0,1-2.47-2c0-.11,0-.23,0-.34v-8.72c0-1.61.86-2.1,2.35-2.1Z" fill="#365ebf"/><path d="M329.18,115.29a9.09,9.09,0,1,0-9.09,9.07h0A9.09,9.09,0,0,0,329.18,115.29Z" fill="#365ebf"/><path d="M342.09,132.18c1.5,0,2.35.49,2.35,2.1V143a2.26,2.26,0,0,1-2.14,2.36H327.62v43.87c0,2.25-1,3.1-3.22,3.1h-8.62c-2.25,0-3.21-.86-3.21-3.1V145.35H298.22a2.25,2.25,0,0,1-2.47-2,2,2,0,0,1,0-.35v-8.72c0-1.61.87-2.1,2.35-2.1Z" fill="#365ebf"/><path d="M346,184.69a4,4,0,1,1-.06,0Zm0,7.44a3.43,3.43,0,1,0-3.32-3.54v.08a3.31,3.31,0,0,0,3.16,3.45Zm-1.56-5.78h1.83c1.11,0,1.64.44,1.64,1.34a1.21,1.21,0,0,1-1.12,1.28h-.12L348,191h-.75L346,189h-.75v2h-.75v-4.69Zm.75,2.08H346c.64,0,1.23,0,1.23-.75s-.54-.75-1-.75h-1v1.5Z" fill="#365ebf"/></g></svg>