<svg id="Layer_1" data-name="Layer 1" xmlns="http://www.w3.org/2000/svg" viewBox="0 0 400 300"><path d="M83.44,166v10.82H50V123.24H61.73V166Zm5.18-25.49H99.89v36.3H88.62Zm5.63-18A6.54,6.54,0,1,1,87.72,129a6.54,6.54,0,0,1,6.53-6.54m76.79,18h13.8L170,157.24l14.49,19.52H170.38l-12-17.93h-.15v17.93H147V123.23h11.27v32Zm-64.92,0h10.82v5h.15a11.85,11.85,0,0,1,10.67-5.86c11.42,0,13.52,7.52,13.52,17.28v19.89H130V159.11c0-4.2-.07-9.61-5.86-9.61s-6.76,4.58-6.76,9.31v17.94H106.12V140.48ZM208.57,154.4a6.75,6.75,0,0,0-6.91-6.92c-5,0-7.67,3.39-8,6.92Zm9.55,16.07a19.84,19.84,0,0,1-15.42,7.22c-11.27,0-20.29-7.52-20.29-19.17s9-19.14,20.29-19.14c10.53,0,17.13,7.51,17.13,19.14v3.54H193.68a8.42,8.42,0,0,0,8.49,7.06c3.69,0,6.16-1.87,8-4.44Zm25.2-21.22c-5.64,0-9,3.76-9,9.24s3.39,9.24,9,9.24,9-3.75,9-9.24-3.38-9.24-9-9.24m19.39,27.5H252.34v-4.81h-.15a14.17,14.17,0,0,1-11.2,5.71c-10.82,0-18-7.81-18-18.86,0-10.15,6.31-19.46,16.68-19.46,4.66,0,9,1.27,11.56,4.8h.15v-20.9H262.7Z"/><path d="M344.37,112H279.59a5.54,5.54,0,0,0-5.61,5.48v65.05a5.56,5.56,0,0,0,5.61,5.49h64.78a5.57,5.57,0,0,0,5.63-5.49V117.47A5.57,5.57,0,0,0,344.37,112Z" fill="#0177b5"/><path d="M285.25,140.49h11.28v36.28H285.25Zm5.64-18a6.54,6.54,0,1,1-6.54,6.53,6.55,6.55,0,0,1,6.54-6.53m12.71,18h10.81v4.95h.15a11.82,11.82,0,0,1,10.67-5.86c11.42,0,13.52,7.51,13.52,17.28v19.9H327.49V159.1c0-4.21-.08-9.62-5.86-9.62s-6.77,4.58-6.77,9.32v17.94H303.6V140.49Z" fill="#fff"/></svg>