<svg id="Layer_1" data-name="Layer 1" xmlns="http://www.w3.org/2000/svg" viewBox="0 0 400 300"><g id="g16"><g id="g22"><path id="path24" d="M263.47,60H136.53c-10.29,0-14.09,3.8-14.09,14.09V198.31c0,1.16,0,2.24.15,3.25.24,2.24.28,4.42,2.37,6.9.2.24,2.34,1.83,2.34,1.83,1.14.56,1.93,1,3.22,1.5L193,238c3.25,1.48,4.6,2.06,7,2h0c2.36,0,3.71-.54,7-2l62.51-26.19c1.29-.52,2.08-.94,3.22-1.5,0,0,2.14-1.59,2.34-1.83,2.09-2.48,2.13-4.66,2.37-6.9.1-1,.15-2.09.15-3.25V74.09c0-10.29-3.8-14.09-14.09-14.09" fill="#2f2d2e" fill-rule="evenodd"/></g><g id="g26"><path id="path28" d="M255,184.88l0,.29,0,.31-.06.29-.08.29-.06.25-.08.29-.12.26-.11.23-.11.26-.15.22-.14.23-.17.23-.14.23-.17.2-.21.2-.17.18-.22.2-.2.17-.23.17-.23.14-.23.17-.26.15-.25.11-.26.14-.28.12-.29.11-.28.09-.29.09-.26.08-.28.06-.26.06-.25.05-.29.06-.29,0-.25,0-.29,0-.31,0-.29,0h-1.19l-.29,0h-.31l-.29,0-.28,0-.32,0-.28-.06-.29,0-.28-.05-.29-.06-.28-.06-.29-.06-.29-.08-.25-.06-.29-.09-.28-.08-.26-.12-.28-.08-.26-.09-.28-.11-.26-.12-.26-.11-.26-.14-.25-.12-.26-.14-.23-.14-.25-.15-.23-.14-.23-.14-.23-.18-.23-.17-.23-.17-.22-.17-.2-.17-.23-.2.17-.23.2-.2.17-.23.2-.23.17-.2.17-.23.2-.23.17-.2.2-.23.17-.2.2-.23.18-.23.17-.2.2-.23.17-.23.2-.2.17-.23.23.17.25.18.23.17.26.17.23.14.25.17.23.15.26.11.23.15.25.11.26.11.26.12.25.09.26.11.28.09.29.08.26.09.28.05.29.06.28.06.32,0,.28.06h.29l.31,0h.63l.31,0,.29-.06.25-.06.26-.06.23-.08.2-.12.23-.17.17-.2.11-.23.09-.26,0-.28v-.06l0-.34-.12-.29-.14-.2-.2-.17-.23-.18-.23-.11-.25-.11-.29-.12-.34-.14-.2-.06-.23-.06-.25-.08-.26-.06-.29-.09-.28,0-.32-.09-.28-.06-.31-.08-.29-.06-.29-.09-.28-.05-.29-.09-.25-.08-.29-.06-.25-.09-.26-.08-.26-.09-.31-.12-.29-.11-.28-.11-.29-.12-.25-.14L241,181l-.23-.14-.25-.14-.23-.17-.23-.15-.2-.17-.2-.2-.2-.2-.17-.2-.17-.2-.14-.2-.15-.23-.14-.26-.11-.2-.09-.23-.08-.25-.09-.23-.06-.29-.05-.26,0-.28,0-.29,0-.32v-.66l0-.28,0-.26,0-.29.05-.25.06-.26.09-.26,0-.26.12-.26.11-.25.12-.26.14-.26.14-.26.17-.23.17-.23.2-.22.2-.21.2-.22.23-.21.2-.14.23-.17.23-.17.22-.15.26-.14.26-.11.25-.15.26-.11.29-.09.28-.11.26-.09.23-.06.25-.05.26-.06.28-.06.26-.05.29,0,.28,0,.29,0,.28,0h1.23l.31,0,.32,0h.28l.32,0,.28.05.31,0,.29.06.26.06.28.05.29.06.25.06.29.09.26.08.25.06.29.11.25.09.26.11.26.12.28.11.26.15.23.11.26.14.25.15.23.14.26.17.22.15.23.17.23.17.23.17-.17.23-.14.23-.18.23-.17.23-.17.26-.14.23-.17.22-.17.23-.15.23-.17.23-.17.23-.14.23-.17.26-.17.23-.17.23-.15.23-.17.23-.23-.18-.25-.14-.23-.14-.23-.17-.26-.12-.23-.14-.25-.12-.23-.11-.26-.12-.22-.11-.26-.09-.23-.11-.31-.09-.29-.08-.28-.09-.29-.06-.28-.05-.29-.06-.28,0-.29,0-.26,0h-.62l-.32.06-.28.06-.26.05-.23.12-.2.11-.25.23-.18.26-.11.26,0,.29v0l0,.38.14.31.12.17.2.2.25.15.23.14.29.11.31.12.34.11.23.06.23.09.26.05.25.09.29.06.31.08.32.09.31.08.31.06.29.09.31.08.29.06.28.09.29.08.25.09.29.09.26.08.25.09.32.11.28.14.29.12.28.14.26.14.26.15.22.14.23.17.23.15.23.2.23.2.2.23.2.2.17.23.17.25.14.23.14.26.12.23.08.26.09.26.06.25,0,.29.06.29,0,.28,0,.32v.69Zm-20,5.73H218.62V169.75h16.49v4.73h-11v3.41H234v4.44h-9.93v3.55h11.18v4.73Zm-20.85,0H208.9V178.28l-.14.23-.17.26-.14.23-.17.23-.15.25-.17.23-.14.23-.14.26-.17.23-.15.23-.17.23-.14.26-.17.23-.14.23-.15.25-.17.24-.14.22-.17.26-.14.23-.17.23-.15.26-.14.23-.17.23-.14.26-.17.23-.15.23-.17.23-.14.25-.14.23-.18.23-.14.26-.17.23-.14.23-.17.26-.15.23h-.11l-.17-.26-.14-.23-.17-.26-.15-.23-.17-.25-.14-.24-.17-.25-.14-.23-.18-.26-.14-.23-.17-.26-.14-.23-.17-.26-.15-.23L201,183l-.14-.22-.17-.26-.17-.23-.14-.26-.18-.23-.14-.26-.17-.23-.14-.26-.17-.23-.15-.25-.17-.23-.14-.26-.17-.23-.14-.26-.17-.23-.15-.26-.17-.23-.14-.26-.17-.22v12.27h-5.42V169.75h5.85l.14.23.14.26.17.23.15.26.14.23.14.25.14.23.17.26.15.23.14.23.14.25.14.23.18.26.14.23.14.26.14.23.18.23.14.25.14.23.14.26.14.23.18.25.14.23.14.26.14.23.15.23.17.26.14.23.14.25.15.23.14.26.17.23.14.25.14.23.15-.23.14-.25.17-.23.14-.26.15-.23.14-.25.17-.23.14-.26.15-.23.14-.23.17-.26.14-.23.14-.25.15-.23.17-.26.14-.23.14-.25.15-.23.14-.23.17-.26.14-.23.15-.26.14-.23.17-.25.14-.23.14-.23.15-.26.17-.23.14-.25.14-.23.15-.26.17-.23.14-.26.14-.23h5.85v20.86ZM181,182l-.09-.26-.11-.29-.11-.26-.09-.26-.11-.26-.12-.28-.08-.26-.12-.26-.11-.26-.09-.26-.11-.28-.09-.26-.11-.26-.12-.26-.08-.26-.11-.28-.12-.26-.09-.26-.11-.26-.11-.29-.09-.26-.11-.25-.12.25-.08.26-.12.29-.11.26-.09.26-.11.26-.12.28-.11.26-.08.26-.12.26-.11.26-.09.28-.11.26-.12.26-.08.26-.12.26-.11.28-.11.26-.09.26-.11.26-.12.29-.08.26-.12.25h4.82Zm9,8.59h-5.6l-.11-.26-.08-.26-.12-.25-.11-.29-.09-.26-.11-.25-.12-.26-.08-.26-.12-.26-.11-.26-.09-.25-.11-.29-.11-.26-.09-.26-.12-.25h-8.18l-.11.25-.09.26-.11.26-.12.29-.08.25-.12.26-.11.26-.09.26-.11.26-.12.25-.08.26-.11.29-.12.25-.09.26-.11.26h-5.76l.11-.26.12-.26.11-.25.11-.29.09-.26L168,189l.11-.26.11-.26.12-.26.11-.28.11-.26.12-.26.09-.26.11-.26.11-.25.12-.29.11-.26.11-.26.12-.25.11-.26.09-.26.11-.29.12-.25.11-.26.12-.26.11-.26.11-.26.12-.28.08-.26.12-.26.11-.26.12-.25L171,182l.11-.29.12-.26.11-.25.09-.26.11-.26.12-.26.11-.28.12-.26.11-.26.11-.26.12-.25.08-.26.12-.26.11-.29.11-.25.12-.26.11-.26.12-.26.11-.25.09-.29.11-.26.12-.26.11-.25.11-.26.12-.26.11-.29.11-.25.09-.26.12-.26.11-.26.11-.26.12-.28.11-.26.12-.26.11-.26.08-.25.12-.26.11-.29.12-.26.11-.25.12-.26.11-.26.11-.26.09-.28.11-.26.12-.26.11-.26h5.28l.11.26.12.26.11.26.11.28.09.26.11.26.12.26.11.25.12.26.11.29.11.26.12.25.08.26.12.26.11.26.12.28.11.26.12.26.11.26.11.26.09.25.11.29.12.26.11.26.12.25.11.26.11.26.12.29.08.25.12.26.11.26.12.26.11.25.11.29.12.26.11.26.09.25.11.26.12.26.11.26.11.28.12.26.11.26.12.26.08.25.12.26.11.29.11.26.12.25.11.26.12.26.11.26.09.28.11.26.11.26.12.26.11.26.12.25.11.29.12.26.08.26.11.25.12.26.11.26.12.29.11.25.12.26.11.26.08.26.12.26.11.28.12.26.11.26.11.26.12.25.11.26.09.29.11.25.12.26.11.26ZM165,188l-.23.17-.2.14-.23.17-.23.15-.23.17-.22.14-.23.15-.26.14-.26.14-.25.15-.26.11-.26.14-.28.12-.26.11-.28.12-.26.11-.26.09-.25.08-.26.09-.28.08-.26.09-.29.06-.25.05-.29.06-.28.06-.29,0-.31,0-.29,0-.31,0-.29,0-.31,0h-1.23l-.28,0-.32,0-.28,0-.29,0-.28,0-.29-.06-.28-.06-.26-.05-.29-.06-.25-.09-.29-.05-.25-.09-.26-.12-.26-.08-.28-.12-.26-.11-.26-.11-.25-.12-.26-.14-.23-.14-.25-.15-.23-.14-.23-.14-.23-.18-.23-.17-.22-.17-.21-.17-.19-.17-.2-.2-.2-.18-.2-.2-.2-.2-.17-.2-.18-.23-.17-.2-.14-.23-.17-.23-.14-.23-.15-.22-.14-.26-.14-.23-.11-.26-.12-.26-.11-.26-.12-.25-.08-.23-.12-.26,0-.26-.09-.26-.06-.28-.08-.26-.06-.29,0-.25-.06-.29,0-.26,0-.29,0-.28,0-.29v-.94l0-.32v-.29l0-.28,0-.32,0-.28,0-.29.06-.26.09-.28.05-.29.09-.26.08-.28.09-.26.11-.29.12-.26.11-.25.12-.26.11-.26.14-.26.14-.23.15-.23.14-.23.14-.22.17-.23.17-.23.18-.23.17-.2.2-.2.17-.2.2-.2.2-.21.2-.17.23-.2.19-.17.23-.17.23-.14.23-.18.23-.14.23-.14.25-.15.26-.14.26-.14.25-.12.26-.11.28-.15.23-.08.29-.09.26-.11.25-.06.26-.09.28-.05.26-.09.28-.06.29,0,.29-.06.28,0,.29,0,.28,0,.29,0h1.22l.32,0,.31,0h.29l.28,0,.31.06.26,0,.29.05.28.06.26.06.26.05.25.06.26.09.26.06.22.08.26.09.26.11.25.12.26.11.26.14.25.12.23.14.26.15.23.14.25.14.23.17.23.15.23.17.23.17.23.2.22.17-.17.23-.2.2-.17.23-.2.23-.17.23-.17.2-.2.23-.17.23-.17.2-.2.23-.17.23-.2.23-.18.2-.17.23-.2.23-.17.23-.2.2-.17.23-.23-.18-.22-.2-.23-.14-.23-.17-.23-.14-.23-.15-.22-.14-.26-.14-.23-.12-.23-.11-.23-.09-.25-.09-.26-.08-.26-.06-.28-.06-.29,0-.28,0-.31,0-.32,0h-.6l-.28,0-.26,0-.29.06-.25,0-.26.09-.26.08-.25.12-.26.11-.23.15-.22.14-.23.14-.2.18-.2.17-.2.17-.17.2-.2.2-.18.23-.14.2-.14.23-.14.26-.14.23-.12.25-.09.26-.11.26-.08.29-.06.28-.06.26-.06.31,0,.29,0,.29v.66l0,.28,0,.26,0,.29.06.25.06.26.05.26.09.26.08.23.12.28.11.26.15.26.14.23.14.23.17.23.17.2.2.2.18.2.19.17.23.17.23.18.23.14.23.14.25.12.26.11.26.12.28.08.29.09.28.05.29.06.28,0,.32,0h.65l.32,0,.31,0,.29,0,.28-.05.29-.06.28-.09.26,0,.25-.12.23-.11.26-.12.2-.11.23-.15v-2.6h-4.17v-4.18h9.42v9.31Z" fill="#fff"/></g><g id="g30"><path id="path32" d="M155.82,122.57h12.37V113H155.82V93.48h12.86V83.92H145.33v69h23.54v-9.56H155.82Z" fill="#fff"/></g><g id="g34"><path id="path36" d="M244.37,124.64v15.58c0,2.76-1.27,4-3.92,4h-2c-2.74,0-4-1.28-4-4V96.64c0-2.76,1.28-4,4-4h1.77c2.65,0,3.93,1.28,3.93,4v13.51h10.3V96.05c0-8.58-4.12-12.72-12.66-12.72h-5.1c-8.54,0-12.76,4.24-12.76,12.82v44.56c0,8.58,4.22,12.82,12.76,12.82h5.2c8.54,0,12.75-4.24,12.75-12.82V124.64Z" fill="#fff"/></g><path id="path38" d="M207.92,152.93h10.5v-69h-10.5Z" fill="#fff"/><g id="g40"><path id="path42" d="M192.68,114.58c0,2.76-1.27,4-3.92,4h-4.32V93.19h4.32c2.65,0,3.92,1.28,3.92,4Zm-2.26-30.66H173.94v69h10.5v-25h6c8.54,0,12.76-4.24,12.76-12.81V96.74c0-8.58-4.22-12.82-12.76-12.82" fill="#fff"/></g><g id="g44"><path id="path46" d="M170.09,215.34h60.1l-30.67,10.11Z" fill="#fff" fill-rule="evenodd"/></g></g></svg>