<svg id="Layer_1" data-name="Layer 1" xmlns="http://www.w3.org/2000/svg" viewBox="0 0 400 300"><g id="layer1"><g id="g3104"><path id="path3001" d="M92.88,138.68H81l-9.17,29.54h-.17l-9.16-29.54H50L64.88,182H78.17Z"/><path id="path3003" d="M134.91,163.8v-1.91a7.6,7.6,0,0,0,.08-1,28.68,28.68,0,0,0-1.38-9,23.22,23.22,0,0,0-4-7.47,18.61,18.61,0,0,0-6.64-5.1,21.28,21.28,0,0,0-9.13-1.87,23.37,23.37,0,0,0-9,1.7A20.58,20.58,0,0,0,97.74,144a21.54,21.54,0,0,0-4.54,7.22,24.83,24.83,0,0,0-1.59,9,25.9,25.9,0,0,0,1.55,9.09,20.73,20.73,0,0,0,4.46,7.22,21.21,21.21,0,0,0,7.26,5,23.58,23.58,0,0,0,8.92,1.62,22.09,22.09,0,0,0,12.74-3.53,20.73,20.73,0,0,0,8.19-10.77H122.58c-.83,1.2-1,2.15-2.46,3.14a8,8,0,0,1-5.22,1.46c-3.36,0-5.7-.45-7.49-2.22s-2.78-3.69-3-7.39Zm-30.59-8.92a9.09,9.09,0,0,1,.49-2.56,8.47,8.47,0,0,1,1.78-2.71,9.12,9.12,0,0,1,3.07-2.32,10.81,10.81,0,0,1,4.31-.71c2.65.2,3.32.74,5.13,2.1,1.44,1.84,2.58,3.1,3.14,6.2Z"/><g id="g3026"><path id="path3024" d="M169.89,181.74h12.54V138.57H169.89Z"/><path id="path3007" d="M182.43,123.12H169.89V134.3h12.54Z"/></g><path id="path3011" d="M224.35,160.45q0,10.35,6.14,16.61t16.31,6.26q10.26,0,16.4-6.26t6.14-16.61q0-10.42-6.14-16.69t-16.4-6.26q-10.17,0-16.31,6.26T224.35,160.45Zm11.94,0a24,24,0,0,1,.55-5.25,14.2,14.2,0,0,1,1.76-4.46,8.82,8.82,0,0,1,3.28-3.11,10,10,0,0,1,4.92-1.14,10.25,10.25,0,0,1,5,1.14,8.82,8.82,0,0,1,3.28,3.11,14.2,14.2,0,0,1,1.76,4.46,24,24,0,0,1,.55,5.25,23.54,23.54,0,0,1-.55,5.22,14.3,14.3,0,0,1-1.76,4.41,8.75,8.75,0,0,1-3.28,3.11,10.25,10.25,0,0,1-5,1.14,10,10,0,0,1-4.92-1.14,8.75,8.75,0,0,1-3.28-3.11,14.3,14.3,0,0,1-1.76-4.41A23.54,23.54,0,0,1,236.29,160.45Z"/><path id="path3013" d="M273,181.47h13V159c0-4.36.59-6.13,2.07-8s3.15-2.85,6.46-2.85c2.8,0,3.61.85,4.8,2.56s1.8,3,1.8,6.59v24.18h13.35V155.14a33.19,33.19,0,0,0-.73-7.41,13.14,13.14,0,0,0-2.57-5.47,11.76,11.76,0,0,0-5-3.52,16.54,16.54,0,0,0-7-1.65,21.28,21.28,0,0,0-8.6,2.18c-2.43,1.48-3.66,3.61-5.05,5.35v-6H273Z"/><path id="path3030" d="M329.48,159.73h-5.63l-9.46-21.33h6.24l6,13.69,16.9-35.41H350Z" fill="red"/><path id="path3053" d="M139,138.79h12.22v6.93c4.22-6.48,9.25-8.64,14.63-7.27l-.08,11.6c-6.25-.86-11.38.84-14,8.49v23H139.06Z"/><path id="path3055" d="M223.37,181.57H186.82v-10l20.08-22.71h-20v-10h35.38v10l-20.46,22.91h21.54Z"/></g></g></svg>