<svg id="Layer_1" data-name="Layer 1" xmlns="http://www.w3.org/2000/svg" viewBox="0 0 400 300"><g id="TESLA"><g id="g8"><polyline id="polyline10" points="254.79 237.82 254.79 249.98 258.69 249.98 258.69 241.88 272.88 241.88 272.88 249.98 276.78 249.98 276.78 237.84 254.79 237.82" fill="#e82127"/><path id="path12" d="M258.25,233.88h15a5.51,5.51,0,0,0,4.06-4H254.19a5.54,5.54,0,0,0,4.06,4" fill="#e82127"/></g><g id="g14"><path id="path16" d="M243,250a5.56,5.56,0,0,0,3.43-4H228.92V229.87H225V250h18" fill="#e82127"/></g><g id="g18"><path id="path20" d="M195.86,233.83h13.85a6.07,6.07,0,0,0,4.26-4H192v11.88h18v4.17H195.86a7.93,7.93,0,0,0-5,4.07l1.15,0h21.87V237.8h-18v-4" fill="#e82127"/></g><g id="g22"><path id="path24" d="M161.68,233.87h15a5.52,5.52,0,0,0,4.06-4H157.61a5.55,5.55,0,0,0,4.07,4" fill="#e82127"/><path id="path26" d="M161.68,241.82h15a5.52,5.52,0,0,0,4.06-4H157.61a5.55,5.55,0,0,0,4.07,4" fill="#e82127"/><path id="path28" d="M161.68,250h15a5.51,5.51,0,0,0,4.06-4H157.61a5.54,5.54,0,0,0,4.07,4" fill="#e82127"/></g><g id="g30"><path id="path32" d="M122.69,229.89a5.6,5.6,0,0,0,4,4h6.31l.33.13v15.92h3.94V234l.35-.13H144a5.67,5.67,0,0,0,4-4v0H122.69v0" fill="#e82127"/></g></g><g id="T"><path id="path35" d="M200,190.11,219.69,79.4c18.77,0,24.68,2.06,25.54,10.45,0,0,12.59-4.69,18.93-14.22-24.77-11.48-49.66-12-49.66-12L200,81.32h0L185.48,63.63s-24.89.52-49.66,12c6.34,9.53,18.94,14.22,18.94,14.22.86-8.4,6.77-10.45,25.4-10.47L200,190.11" fill="#e82127"/><path id="path37" d="M200,58.52a162.17,162.17,0,0,1,66.41,13.33,53.45,53.45,0,0,0,3.94-8.14A192.61,192.61,0,0,0,200,50a192.53,192.53,0,0,0-70.35,13.71,67.5,67.5,0,0,0,3.94,8.14A162.17,162.17,0,0,1,200,58.52h0" fill="#e82127"/></g></svg>